<?xml version="1.0" encoding="UTF-8"?>
<svg version="1.1" xmlns="http://www.w3.org/2000/svg" width="1080" height="1080">
<path d="M0 0 C0.82452667 -0.0049649 1.64905334 -0.00992981 2.49856567 -0.01504517 C5.23285753 -0.02968003 7.96709139 -0.03647044 10.70141602 -0.04199219 C12.5970917 -0.04774187 14.49276736 -0.05349962 16.38844299 -0.05926514 C20.36557283 -0.06977843 24.34268243 -0.07561917 28.31982422 -0.07910156 C33.42239307 -0.08459169 38.52469578 -0.10862939 43.62718105 -0.13707352 C47.54332773 -0.15567158 51.45940988 -0.16090395 55.375597 -0.16243744 C57.25711589 -0.16547013 59.13863347 -0.17351932 61.02010918 -0.18662262 C63.64903061 -0.20362664 66.2772963 -0.20181704 68.90625 -0.1953125 C69.68713486 -0.20452728 70.46801971 -0.21374207 71.27256775 -0.22323608 C74.10454193 -0.201222 76.44744717 -0.1266407 79.00350952 1.16297913 C80.67640204 4.45850742 80.40690524 7.8779486 80.35839844 11.48803711 C80.35905556 12.76153519 80.35905556 12.76153519 80.35972595 14.0607605 C80.35763461 16.86919082 80.3342874 19.67702542 80.31079102 22.48535156 C80.30519629 24.43162205 80.30092561 26.37789676 80.29792786 28.32417297 C80.2864694 33.44857431 80.25699355 38.57272086 80.22381592 43.69702148 C80.18774334 49.84436019 80.17395865 55.99178406 80.15645599 62.1391983 C80.12735686 71.48002039 80.06987654 80.82028333 80.01782227 90.16113281 C102.12782227 90.16113281 124.23782227 90.16113281 147.01782227 90.16113281 C146.98301758 83.99941406 146.94821289 77.83769531 146.91235352 71.48925781 C146.89702687 67.58820668 146.88258515 63.68719262 146.87133789 59.78613281 C146.8533969 53.59269512 146.83216118 47.39939034 146.79150391 41.20605469 C146.75893377 36.21345309 146.74097414 31.220994 146.73319054 26.22829437 C146.72764282 24.32247422 146.71680961 22.41666197 146.7006321 20.5109024 C146.67888901 17.84368466 146.67585403 15.17705758 146.67724609 12.50976562 C146.66646027 11.71998322 146.65567444 10.93020081 146.64456177 10.1164856 C146.6619461 7.04296167 146.86762581 4.52140519 148.05607605 1.67070007 C151.06256044 -0.6427951 154.10845334 -0.38798207 157.74633789 -0.34057617 C158.53199631 -0.34597916 159.31765472 -0.35138214 160.12712097 -0.35694885 C162.72648689 -0.36946553 165.32475152 -0.35292637 167.92407227 -0.33496094 C169.72863829 -0.33511586 171.53320465 -0.33660368 173.33776855 -0.33937073 C177.12075499 -0.34075603 180.9033629 -0.32817483 184.6862793 -0.30541992 C189.53891337 -0.27703481 194.39091831 -0.27977081 199.24359894 -0.29251003 C202.97020861 -0.29946022 206.69667249 -0.29168551 210.42326355 -0.27925301 C212.21265606 -0.27473207 214.00206418 -0.2744073 215.79145813 -0.27831841 C218.29106811 -0.28122419 220.78980669 -0.26475472 223.28930664 -0.24291992 C224.40217293 -0.24967239 224.40217293 -0.24967239 225.53752136 -0.25656128 C230.56012535 -0.1835472 230.56012535 -0.1835472 232.70753056 1.43360955 C234.30113088 3.53465438 234.39435154 4.57411629 234.398139 7.18918514 C234.40657894 8.01128945 234.41501888 8.83339376 234.42371458 9.68041033 C234.41770453 10.58331617 234.41169449 11.48622202 234.40550232 12.41648865 C234.41358063 13.85555237 234.41358063 13.85555237 234.42182213 15.32368809 C234.43618063 18.55275354 234.42897851 21.7814136 234.421875 25.01049805 C234.42757444 27.31969535 234.43453703 29.62888983 234.44267273 31.93807983 C234.46066634 38.22106862 234.4594241 44.50391823 234.45373034 50.78692508 C234.45064744 56.02578083 234.45672091 61.26460951 234.46276909 66.50346142 C234.47763798 79.56630599 234.47398365 92.6290721 234.46190578 105.69191641 C234.4519729 117.04107334 234.46491319 128.39006725 234.48883998 139.73919903 C234.51321279 151.38750042 234.52244323 163.03571904 234.51618725 174.68404537 C234.51280942 181.22570356 234.51528748 187.76722705 234.53243828 194.3088665 C234.54785806 200.45910026 234.544007 206.60902181 234.52513313 212.75924301 C234.52143348 215.01998267 234.52459549 217.2807452 234.53501892 219.54146385 C234.54813623 222.62093826 234.53676332 225.69936489 234.51902771 228.77879333 C234.53343522 230.12980602 234.53343522 230.12980602 234.54813379 231.50811189 C234.47664419 237.51550833 234.47664419 237.51550833 232.20232487 240.71578312 C229.03514881 242.8113068 226.04736248 242.72011913 222.37524414 242.67871094 C221.22820763 242.68922485 221.22820763 242.68922485 220.05799866 242.69995117 C217.53381893 242.71753632 215.01076311 242.7059073 212.48657227 242.69238281 C210.73067001 242.6950776 208.97476922 242.6989599 207.21887207 242.70397949 C203.54021995 242.70987522 199.86195653 242.70130937 196.18334961 242.68261719 C191.46860566 242.65982738 186.75477248 242.67295009 182.04006195 242.69690704 C178.41462342 242.71136313 174.78940073 242.70675995 171.16395569 242.69639587 C169.42562248 242.69372805 167.68726966 242.69700031 165.94895935 242.70631409 C163.51891193 242.71647688 161.09033807 242.70098413 158.66040039 242.67871094 C157.94235733 242.68680786 157.22431427 242.69490479 156.48451233 242.70324707 C153.33300471 242.64974789 151.27359564 242.3176792 148.56854248 240.66204834 C146.34230812 237.07170107 146.49090951 233.72224153 146.5637207 229.62890625 C146.5631366 228.77000793 146.56255249 227.91110962 146.56195068 227.02618408 C146.56473482 224.19054587 146.59584209 221.35596212 146.62719727 218.52050781 C146.63465849 216.55324884 146.64035198 214.58598244 146.64434814 212.61871338 C146.65961378 207.44327236 146.69890378 202.26828104 146.74316406 197.09301758 C146.79129449 190.88228651 146.80964634 184.671405 146.83297729 178.46054077 C146.87175405 169.02709211 146.9484016 159.59462998 147.01782227 150.16113281 C124.90782227 150.16113281 102.79782227 150.16113281 80.01782227 150.16113281 C80.06422852 156.55101562 80.11063477 162.94089844 80.15844727 169.52441406 C80.17887965 173.56674796 80.19813496 177.60901841 80.21313477 181.65136719 C80.23706857 188.07101626 80.26541553 194.49043766 80.31958008 200.90991211 C80.36296518 206.08406764 80.38694406 211.25797912 80.39733124 216.43230247 C80.4047358 218.40874259 80.4191948 220.38516899 80.44074249 222.36150551 C80.46967903 225.12484479 80.47378237 227.88716895 80.47192383 230.65063477 C80.48630493 231.47206467 80.50068604 232.29349457 80.51550293 233.13981628 C80.49210199 236.34433005 80.46998018 238.56432319 78.4967804 241.16877747 C74.97630909 242.57806247 71.63356183 242.57889803 67.90039062 242.54931641 C66.67779289 242.55720184 66.67779289 242.55720184 65.43049622 242.56524658 C62.73935726 242.57843859 60.04881087 242.56971227 57.35766602 242.55957031 C55.48726793 242.56159108 53.61687061 242.56450255 51.74647522 242.56826782 C47.82830294 242.57268992 43.91033592 242.56626304 39.9921875 242.55224609 C34.965855 242.53514245 29.94000264 242.54500355 24.91368771 242.56296349 C21.0524177 242.57379431 17.19126189 242.57035842 13.32998848 242.56258011 C11.47639471 242.56057677 9.62279063 242.56304205 7.76920891 242.57001877 C5.18114544 242.57762304 2.59386443 242.56604433 0.00585938 242.54931641 C-0.76253265 242.5553891 -1.53092468 242.56146179 -2.32260132 242.56771851 C-7.43027214 242.50644178 -7.43027214 242.50644178 -9.91893005 240.94937134 C-12.75008221 236.18775704 -12.12543081 230.29229525 -12.1158905 224.93774414 C-12.11815606 224.00594991 -12.12042162 223.07415567 -12.12275583 222.11412525 C-12.12908825 218.99045894 -12.12826695 215.86683609 -12.12744141 212.74316406 C-12.13043331 210.50426172 -12.13383592 208.26535989 -12.13761902 206.02645874 C-12.14645865 199.9439657 -12.14879708 193.86148673 -12.1494348 187.77898788 C-12.1503839 182.70416649 -12.15406209 177.62934837 -12.1576069 172.55452824 C-12.16528563 161.26891035 -12.16827553 149.98329911 -12.16760155 138.6976794 C-12.16756159 138.02078504 -12.16752164 137.34389068 -12.16748047 136.64648438 C-12.16743959 135.96876327 -12.16739871 135.29104216 -12.16735659 134.59278405 C-12.16694992 123.60337006 -12.17652548 112.61399031 -12.19061884 101.62458622 C-12.20497786 90.33896822 -12.21170611 79.05336641 -12.21102506 67.76773739 C-12.21076976 61.43235174 -12.21363882 55.09700485 -12.22420311 48.7616272 C-12.23386318 42.80597149 -12.23397765 36.85039177 -12.22668648 30.89473343 C-12.22563812 28.70697545 -12.22801831 26.51921279 -12.23404694 24.33146286 C-12.24173419 21.34905889 -12.23714372 18.36691953 -12.22941589 15.38452148 C-12.23455946 14.51536008 -12.23970302 13.64619867 -12.24500245 12.75069904 C-12.2205163 8.48534065 -12.11834689 4.98477544 -9.98217773 1.16113281 C-6.83328311 -0.4133145 -3.4578899 0.00493727 0 0 Z " fill="#DE742A" transform="translate(445.982177734375,416.8388671875)"/>
<path d="M0 0 C16 0 16 0 19.6953125 2.61328125 C20.96240234 4.36889648 20.96240234 4.36889648 22.125 6.3125 C22.58471191 6.97386963 23.04442383 7.63523926 23.51806641 8.31665039 C24.51370481 9.75142402 25.48825257 11.20101816 26.44335938 12.66308594 C28.68050548 16.02161206 31.10513054 19.23000025 33.52294922 22.4597168 C35.78271988 25.48297179 38.00495768 28.53256968 40.22412109 31.58569336 C42.79116753 35.07559194 45.40059949 38.53413265 48 42 C48.33 28.14 48.66 14.28 49 0 C54.61 0 60.22 0 66 0 C66 24.09 66 48.18 66 73 C51 73 51 73 47 69.765625 C45.9501904 68.29472326 44.95161295 66.78625679 44 65.25 C42.85716184 63.60519701 41.71391694 61.96067656 40.5703125 60.31640625 C39.99442383 59.45031738 39.41853516 58.58422852 38.82519531 57.69189453 C35.68444899 53.05975582 32.2596404 48.64262364 28.875 44.1875 C27.11697376 41.8329361 25.36223204 39.47597044 23.60888672 37.11791992 C21.78160855 34.71251202 19.88704779 32.35880973 18 30 C17.67 44.19 17.34 58.38 17 73 C11.39 73 5.78 73 0 73 C0 48.91 0 24.82 0 0 Z " fill="#DF7A34" transform="translate(515,678)"/>
<path d="M0 0 C46.98275862 0 46.98275862 0 58.04296875 11.0390625 C66.20006243 20.88323099 68.13977844 30.57628115 67.22314453 43.05859375 C66.28567985 51.21474161 61.73138837 58.29048716 56 64 C47.563452 70.39724997 38.56041996 73.50769945 28.02734375 73.29296875 C26.94990906 73.28843689 26.94990906 73.28843689 25.85070801 73.28381348 C23.2128221 73.26832687 20.57514386 73.226446 17.9375 73.1875 C9.0584375 73.0946875 9.0584375 73.0946875 0 73 C0 48.91 0 24.82 0 0 Z M16 15 C16 29.19 16 43.38 16 58 C31.56909608 58.78817424 31.56909608 58.78817424 43.6875 53.375 C48.2019656 48.73852181 50.21894213 43.38495726 50.4375 36.9375 C50.07371405 29.8161144 48.4837694 25.03645442 43.1875 20.125 C35.01372285 13.10958249 26.92354195 15 16 15 Z " fill="#DE762E" transform="translate(598,678)"/>
<path d="M0 0 C9.054375 -0.020625 18.10875 -0.04125 27.4375 -0.0625 C30.29978271 -0.071604 33.16206543 -0.08070801 36.11108398 -0.09008789 C38.36442009 -0.09300682 40.61775673 -0.09555543 42.87109375 -0.09765625 C44.05352661 -0.10277222 45.23595947 -0.10788818 46.45422363 -0.11315918 C47.57075317 -0.11328003 48.68728271 -0.11340088 49.83764648 -0.11352539 C50.81249496 -0.115746 51.78734344 -0.11796661 52.79173279 -0.12025452 C55 0 55 0 56 1 C56.0989294 3.16480797 56.129711 5.33293785 56.125 7.5 C56.12886719 9.27890625 56.12886719 9.27890625 56.1328125 11.09375 C56 14 56 14 55 15 C52.1883662 15.08861992 49.40141745 15.11522355 46.58984375 15.09765625 C45.74780899 15.0962413 44.90577423 15.09482635 44.03822327 15.09336853 C41.33794665 15.08775263 38.63775172 15.07519748 35.9375 15.0625 C34.11132932 15.05748705 32.28515734 15.05292379 30.45898438 15.04882812 C25.97262458 15.03777804 21.48632616 15.02050279 17 15 C17 19.62 17 24.24 17 29 C28.22 29 39.44 29 51 29 C51 33.95 51 38.9 51 44 C39.78 44 28.56 44 17 44 C17 48.62 17 53.24 17 58 C29.87 58 42.74 58 56 58 C56 62.95 56 67.9 56 73 C37.52 73 19.04 73 0 73 C0 48.91 0 24.82 0 0 Z " fill="#DF7A33" transform="translate(679,678)"/>
<path d="M0 0 C5.61 0 11.22 0 17 0 C17 9.57 17 19.14 17 29 C26.57 29 36.14 29 46 29 C46 19.43 46 9.86 46 0 C51.61 0 57.22 0 63 0 C63 24.09 63 48.18 63 73 C57.39 73 51.78 73 46 73 C46 63.43 46 53.86 46 44 C36.43 44 26.86 44 17 44 C17 53.57 17 63.14 17 73 C11.39 73 5.78 73 0 73 C0 48.91 0 24.82 0 0 Z " fill="#DF7933" transform="translate(354,678)"/>
<path d="M0 0 C1.39456452 0.00667256 2.78911118 0.01863093 4.18359375 0.03515625 C5.2499707 0.04192383 5.2499707 0.04192383 6.33789062 0.04882812 C8.09899388 0.06064761 9.86005411 0.07858362 11.62109375 0.09765625 C28.90937675 40.31050024 28.90937675 40.31050024 37.24609375 60.16015625 C37.52512543 60.82290558 37.8041571 61.48565491 38.09164429 62.16848755 C38.86647453 64.00992523 39.63840397 65.85258271 40.41015625 67.6953125 C40.84021973 68.72148682 41.2702832 69.74766113 41.71337891 70.80493164 C42.62109375 73.09765625 42.62109375 73.09765625 42.62109375 74.09765625 C36.68109375 74.09765625 30.74109375 74.09765625 24.62109375 74.09765625 C22.64109375 69.14765625 20.66109375 64.19765625 18.62109375 59.09765625 C8.72109375 59.09765625 -1.17890625 59.09765625 -11.37890625 59.09765625 C-13.31112997 63.65891134 -13.31112997 63.65891134 -15.23803711 68.22241211 C-17.26779514 72.98654514 -17.26779514 72.98654514 -18.37890625 74.09765625 C-21.24158192 74.17090793 -24.07962525 74.1900383 -26.94140625 74.16015625 C-27.74771484 74.15564453 -28.55402344 74.15113281 -29.38476562 74.14648438 C-31.38284381 74.13466143 -33.38088408 74.11672539 -35.37890625 74.09765625 C-29.55303853 59.13696876 -23.24738797 44.40211207 -16.82011414 29.69306946 C-14.98788237 25.49917103 -13.16799238 21.30012346 -11.35546875 17.09765625 C-10.89317871 16.02749268 -10.43088867 14.9573291 -9.95458984 13.85473633 C-9.08879998 11.8500262 -8.22447658 9.84468193 -7.36181641 7.83862305 C-6.9807373 6.95859619 -6.5996582 6.07856934 -6.20703125 5.171875 C-5.87606445 4.40447998 -5.54509766 3.63708496 -5.20410156 2.84643555 C-3.76379425 -0.20590803 -3.71619764 0.10740456 0 0 Z M2.62109375 22.09765625 C1.2819679 25.22020568 -0.04921283 28.34607983 -1.37890625 31.47265625 C-1.95125 32.80683594 -1.95125 32.80683594 -2.53515625 34.16796875 C-2.89609375 35.01875 -3.25703125 35.86953125 -3.62890625 36.74609375 C-4.13164062 37.92437744 -4.13164062 37.92437744 -4.64453125 39.12646484 C-5.49527726 41.0594256 -5.49527726 41.0594256 -5.37890625 43.09765625 C0.56109375 43.09765625 6.50109375 43.09765625 12.62109375 43.09765625 C11.19796875 39.29234375 11.19796875 39.29234375 9.74609375 35.41015625 C9.45105957 34.62036377 9.15602539 33.83057129 8.85205078 33.0168457 C7.48245764 29.35981932 6.09120784 25.71584966 4.62109375 22.09765625 C3.96109375 22.09765625 3.30109375 22.09765625 2.62109375 22.09765625 Z " fill="#DF7932" transform="translate(462.37890625,676.90234375)"/>
<path d="M0 0 C5.28 0 10.56 0 16 0 C16 19.14 16 38.28 16 58 C28.21 58 40.42 58 53 58 C53 62.95 53 67.9 53 73 C35.51 73 18.02 73 0 73 C0 48.91 0 24.82 0 0 Z " fill="#DE752C" transform="translate(749,678)"/>
<path d="M0 0 C1.98 0 3.96 0 6 0 C7.96938498 2.36085294 9.38172633 4.36899401 10.875 7 C11.2771875 7.66773438 11.679375 8.33546875 12.09375 9.0234375 C13.08210073 10.67068871 14.04371066 12.33393145 15 14 C15.33 9.38 15.66 4.76 16 0 C17.65 0 19.3 0 21 0 C21 8.25 21 16.5 21 25 C19.02 25 17.04 25 15 25 C13.03061502 22.63914706 11.61827367 20.63100599 10.125 18 C9.7228125 17.33226562 9.320625 16.66453125 8.90625 15.9765625 C7.91789927 14.32931129 6.95628934 12.66606855 6 11 C5.67 15.62 5.34 20.24 5 25 C3.35 25 1.7 25 0 25 C0 16.75 0 8.5 0 0 Z " fill="#E1813F" transform="translate(827,764)"/>
<path d="M0 0 C1.98 0 3.96 0 6 0 C7.96938498 2.36085294 9.38172633 4.36899401 10.875 7 C11.2771875 7.66773438 11.679375 8.33546875 12.09375 9.0234375 C13.08210073 10.67068871 14.04371066 12.33393145 15 14 C15.33 9.38 15.66 4.76 16 0 C17.65 0 19.3 0 21 0 C21 8.25 21 16.5 21 25 C19.02 25 17.04 25 15 25 C13.03061502 22.63914706 11.61827367 20.63100599 10.125 18 C9.7228125 17.33226562 9.320625 16.66453125 8.90625 15.9765625 C7.91789927 14.32931129 6.95628934 12.66606855 6 11 C5.67 15.62 5.34 20.24 5 25 C3.35 25 1.7 25 0 25 C0 16.75 0 8.5 0 0 Z " fill="#E1813F" transform="translate(706,764)"/>
<path d="M0 0 C12.27980769 -0.49615385 12.27980769 -0.49615385 15.92578125 2.015625 C16.61027344 2.67046875 17.29476562 3.3253125 18 4 C17.835 4.94875 17.67 5.8975 17.5 6.875 C16.9473365 9.80168901 16.9473365 9.80168901 17 12 C17.515625 12.5775 18.03125 13.155 18.5625 13.75 C20 16 20 16 19.875 19.0625 C18.64007026 23.20833555 18.64007026 23.20833555 16 25 C13.17074044 25.21853189 10.62668821 25.28262512 7.8125 25.1875 C5.234375 25.125625 2.65625 25.06375 0 25 C0 16.75 0 8.5 0 0 Z M5 5 C5 6.65 5 8.3 5 10 C7.31 10 9.62 10 12 10 C12 8.35 12 6.7 12 5 C9.69 5 7.38 5 5 5 Z M5 14 C5 16.31 5 18.62 5 21 C9.65052872 21.26932521 9.65052872 21.26932521 14 20 C13.62095792 16.70924004 13.62095792 16.70924004 12 14 C9.66702567 13.95907063 7.33294775 13.95758277 5 14 Z " fill="#E18240" transform="translate(581,764)"/>
<path d="M0 0 C2.9375 1.3125 2.9375 1.3125 5 3 C5.33 3.99 5.66 4.98 6 6 C4.35 6.66 2.7 7.32 1 8 C0.34 7.34 -0.32 6.68 -1 6 C-4 5.58333333 -4 5.58333333 -7 6 C-9.54014875 9.81022313 -9.58606955 12.53470816 -9 17 C-8.03882095 19.12870693 -8.03882095 19.12870693 -6 20 C-2.87450983 20.25048636 -2.87450983 20.25048636 0 20 C0 19.01 0 18.02 0 17 C-1.65 16.67 -3.3 16.34 -5 16 C-5 14.35 -5 12.7 -5 11 C-1.37 11 2.26 11 6 11 C6 15.62 6 20.24 6 25 C3.66666667 25 1.33333333 25 -1 25 C-2.0725 25.2475 -3.145 25.495 -4.25 25.75 C-8 26 -8 26 -11.3125 24.4375 C-14.49159524 21.55413455 -15.2962205 20.22267701 -16 16 C-16.13576319 10.71372061 -15.91791229 7.15327442 -12.5625 2.9375 C-8.43201983 -0.18554598 -5.10070533 -0.55697357 0 0 Z " fill="#E38849" transform="translate(868,764)"/>
<path d="M0 0 C1.0209375 0.86625 1.0209375 0.86625 2.0625 1.75 C2.0625 3.07 2.0625 4.39 2.0625 5.75 C0.7425 6.08 -0.5775 6.41 -1.9375 6.75 C-1.9375 6.09 -1.9375 5.43 -1.9375 4.75 C-4.5775 4.75 -7.2175 4.75 -9.9375 4.75 C-11.8453584 7.9249094 -12.0984041 9.85585211 -11.5625 13.5 C-11.45164062 14.29921875 -11.34078125 15.0984375 -11.2265625 15.921875 C-11.13117187 16.52515625 -11.03578125 17.1284375 -10.9375 17.75 C-6.95995872 18.48334429 -6.95995872 18.48334429 -2.9375 18.75 C-2.6075 17.43 -2.2775 16.11 -1.9375 14.75 C-3.9175 14.75 -5.8975 14.75 -7.9375 14.75 C-7.9375 13.1 -7.9375 11.45 -7.9375 9.75 C-4.3075 9.75 -0.6775 9.75 3.0625 9.75 C3.0625 14.37 3.0625 18.99 3.0625 23.75 C0.72916667 23.75 -1.60416667 23.75 -3.9375 23.75 C-4.845 23.976875 -5.7525 24.20375 -6.6875 24.4375 C-10.75259492 24.82837451 -12.5573745 23.97780999 -15.9375 21.75 C-19.07315978 16.96624601 -18.66940127 11.23194055 -17.9375 5.75 C-16.57446149 2.95577105 -15.35662091 1.83156916 -12.9375 -0.25 C-8.32658711 -1.78697096 -4.50672407 -1.91775492 0 0 Z " fill="#E28545" transform="translate(526.9375,765.25)"/>
<path d="M0 0 C2.92207125 2.58812025 4.36160293 5.1774949 5.1875 8.9375 C5.46252316 13.58862691 4.84955253 17.58618337 2.125 21.4375 C-1.80983608 24.78629666 -3.67820274 24.9375 -8.8125 24.9375 C-12.12187187 24.18537003 -13.56271129 23.16647299 -16.0625 20.875 C-18.70821164 16.43398404 -19.47825179 12.00113658 -18.37109375 6.90625 C-17.28654102 3.98105636 -15.95157447 2.06068024 -13.625 0 C-8.85941979 -1.8003303 -4.76558021 -1.8003303 0 0 Z M-11.6875 5.4375 C-13.2877025 8.99350556 -13.51023981 12.10385094 -12.8125 15.9375 C-11.37235074 18.62888543 -11.37235074 18.62888543 -8.8125 19.9375 C-5.67887282 20.02642339 -5.67887282 20.02642339 -2.8125 18.9375 C-0.34167862 15.23126793 -0.26785962 12.23410742 -0.8125 7.9375 C-1.74493871 5.35798316 -1.74493871 5.35798316 -3.8125 3.9375 C-7.21476157 3.37045641 -8.95005473 3.24754378 -11.6875 5.4375 Z " fill="#E28545" transform="translate(696.8125,765.0625)"/>
<path d="M0 0 C2.92207125 2.58812025 4.36160293 5.1774949 5.1875 8.9375 C5.46252316 13.58862691 4.84955253 17.58618337 2.125 21.4375 C-1.80983608 24.78629666 -3.67820274 24.9375 -8.8125 24.9375 C-12.12187187 24.18537003 -13.56271129 23.16647299 -16.0625 20.875 C-18.70821164 16.43398404 -19.47825179 12.00113658 -18.37109375 6.90625 C-17.28654102 3.98105636 -15.95157447 2.06068024 -13.625 0 C-8.85941979 -1.8003303 -4.76558021 -1.8003303 0 0 Z M-11.6875 5.4375 C-13.2877025 8.99350556 -13.51023981 12.10385094 -12.8125 15.9375 C-11.37235074 18.62888543 -11.37235074 18.62888543 -8.8125 19.9375 C-5.67887282 20.02642339 -5.67887282 20.02642339 -2.8125 18.9375 C-0.34167862 15.23126793 -0.26785962 12.23410742 -0.8125 7.9375 C-1.74493871 5.35798316 -1.74493871 5.35798316 -3.8125 3.9375 C-7.21476157 3.37045641 -8.95005473 3.24754378 -11.6875 5.4375 Z " fill="#E28545" transform="translate(365.8125,765.0625)"/>
<path d="M0 0 C3.01784991 1.75607646 5.41468217 3.82936435 7 7 C7.48468147 12.37916974 7.91843858 17.29918781 5.3125 22.125 C1.56559322 25.16303252 -1.19399745 26.2356167 -6 25.9375 C-10.26676975 25.26804463 -12.32277369 23.40737894 -15 20 C-16.68600001 14.94199996 -16.58520639 10.63241784 -14.8125 5.6875 C-11.18961087 0.31562991 -6.37374928 -1.3693602 0 0 Z M-8.6640625 6.20703125 C-10.41999065 8.56367167 -10.43315849 10.08250352 -10.4375 13 C-10.45683594 13.86625 -10.47617187 14.7325 -10.49609375 15.625 C-10.19924267 18.13618216 -10.19924267 18.13618216 -8.16796875 19.81640625 C-5.95435292 21.25785692 -5.95435292 21.25785692 -2.875 20.9375 C0.05625158 20.3073052 0.05625158 20.3073052 1.1953125 18.23046875 C2.11874615 15.67085413 2.09137608 14.06109074 1.75 11.375 C1.66234375 10.59898437 1.5746875 9.82296875 1.484375 9.0234375 C1.13545643 6.78674973 1.13545643 6.78674973 -1 5 C-5.08286927 4.51731985 -5.08286927 4.51731985 -8.6640625 6.20703125 Z " fill="#E28443" transform="translate(569,764)"/>
<path d="M0 0 C13.82142857 0 13.82142857 0 18 3 C21.64050184 6.95478977 21.44079649 10.19443786 21.2890625 15.3671875 C20.93098563 18.62859037 20.20684797 20.55670403 18 23 C12.80786227 26.48999824 5.94038214 25.11000708 0 25 C0 16.75 0 8.5 0 0 Z M5 5 C5 10.28 5 15.56 5 21 C10.45021111 20.83184113 10.45021111 20.83184113 15 18.3125 C16.61554364 14.57655533 16.5602715 11.48071753 15.125 7.6875 C14.09561011 5.8410805 14.09561011 5.8410805 12 5 C9.69 5 7.38 5 5 5 Z " fill="#E17F3C" transform="translate(301,764)"/>
<path d="M0 0 C1.4540625 0.0309375 1.4540625 0.0309375 2.9375 0.0625 C6.83143294 8.13880536 9.37280621 16.4960023 11.9375 25.0625 C9.9575 25.0625 7.9775 25.0625 5.9375 25.0625 C5.4425 22.5875 5.4425 22.5875 4.9375 20.0625 C1.6375 20.0625 -1.6625 20.0625 -5.0625 20.0625 C-5.3925 21.7125 -5.7225 23.3625 -6.0625 25.0625 C-8.0425 25.0625 -10.0225 25.0625 -12.0625 25.0625 C-10.75483076 21.08172912 -9.44056177 17.10316885 -8.125 13.125 C-7.56522461 11.42053711 -7.56522461 11.42053711 -6.99414062 9.68164062 C-6.63642578 8.60205078 -6.27871094 7.52246094 -5.91015625 6.41015625 C-5.58023682 5.40992432 -5.25031738 4.40969238 -4.91040039 3.37915039 C-3.70126851 0.07553609 -3.70126851 0.07553609 0 0 Z M-1.0625 8.0625 C-1.7225 10.3725 -2.3825 12.6825 -3.0625 15.0625 C-1.0825 15.0625 0.8975 15.0625 2.9375 15.0625 C2.2775 12.7525 1.6175 10.4425 0.9375 8.0625 C0.2775 8.0625 -0.3825 8.0625 -1.0625 8.0625 Z " fill="#E28545" transform="translate(408.0625,763.9375)"/>
<path d="M0 0 C1.4540625 0.0309375 1.4540625 0.0309375 2.9375 0.0625 C6.83143294 8.13880536 9.37280621 16.4960023 11.9375 25.0625 C9.9575 25.0625 7.9775 25.0625 5.9375 25.0625 C5.4425 22.5875 5.4425 22.5875 4.9375 20.0625 C1.6375 20.0625 -1.6625 20.0625 -5.0625 20.0625 C-5.3925 21.7125 -5.7225 23.3625 -6.0625 25.0625 C-8.0425 25.0625 -10.0225 25.0625 -12.0625 25.0625 C-10.75483076 21.08172912 -9.44056177 17.10316885 -8.125 13.125 C-7.56522461 11.42053711 -7.56522461 11.42053711 -6.99414062 9.68164062 C-6.63642578 8.60205078 -6.27871094 7.52246094 -5.91015625 6.41015625 C-5.58023682 5.40992432 -5.25031738 4.40969238 -4.91040039 3.37915039 C-3.70126851 0.07553609 -3.70126851 0.07553609 0 0 Z M-1.0625 8.0625 C-1.7225 10.3725 -2.3825 12.6825 -3.0625 15.0625 C-1.0825 15.0625 0.8975 15.0625 2.9375 15.0625 C2.2775 12.7525 1.6175 10.4425 0.9375 8.0625 C0.2775 8.0625 -0.3825 8.0625 -1.0625 8.0625 Z " fill="#E28545" transform="translate(286.0625,763.9375)"/>
<path d="M0 0 C2.31 0 4.62 0 7 0 C8.34117853 3.60129621 9.6715839 7.20647859 11 10.8125 C11.3815625 11.83666016 11.763125 12.86082031 12.15625 13.91601562 C12.5171875 14.89892578 12.878125 15.88183594 13.25 16.89453125 C13.75273438 18.25348511 13.75273438 18.25348511 14.265625 19.63989258 C15 22 15 22 15 25 C13.35 25 11.7 25 10 25 C9.76539063 24.35546875 9.53078125 23.7109375 9.2890625 23.046875 C8.18838927 20.7922092 8.18838927 20.7922092 5.8359375 20.390625 C4.61777344 20.32101562 4.61777344 20.32101562 3.375 20.25 C2.55773437 20.19328125 1.74046875 20.1365625 0.8984375 20.078125 C-0.04128906 20.03945313 -0.04128906 20.03945313 -1 20 C-1.33 21.65 -1.66 23.3 -2 25 C-3.98 25 -5.96 25 -8 25 C-5.85406445 16.45115106 -3.0505873 8.25949525 0 0 Z M3 6 C2.34 8.97 1.68 11.94 1 15 C2.65 15 4.3 15 6 15 C5.34 12.03 4.68 9.06 4 6 C3.67 6 3.34 6 3 6 Z " fill="#E28544" transform="translate(610,764)"/>
<path d="M0 0 C2.9375 1.5 2.9375 1.5 5 3 C4.34 4.32 3.68 5.64 3 7 C0.03 6.67 -2.94 6.34 -6 6 C-6.33 6.99 -6.66 7.98 -7 9 C-6.39671875 9.09796875 -5.7934375 9.1959375 -5.171875 9.296875 C-1.50221844 9.9834559 1.42840238 10.64615385 4.625 12.625 C6.40791202 15.7045753 6.3815502 17.70100588 5.73046875 21.15625 C5 23 5 23 2.4375 25.0625 C-2.01580105 26.27703665 -4.48868608 26.01868379 -9 25 C-11.5 23.4375 -11.5 23.4375 -13 22 C-12.34 20.35 -11.68 18.7 -11 17 C-10.278125 17.495 -9.55625 17.99 -8.8125 18.5 C-5.85151341 20.07919285 -4.28746971 20.28178312 -1 20 C-0.67 18.68 -0.34 17.36 0 16 C-0.60328125 15.91363281 -1.2065625 15.82726562 -1.828125 15.73828125 C-5.90242316 15.02199335 -8.42995659 14.48860864 -11.625 11.75 C-13 9 -13 9 -13.0625 5.875 C-12 3 -12 3 -9.875 1.125 C-6.30377926 -0.2724342 -3.81032164 -0.40824875 0 0 Z " fill="#E28748" transform="translate(744,764)"/>
<path d="M0 0 C2.9375 1.5 2.9375 1.5 5 3 C4.34 4.32 3.68 5.64 3 7 C-0.3 6.34 -3.6 5.68 -7 5 C-7 6.32 -7 7.64 -7 9 C-6.39671875 9.08636719 -5.7934375 9.17273438 -5.171875 9.26171875 C-1.09757684 9.97800665 1.42995659 10.51139136 4.625 13.25 C6.36382113 16.72764225 6.19501672 18.33528206 5 22 C3.9375 23.8125 3.9375 23.8125 2 25 C-2.62941817 26.06248942 -4.93861756 26.36665939 -9.4375 24.8125 C-12 23 -12 23 -12.875 20.8125 C-12.91625 20.214375 -12.9575 19.61625 -13 19 C-12.01 18.34 -11.02 17.68 -10 17 C-9.46375 17.495 -8.9275 17.99 -8.375 18.5 C-5.40641555 20.37489544 -3.44687573 20.23501425 0 20 C0 18.68 0 17.36 0 16 C-0.60328125 15.90203125 -1.2065625 15.8040625 -1.828125 15.703125 C-5.53377526 15.00980979 -8.42829778 14.36752286 -11.625 12.3125 C-13 10 -13 10 -13.0625 6.4375 C-12 3 -12 3 -9.875 1.0625 C-6.31144916 -0.25446444 -3.77713372 -0.4046929 0 0 Z " fill="#E28647" transform="translate(473,764)"/>
<path d="M0 0 C1.65 0 3.3 0 5 0 C5.33 6.6 5.66 13.2 6 20 C8.64 20 11.28 20 14 20 C14.33 13.4 14.66 6.8 15 0 C16.65 0 18.3 0 20 0 C20.11667875 3.22886009 20.18740546 6.45717445 20.25 9.6875 C20.30027344 11.05551758 20.30027344 11.05551758 20.3515625 12.45117188 C20.41361002 16.716939 20.3910544 19.30664736 18.26171875 23.08203125 C14.73237519 26.07496335 11.52527587 26.29899144 7 26 C3.97663142 24.64913319 2.32414606 23.32414606 0 21 C-0.22705078 18.84521484 -0.22705078 18.84521484 -0.1953125 16.2109375 C-0.18886719 15.26992188 -0.18242188 14.32890625 -0.17578125 13.359375 C-0.15902344 12.37453125 -0.14226563 11.3896875 -0.125 10.375 C-0.11597656 9.38242187 -0.10695313 8.38984375 -0.09765625 7.3671875 C-0.07404116 4.91121866 -0.04110799 2.45572832 0 0 Z " fill="#E1823F" transform="translate(754,764)"/>
<path d="M0 0 C5.28 0 10.56 0 16 0 C16.33 1.65 16.66 3.3 17 5 C13.04 5 9.08 5 5 5 C5 6.65 5 8.3 5 10 C8.3 10 11.6 10 15 10 C15 11.65 15 13.3 15 15 C11.7 15 8.4 15 5 15 C5 16.98 5 18.96 5 21 C8.96 21 12.92 21 17 21 C17 22.32 17 23.64 17 25 C11.39 25 5.78 25 0 25 C0 16.75 0 8.5 0 0 Z " fill="#E18341" transform="translate(441,764)"/>
<path d="M0 0 C2.875 1.25 2.875 1.25 5 3 C5.8125 5.1875 5.8125 5.1875 6 7 C4.35 7.33 2.7 7.66 1 8 C0.67 7.34 0.34 6.68 0 6 C-2.64 6 -5.28 6 -8 6 C-8.05389087 7.95803507 -8.09274217 9.91648909 -8.125 11.875 C-8.15980469 13.51082031 -8.15980469 13.51082031 -8.1953125 15.1796875 C-8.30060534 18.1371051 -8.30060534 18.1371051 -6 20 C-3.58517587 20.50059916 -3.58517587 20.50059916 -1 20 C1.31377147 18.10415891 1.31377147 18.10415891 3 16 C4.32 16.99 5.64 17.98 7 19 C5.57891465 21.84217071 4.53081292 23.66634616 1.8125 25.375 C-2.01300988 26.22511331 -5.24920701 26.19722281 -9 25 C-11.64233769 22.80742191 -13.46669809 21.06660382 -15 18 C-15.41849303 13.4529123 -15.53618367 9.32634907 -13.8125 5.0625 C-9.71546129 0.4003525 -6.16108321 -0.66011606 0 0 Z " fill="#E3884A" transform="translate(670,764)"/>
<path d="M0 0 C2.875 1.25 2.875 1.25 5 3 C5.8125 5.1875 5.8125 5.1875 6 7 C4.35 7.33 2.7 7.66 1 8 C0.67 7.34 0.34 6.68 0 6 C-2.64 6 -5.28 6 -8 6 C-8.05389087 7.95803507 -8.09274217 9.91648909 -8.125 11.875 C-8.15980469 13.51082031 -8.15980469 13.51082031 -8.1953125 15.1796875 C-8.30060534 18.1371051 -8.30060534 18.1371051 -6 20 C-3.58517587 20.50059916 -3.58517587 20.50059916 -1 20 C1.31377147 18.10415891 1.31377147 18.10415891 3 16 C4.32 16.99 5.64 17.98 7 19 C5.57891465 21.84217071 4.53081292 23.66634616 1.8125 25.375 C-2.01300988 26.22511331 -5.24920701 26.19722281 -9 25 C-11.64233769 22.80742191 -13.46669809 21.06660382 -15 18 C-15.41849303 13.4529123 -15.53618367 9.32634907 -13.8125 5.0625 C-9.71546129 0.4003525 -6.16108321 -0.66011606 0 0 Z " fill="#E3884A" transform="translate(389,764)"/>
<path d="M0 0 C1.65 0 3.3 0 5 0 C5.62726108 1.54074808 6.2516901 3.08264923 6.875 4.625 C7.22304688 5.48351562 7.57109375 6.34203125 7.9296875 7.2265625 C9.04521675 10.11716749 10.02020396 13.06061189 11 16 C12.98 10.72 14.96 5.44 17 0 C18.65 0 20.3 0 22 0 C21.40221436 5.63412963 19.94103952 10.56460886 18 15.875 C17.72671875 16.64585937 17.4534375 17.41671875 17.171875 18.2109375 C15.14466003 23.85533997 15.14466003 23.85533997 14 25 C12.00041636 25.04080783 9.99954746 25.04254356 8 25 C0 5.76595745 0 5.76595745 0 0 Z " fill="#E28646" transform="translate(324,764)"/>
<path d="M0 0 C6.27 0 12.54 0 19 0 C19.33 1.65 19.66 3.3 20 5 C17.69 5 15.38 5 13 5 C13 11.6 13 18.2 13 25 C11.02 25 9.04 25 7 25 C7 18.4 7 11.8 7 5 C4.69 5 2.38 5 0 5 C0 3.35 0 1.7 0 0 Z " fill="#E48F54" transform="translate(793,764)"/>
<path d="M0 0 C6.27 0 12.54 0 19 0 C19.33 1.65 19.66 3.3 20 5 C17.69 5 15.38 5 13 5 C13 11.6 13 18.2 13 25 C11.02 25 9.04 25 7 25 C7 18.4 7 11.8 7 5 C4.69 5 2.38 5 0 5 C0 3.35 0 1.7 0 0 Z " fill="#E48F54" transform="translate(418,764)"/>
<path d="M0 0 C1.65 0 3.3 0 5 0 C5 6.93 5 13.86 5 21 C8.63 21 12.26 21 16 21 C16 22.32 16 23.64 16 25 C10.39 25 4.78 25 -1 25 C-1.02682614 21.02078906 -1.04675393 17.04175659 -1.0625 13.0625 C-1.07087891 11.92619141 -1.07925781 10.78988281 -1.08789062 9.61914062 C-1.09111328 8.53955078 -1.09433594 7.45996094 -1.09765625 6.34765625 C-1.10289307 5.34742432 -1.10812988 4.34719238 -1.11352539 3.31665039 C-1 1 -1 1 0 0 Z " fill="#E3894B" transform="translate(629,764)"/>
<path d="M0 0 C1.65 0 3.3 0 5 0 C5 6.93 5 13.86 5 21 C8.63 21 12.26 21 16 21 C16 22.32 16 23.64 16 25 C10.39 25 4.78 25 -1 25 C-1.02682614 21.02078906 -1.04675393 17.04175659 -1.0625 13.0625 C-1.07087891 11.92619141 -1.07925781 10.78988281 -1.08789062 9.61914062 C-1.09111328 8.53955078 -1.09433594 7.45996094 -1.09765625 6.34765625 C-1.10289307 5.34742432 -1.10812988 4.34719238 -1.11352539 3.31665039 C-1 1 -1 1 0 0 Z " fill="#E3894B" transform="translate(536,764)"/>
<path d="M0 0 C1.65 0 3.3 0 5 0 C5 6.93 5 13.86 5 21 C8.63 21 12.26 21 16 21 C16 22.32 16 23.64 16 25 C10.72 25 5.44 25 0 25 C0 16.75 0 8.5 0 0 Z " fill="#DF7B35" transform="translate(780,764)"/>
<path d="M0 0 C1.65 0 3.3 0 5 0 C5 9.9 5 19.8 5 30 C3.35 30 1.7 30 0 30 C0 20.1 0 10.2 0 0 Z " fill="#E1813F" transform="translate(491,763)"/>
<path d="M0 0 C1.65 0 3.3 0 5 0 C5 8.25 5 16.5 5 25 C3.35 25 1.7 25 0 25 C0 16.75 0 8.5 0 0 Z " fill="#E07B35" transform="translate(816,764)"/>
</svg>
