<?xml version="1.0" encoding="UTF-8"?>
<svg version="1.1" xmlns="http://www.w3.org/2000/svg" width="1080" height="1080">
<path d="M0 0 C0.82452667 -0.0049649 1.64905334 -0.00992981 2.49856567 -0.01504517 C5.23285753 -0.02968003 7.96709139 -0.03647044 10.70141602 -0.04199219 C12.5970917 -0.04774187 14.49276736 -0.05349962 16.38844299 -0.05926514 C20.36557283 -0.06977843 24.34268243 -0.07561917 28.31982422 -0.07910156 C33.42239307 -0.08459169 38.52469578 -0.10862939 43.62718105 -0.13707352 C47.54332773 -0.15567158 51.45940988 -0.16090395 55.375597 -0.16243744 C57.25711589 -0.16547013 59.13863347 -0.17351932 61.02010918 -0.18662262 C63.64903061 -0.20362664 66.2772963 -0.20181704 68.90625 -0.1953125 C69.68713486 -0.20452728 70.46801971 -0.21374207 71.27256775 -0.22323608 C74.10454193 -0.201222 76.44744717 -0.1266407 79.00350952 1.16297913 C80.67640204 4.45850742 80.40690524 7.8779486 80.35839844 11.48803711 C80.35905556 12.76153519 80.35905556 12.76153519 80.35972595 14.0607605 C80.35763461 16.86919082 80.3342874 19.67702542 80.31079102 22.48535156 C80.30519629 24.43162205 80.30092561 26.37789676 80.29792786 28.32417297 C80.2864694 33.44857431 80.25699355 38.57272086 80.22381592 43.69702148 C80.18774334 49.84436019 80.17395865 55.99178406 80.15645599 62.1391983 C80.12735686 71.48002039 80.06987654 80.82028333 80.01782227 90.16113281 C102.12782227 90.16113281 124.23782227 90.16113281 147.01782227 90.16113281 C146.98301758 83.99941406 146.94821289 77.83769531 146.91235352 71.48925781 C146.89702687 67.58820668 146.88258515 63.68719262 146.87133789 59.78613281 C146.8533969 53.59269512 146.83216118 47.39939034 146.79150391 41.20605469 C146.75893377 36.21345309 146.74097414 31.220994 146.73319054 26.22829437 C146.72764282 24.32247422 146.71680961 22.41666197 146.7006321 20.5109024 C146.67888901 17.84368466 146.67585403 15.17705758 146.67724609 12.50976562 C146.66646027 11.71998322 146.65567444 10.93020081 146.64456177 10.1164856 C146.6619461 7.04296167 146.86762581 4.52140519 148.05607605 1.67070007 C151.06256044 -0.6427951 154.10845334 -0.38798207 157.74633789 -0.34057617 C158.53199631 -0.34597916 159.31765472 -0.35138214 160.12712097 -0.35694885 C162.72648689 -0.36946553 165.32475152 -0.35292637 167.92407227 -0.33496094 C169.72863829 -0.33511586 171.53320465 -0.33660368 173.33776855 -0.33937073 C177.12075499 -0.34075603 180.9033629 -0.32817483 184.6862793 -0.30541992 C189.53891337 -0.27703481 194.39091831 -0.27977081 199.24359894 -0.29251003 C202.97020861 -0.29946022 206.69667249 -0.29168551 210.42326355 -0.27925301 C212.21265606 -0.27473207 214.00206418 -0.2744073 215.79145813 -0.27831841 C218.29106811 -0.28122419 220.78980669 -0.26475472 223.28930664 -0.24291992 C224.40217293 -0.24967239 224.40217293 -0.24967239 225.53752136 -0.25656128 C230.56007713 -0.1835479 230.56007713 -0.1835479 232.70770514 1.43360955 C234.30148834 3.53517551 234.39355286 4.57363622 234.39534569 7.18918514 C234.40316893 8.01128945 234.41099217 8.83339376 234.41905248 9.68041033 C234.40901423 11.03476909 234.40901423 11.03476909 234.39877319 12.41648865 C234.40345317 13.37586446 234.40813314 14.33524028 234.41295493 15.32368809 C234.42496355 18.55276352 234.41542468 21.78141913 234.40600586 25.01049805 C234.41006898 27.31969451 234.41540938 29.62888902 234.42193604 31.93807983 C234.43564708 38.22107646 234.43029513 44.50392578 234.42079878 50.78692508 C234.41322088 57.35275094 234.42024266 63.91856392 234.42495728 70.48439026 C234.43137157 82.22025661 234.42142766 93.95606083 234.40617926 105.69191641 C234.3927787 116.33509022 234.39510088 126.97816586 234.40893555 137.62133789 C234.42498683 149.97559159 234.43096765 162.32978267 234.42209876 174.68404537 C234.41741523 181.2256764 234.41681599 187.76723979 234.42670822 194.3088665 C234.43535824 200.45906065 234.42939182 206.60906899 234.41202545 212.75924301 C234.40804993 215.01998015 234.40921276 217.28073286 234.41581345 219.54146385 C234.42397694 222.62078664 234.41377 225.69950909 234.39877319 228.77879333 C234.40546536 229.67946846 234.41215752 230.58014358 234.41905248 231.50811189 C234.38521308 235.07540083 234.35236107 237.51029616 232.70469761 240.71578312 C229.95209987 243.07426581 226.84874343 242.71694506 223.39697266 242.67871094 C222.6226741 242.68572021 221.84837555 242.69272949 221.0506134 242.69995117 C218.48853797 242.71757039 215.92756538 242.70589403 213.36547852 242.69238281 C211.5857268 242.69507689 209.80597653 242.6989586 208.02622986 242.70397949 C204.29452514 242.70988007 200.56320321 242.70129478 196.83154297 242.68261719 C192.04839329 242.65984367 187.26614214 242.67293674 182.48302555 242.69690704 C178.80697363 242.71136415 175.13113456 242.70675918 171.45507622 242.69639587 C169.69162324 242.69372748 167.92815094 242.69700232 166.16472054 242.70631409 C163.69864906 242.71647666 161.23402975 242.70098347 158.76806641 242.67871094 C158.03910156 242.68680786 157.31013672 242.69490479 156.55908203 242.70324707 C153.38337484 242.65012534 151.29031325 242.32745428 148.56181335 240.66204834 C146.34452912 237.07055056 146.49096009 233.71939791 146.5637207 229.62890625 C146.5631366 228.77000793 146.56255249 227.91110962 146.56195068 227.02618408 C146.56473482 224.19054587 146.59584209 221.35596212 146.62719727 218.52050781 C146.63465849 216.55324884 146.64035198 214.58598244 146.64434814 212.61871338 C146.65961378 207.44327236 146.69890378 202.26828104 146.74316406 197.09301758 C146.79129449 190.88228651 146.80964634 184.671405 146.83297729 178.46054077 C146.87175405 169.02709211 146.9484016 159.59462998 147.01782227 150.16113281 C124.90782227 150.16113281 102.79782227 150.16113281 80.01782227 150.16113281 C80.06422852 156.55101562 80.11063477 162.94089844 80.15844727 169.52441406 C80.17887965 173.56674796 80.19813496 177.60901841 80.21313477 181.65136719 C80.23706857 188.07101626 80.26541553 194.49043766 80.31958008 200.90991211 C80.36296518 206.08406764 80.38694406 211.25797912 80.39733124 216.43230247 C80.4047358 218.40874259 80.4191948 220.38516899 80.44074249 222.36150551 C80.46967903 225.12484479 80.47378237 227.88716895 80.47192383 230.65063477 C80.48630493 231.47206467 80.50068604 232.29349457 80.51550293 233.13981628 C80.49210199 236.34433005 80.46998018 238.56432319 78.4967804 241.16877747 C74.97630909 242.57806247 71.63356183 242.57889803 67.90039062 242.54931641 C66.67779289 242.55720184 66.67779289 242.55720184 65.43049622 242.56524658 C62.73935726 242.57843859 60.04881087 242.56971227 57.35766602 242.55957031 C55.48726793 242.56159108 53.61687061 242.56450255 51.74647522 242.56826782 C47.82830294 242.57268992 43.91033592 242.56626304 39.9921875 242.55224609 C34.965855 242.53514245 29.94000264 242.54500355 24.91368771 242.56296349 C21.0524177 242.57379431 17.19126189 242.57035842 13.32998848 242.56258011 C11.47639471 242.56057677 9.62279063 242.56304205 7.76920891 242.57001877 C5.18114544 242.57762304 2.59386443 242.56604433 0.00585938 242.54931641 C-0.76253265 242.5553891 -1.53092468 242.56146179 -2.32260132 242.56771851 C-5.18666115 242.53335838 -7.41976524 242.49486625 -9.91893005 241.01187134 C-12.80018713 235.99662083 -12.12597822 229.47292157 -12.1158905 223.85545349 C-12.11815606 222.92688839 -12.12042162 221.99832328 -12.12275583 221.04161984 C-12.12907836 217.93487904 -12.12826759 214.82818206 -12.12744141 211.72143555 C-12.1304339 209.49223779 -12.13383664 207.26304055 -12.13761902 205.03384399 C-12.14645197 198.9824009 -12.14879678 192.93097195 -12.1494348 186.87952304 C-12.15038439 181.82950474 -12.1540631 176.77948973 -12.1576069 171.7294727 C-12.16528317 160.49922058 -12.16827575 149.26897514 -12.16760155 138.0387212 C-12.16756159 137.36537924 -12.16752164 136.69203728 -12.16748047 135.99829102 C-12.16743959 135.32412602 -12.16739871 134.64996103 -12.16735659 133.9553668 C-12.16694983 123.02098179 -12.1765284 112.08663118 -12.19061884 101.15225612 C-12.20497777 89.92084705 -12.21170613 78.68945424 -12.21102506 67.4580341 C-12.21076978 61.1539624 -12.21363767 54.84992967 -12.22420311 48.54586601 C-12.233863 42.62056563 -12.23397778 36.69534163 -12.22668648 30.7700386 C-12.22563815 28.59356767 -12.22801817 26.41709203 -12.23404694 24.2406292 C-12.24173443 21.27360499 -12.23714359 18.30684674 -12.22941589 15.33982849 C-12.23455946 14.47524015 -12.23970302 13.61065182 -12.24500245 12.71986383 C-12.22044383 8.46377791 -12.11124396 4.9774215 -9.98217773 1.16113281 C-6.83328311 -0.4133145 -3.4578899 0.00493727 0 0 Z " fill="#0A3F5C" transform="translate(445.982177734375,416.8388671875)"/>
<path d="M0 0 C0.82452667 -0.0049649 1.64905334 -0.00992981 2.49856567 -0.01504517 C5.23285753 -0.02968003 7.96709139 -0.03647044 10.70141602 -0.04199219 C12.5970917 -0.04774187 14.49276736 -0.05349962 16.38844299 -0.05926514 C20.36557283 -0.06977843 24.34268243 -0.07561917 28.31982422 -0.07910156 C33.42239307 -0.08459169 38.52469578 -0.10862939 43.62718105 -0.13707352 C47.54332773 -0.15567158 51.45940988 -0.16090395 55.375597 -0.16243744 C57.25711589 -0.16547013 59.13863347 -0.17351932 61.02010918 -0.18662262 C63.64903061 -0.20362664 66.2772963 -0.20181704 68.90625 -0.1953125 C69.68713486 -0.20452728 70.46801971 -0.21374207 71.27256775 -0.22323608 C76.5113343 -0.18251303 76.5113343 -0.18251303 78.71866417 1.31513309 C80.56885363 3.9441043 80.38682492 5.86510378 80.37858582 9.06462097 C80.38270981 10.29721146 80.3868338 11.52980194 80.39108276 12.79974365 C80.38046536 14.16784886 80.36956093 15.53595187 80.35839844 16.90405273 C80.35755233 18.34290041 80.35802698 19.78174939 80.35972595 21.22059631 C80.36058799 25.12949801 80.3429287 29.03812448 80.32200408 32.94696212 C80.3032719 37.03089621 80.30148957 41.11483634 80.29792786 45.19880676 C80.2885972 52.93361508 80.26396965 60.66829644 80.23387939 68.40304881 C80.19410293 78.85413296 80.17788875 89.30525174 80.16037273 99.75639248 C80.13214924 116.22473438 80.0723866 132.69280836 80.01782227 149.16113281 C102.45782227 149.16113281 124.89782227 149.16113281 148.01782227 149.16113281 C148.01782227 178.53113281 148.01782227 207.90113281 148.01782227 238.16113281 C147.68782227 238.16113281 147.35782227 238.16113281 147.01782227 238.16113281 C147.01782227 209.12113281 147.01782227 180.08113281 147.01782227 150.16113281 C124.90782227 150.16113281 102.79782227 150.16113281 80.01782227 150.16113281 C80.06422852 156.55101562 80.11063477 162.94089844 80.15844727 169.52441406 C80.17887965 173.56674796 80.19813496 177.60901841 80.21313477 181.65136719 C80.23706857 188.07101626 80.26541553 194.49043766 80.31958008 200.90991211 C80.36296518 206.08406764 80.38694406 211.25797912 80.39733124 216.43230247 C80.4047358 218.40874259 80.4191948 220.38516899 80.44074249 222.36150551 C80.46967903 225.12484479 80.47378237 227.88716895 80.47192383 230.65063477 C80.48630493 231.47206467 80.50068604 232.29349457 80.51550293 233.13981628 C80.49210199 236.34433005 80.46998018 238.56432319 78.4967804 241.16877747 C74.97630909 242.57806247 71.63356183 242.57889803 67.90039062 242.54931641 C66.67779289 242.55720184 66.67779289 242.55720184 65.43049622 242.56524658 C62.73935726 242.57843859 60.04881087 242.56971227 57.35766602 242.55957031 C55.48726793 242.56159108 53.61687061 242.56450255 51.74647522 242.56826782 C47.82830294 242.57268992 43.91033592 242.56626304 39.9921875 242.55224609 C34.965855 242.53514245 29.94000264 242.54500355 24.91368771 242.56296349 C21.0524177 242.57379431 17.19126189 242.57035842 13.32998848 242.56258011 C11.47639471 242.56057677 9.62279063 242.56304205 7.76920891 242.57001877 C5.18114544 242.57762304 2.59386443 242.56604433 0.00585938 242.54931641 C-0.76253265 242.5553891 -1.53092468 242.56146179 -2.32260132 242.56771851 C-5.18666115 242.53335838 -7.41976524 242.49486625 -9.91893005 241.01187134 C-12.80018713 235.99662083 -12.12597822 229.47292157 -12.1158905 223.85545349 C-12.11815606 222.92688839 -12.12042162 221.99832328 -12.12275583 221.04161984 C-12.12907836 217.93487904 -12.12826759 214.82818206 -12.12744141 211.72143555 C-12.1304339 209.49223779 -12.13383664 207.26304055 -12.13761902 205.03384399 C-12.14645197 198.9824009 -12.14879678 192.93097195 -12.1494348 186.87952304 C-12.15038439 181.82950474 -12.1540631 176.77948973 -12.1576069 171.7294727 C-12.16528317 160.49922058 -12.16827575 149.26897514 -12.16760155 138.0387212 C-12.16756159 137.36537924 -12.16752164 136.69203728 -12.16748047 135.99829102 C-12.16743959 135.32412602 -12.16739871 134.64996103 -12.16735659 133.9553668 C-12.16694983 123.02098179 -12.1765284 112.08663118 -12.19061884 101.15225612 C-12.20497777 89.92084705 -12.21170613 78.68945424 -12.21102506 67.4580341 C-12.21076978 61.1539624 -12.21363767 54.84992967 -12.22420311 48.54586601 C-12.233863 42.62056563 -12.23397778 36.69534163 -12.22668648 30.7700386 C-12.22563815 28.59356767 -12.22801817 26.41709203 -12.23404694 24.2406292 C-12.24173443 21.27360499 -12.23714359 18.30684674 -12.22941589 15.33982849 C-12.23455946 14.47524015 -12.23970302 13.61065182 -12.24500245 12.71986383 C-12.22044383 8.46377791 -12.11124396 4.9774215 -9.98217773 1.16113281 C-6.83328311 -0.4133145 -3.4578899 0.00493727 0 0 Z " fill="#DC742C" transform="translate(445.982177734375,416.8388671875)"/>
<path d="M0 0 C16 0 16 0 19.765625 2.71875 C21.06347656 4.52050781 21.06347656 4.52050781 22.25 6.5 C22.71631836 7.1712793 23.18263672 7.84255859 23.66308594 8.53417969 C24.6445869 9.94840652 25.60575455 11.3769455 26.546875 12.81835938 C28.48075429 15.72177761 30.58883628 18.4721863 32.70996094 21.24023438 C37.93766061 28.06243217 42.94528586 35.04976806 48 42 C48.33 28.14 48.66 14.28 49 0 C54.61 0 60.22 0 66 0 C66 24.09 66 48.18 66 73 C51 73 51 73 47.03515625 69.80078125 C45.99468357 68.33873918 45.00532332 66.83933811 44.0625 65.3125 C42.92313672 63.66969713 41.78245359 62.02780906 40.640625 60.38671875 C40.05861328 59.51450684 39.47660156 58.64229492 38.87695312 57.74365234 C35.55505861 52.88784452 31.90993525 48.27804076 28.3125 43.625 C26.97334275 41.868648 25.63597665 40.11092822 24.30078125 38.3515625 C23.73528564 37.60729004 23.16979004 36.86301758 22.5871582 36.09619141 C21.05202825 34.06871475 19.5258515 32.03446867 18 30 C17.67 44.19 17.34 58.38 17 73 C11.39 73 5.78 73 0 73 C0 48.91 0 24.82 0 0 Z " fill="#174A65" transform="translate(515,678)"/>
<path d="M0 0 C46.98275862 0 46.98275862 0 58.04296875 11.0390625 C66.19695268 20.87947807 68.14125478 30.57537098 67.22753906 43.05419922 C66.24288927 51.47443402 61.41802101 59.27229478 55 64.6875 C43.14377892 73.15622935 31.83120704 73.5287338 17.8125 73.25 C11.934375 73.1675 6.05625 73.085 0 73 C0 48.91 0 24.82 0 0 Z M16 15 C16 29.19 16 43.38 16 58 C31.56909608 58.78817424 31.56909608 58.78817424 43.6875 53.375 C48.2019656 48.73852181 50.21894213 43.38495726 50.4375 36.9375 C50.07371405 29.8161144 48.4837694 25.03645442 43.1875 20.125 C35.01372285 13.10958249 26.92354195 15 16 15 Z " fill="#0F4460" transform="translate(598,678)"/>
<path d="M0 0 C9.054375 -0.020625 18.10875 -0.04125 27.4375 -0.0625 C30.29978271 -0.071604 33.16206543 -0.08070801 36.11108398 -0.09008789 C38.36442009 -0.09300682 40.61775673 -0.09555543 42.87109375 -0.09765625 C44.05352661 -0.10277222 45.23595947 -0.10788818 46.45422363 -0.11315918 C47.57075317 -0.11328003 48.68728271 -0.11340088 49.83764648 -0.11352539 C50.81249496 -0.115746 51.78734344 -0.11796661 52.79173279 -0.12025452 C55 0 55 0 56 1 C56.0989294 3.16480797 56.129711 5.33293785 56.125 7.5 C56.12886719 9.27890625 56.12886719 9.27890625 56.1328125 11.09375 C56 14 56 14 55 15 C52.1883662 15.08861992 49.40141745 15.11522355 46.58984375 15.09765625 C45.74780899 15.0962413 44.90577423 15.09482635 44.03822327 15.09336853 C41.33794665 15.08775263 38.63775172 15.07519748 35.9375 15.0625 C34.11132932 15.05748705 32.28515734 15.05292379 30.45898438 15.04882812 C25.97262458 15.03777804 21.48632616 15.02050279 17 15 C17 19.62 17 24.24 17 29 C28.22 29 39.44 29 51 29 C51 33.95 51 38.9 51 44 C39.78 44 28.56 44 17 44 C17 48.62 17 53.24 17 58 C29.87 58 42.74 58 56 58 C56 62.95 56 67.9 56 73 C37.52 73 19.04 73 0 73 C0 48.91 0 24.82 0 0 Z " fill="#164964" transform="translate(679,678)"/>
<path d="M0 0 C5.61 0 11.22 0 17 0 C17 9.57 17 19.14 17 29 C26.57 29 36.14 29 46 29 C46 19.43 46 9.86 46 0 C51.61 0 57.22 0 63 0 C63 24.09 63 48.18 63 73 C57.39 73 51.78 73 46 73 C46 63.43 46 53.86 46 44 C36.43 44 26.86 44 17 44 C17 53.57 17 63.14 17 73 C11.39 73 5.78 73 0 73 C0 48.91 0 24.82 0 0 Z " fill="#154964" transform="translate(354,678)"/>
<path d="M0 0 C4.95 0 9.9 0 15 0 C17.80928023 6.53818682 20.61679489 13.07712826 23.42285156 19.61669922 C24.37259175 21.82945972 25.32276916 24.04203263 26.2734375 26.25439453 C31.46461947 38.33599071 36.62481674 50.42967856 41.6953125 62.5625 C42.34619339 64.11602173 42.34619339 64.11602173 43.01022339 65.70092773 C43.40404205 66.64653564 43.79786072 67.59214355 44.20361328 68.56640625 C44.55175079 69.40115479 44.89988831 70.23590332 45.25857544 71.09594727 C46 73 46 73 46 74 C40.06 74 34.12 74 28 74 C26.02 69.05 24.04 64.1 22 59 C12.1 59 2.2 59 -8 59 C-9.93222372 63.56125509 -9.93222372 63.56125509 -11.85913086 68.12475586 C-13.88888889 72.88888889 -13.88888889 72.88888889 -15 74 C-17.86469325 74.07330331 -20.69893674 74.09217831 -23.5625 74.0625 C-25.0676244 74.05101114 -26.57275159 74.03988496 -28.07788086 74.02905273 C-30.01932983 74.01467163 -30.01932983 74.01467163 -32 74 C-26.74251652 60.64728517 -21.25713743 47.4099204 -15.5534668 34.24169922 C-14.29904091 31.34390879 -13.05067351 28.44355774 -11.80273438 25.54296875 C-10.98994055 23.66130399 -10.17680214 21.77978803 -9.36328125 19.8984375 C-8.99858231 19.05034515 -8.63388336 18.20225281 -8.25813293 17.32846069 C-5.70287466 11.44447549 -2.90709826 5.71859973 0 0 Z M6 22 C4.66087415 25.12254943 3.32969342 28.24842358 2 31.375 C1.42765625 32.70917969 1.42765625 32.70917969 0.84375 34.0703125 C0.4828125 34.92109375 0.121875 35.771875 -0.25 36.6484375 C-0.75273437 37.82672119 -0.75273437 37.82672119 -1.265625 39.02880859 C-2.11637101 40.96176935 -2.11637101 40.96176935 -2 43 C3.94 43 9.88 43 16 43 C14.576875 39.1946875 14.576875 39.1946875 13.125 35.3125 C12.82996582 34.52270752 12.53493164 33.73291504 12.23095703 32.91918945 C10.86136389 29.26216307 9.47011409 25.61819341 8 22 C7.34 22 6.68 22 6 22 Z " fill="#144763" transform="translate(459,677)"/>
<path d="M0 0 C5.28 0 10.56 0 16 0 C16 19.14 16 38.28 16 58 C28.21 58 40.42 58 53 58 C53 62.95 53 67.9 53 73 C35.51 73 18.02 73 0 73 C0 48.91 0 24.82 0 0 Z " fill="#0D425E" transform="translate(749,678)"/>
<path d="M0 0 C1.98 0 3.96 0 6 0 C7.96938498 2.36085294 9.38172633 4.36899401 10.875 7 C11.2771875 7.66773438 11.679375 8.33546875 12.09375 9.0234375 C13.08210073 10.67068871 14.04371066 12.33393145 15 14 C15.33 9.38 15.66 4.76 16 0 C17.65 0 19.3 0 21 0 C21 8.25 21 16.5 21 25 C19.02 25 17.04 25 15 25 C13.03061502 22.63914706 11.61827367 20.63100599 10.125 18 C9.7228125 17.33226562 9.320625 16.66453125 8.90625 15.9765625 C7.91789927 14.32931129 6.95628934 12.66606855 6 11 C5.67 15.62 5.34 20.24 5 25 C3.35 25 1.7 25 0 25 C0 16.75 0 8.5 0 0 Z " fill="#E1813F" transform="translate(827,764)"/>
<path d="M0 0 C1.98 0 3.96 0 6 0 C7.96938498 2.36085294 9.38172633 4.36899401 10.875 7 C11.2771875 7.66773438 11.679375 8.33546875 12.09375 9.0234375 C13.08210073 10.67068871 14.04371066 12.33393145 15 14 C15.33 9.38 15.66 4.76 16 0 C17.65 0 19.3 0 21 0 C21 8.25 21 16.5 21 25 C19.02 25 17.04 25 15 25 C13.03061502 22.63914706 11.61827367 20.63100599 10.125 18 C9.7228125 17.33226562 9.320625 16.66453125 8.90625 15.9765625 C7.91789927 14.32931129 6.95628934 12.66606855 6 11 C5.67 15.62 5.34 20.24 5 25 C3.35 25 1.7 25 0 25 C0 16.75 0 8.5 0 0 Z " fill="#E1813F" transform="translate(706,764)"/>
<path d="M0 0 C12.27980769 -0.49615385 12.27980769 -0.49615385 15.92578125 2.015625 C16.61027344 2.67046875 17.29476562 3.3253125 18 4 C17.835 4.94875 17.67 5.8975 17.5 6.875 C16.9473365 9.80168901 16.9473365 9.80168901 17 12 C17.515625 12.5775 18.03125 13.155 18.5625 13.75 C20 16 20 16 19.875 19.0625 C18.64007026 23.20833555 18.64007026 23.20833555 16 25 C13.17074044 25.21853189 10.62668821 25.28262512 7.8125 25.1875 C5.234375 25.125625 2.65625 25.06375 0 25 C0 16.75 0 8.5 0 0 Z M5 5 C5 6.65 5 8.3 5 10 C7.31 10 9.62 10 12 10 C12 8.35 12 6.7 12 5 C9.69 5 7.38 5 5 5 Z M5 14 C5 16.31 5 18.62 5 21 C9.65052872 21.26932521 9.65052872 21.26932521 14 20 C13.62095792 16.70924004 13.62095792 16.70924004 12 14 C9.66702567 13.95907063 7.33294775 13.95758277 5 14 Z " fill="#E18240" transform="translate(581,764)"/>
<path d="M0 0 C2.9375 1.3125 2.9375 1.3125 5 3 C5.33 3.99 5.66 4.98 6 6 C4.35 6.66 2.7 7.32 1 8 C0.34 7.34 -0.32 6.68 -1 6 C-4 5.58333333 -4 5.58333333 -7 6 C-9.54014875 9.81022313 -9.58606955 12.53470816 -9 17 C-8.03882095 19.12870693 -8.03882095 19.12870693 -6 20 C-2.87450983 20.25048636 -2.87450983 20.25048636 0 20 C0 19.01 0 18.02 0 17 C-1.65 16.67 -3.3 16.34 -5 16 C-5 14.35 -5 12.7 -5 11 C-1.37 11 2.26 11 6 11 C6 15.62 6 20.24 6 25 C3.66666667 25 1.33333333 25 -1 25 C-2.0725 25.2475 -3.145 25.495 -4.25 25.75 C-8 26 -8 26 -11.3125 24.4375 C-14.49159524 21.55413455 -15.2962205 20.22267701 -16 16 C-16.13576319 10.71372061 -15.91791229 7.15327442 -12.5625 2.9375 C-8.43201983 -0.18554598 -5.10070533 -0.55697357 0 0 Z " fill="#E38849" transform="translate(868,764)"/>
<path d="M0 0 C1.0209375 0.86625 1.0209375 0.86625 2.0625 1.75 C2.0625 3.07 2.0625 4.39 2.0625 5.75 C0.7425 6.08 -0.5775 6.41 -1.9375 6.75 C-1.9375 6.09 -1.9375 5.43 -1.9375 4.75 C-4.5775 4.75 -7.2175 4.75 -9.9375 4.75 C-11.8453584 7.9249094 -12.0984041 9.85585211 -11.5625 13.5 C-11.45164062 14.29921875 -11.34078125 15.0984375 -11.2265625 15.921875 C-11.13117187 16.52515625 -11.03578125 17.1284375 -10.9375 17.75 C-6.95995872 18.48334429 -6.95995872 18.48334429 -2.9375 18.75 C-2.6075 17.43 -2.2775 16.11 -1.9375 14.75 C-3.9175 14.75 -5.8975 14.75 -7.9375 14.75 C-7.9375 13.1 -7.9375 11.45 -7.9375 9.75 C-4.3075 9.75 -0.6775 9.75 3.0625 9.75 C3.0625 14.37 3.0625 18.99 3.0625 23.75 C0.72916667 23.75 -1.60416667 23.75 -3.9375 23.75 C-4.845 23.976875 -5.7525 24.20375 -6.6875 24.4375 C-10.75259492 24.82837451 -12.5573745 23.97780999 -15.9375 21.75 C-19.07315978 16.96624601 -18.66940127 11.23194055 -17.9375 5.75 C-16.57446149 2.95577105 -15.35662091 1.83156916 -12.9375 -0.25 C-8.32658711 -1.78697096 -4.50672407 -1.91775492 0 0 Z " fill="#E28545" transform="translate(526.9375,765.25)"/>
<path d="M0 0 C2.92207125 2.58812025 4.36160293 5.1774949 5.1875 8.9375 C5.46252316 13.58862691 4.84955253 17.58618337 2.125 21.4375 C-1.80983608 24.78629666 -3.67820274 24.9375 -8.8125 24.9375 C-12.12187187 24.18537003 -13.56271129 23.16647299 -16.0625 20.875 C-18.70821164 16.43398404 -19.47825179 12.00113658 -18.37109375 6.90625 C-17.28654102 3.98105636 -15.95157447 2.06068024 -13.625 0 C-8.85941979 -1.8003303 -4.76558021 -1.8003303 0 0 Z M-11.6875 5.4375 C-13.2877025 8.99350556 -13.51023981 12.10385094 -12.8125 15.9375 C-11.37235074 18.62888543 -11.37235074 18.62888543 -8.8125 19.9375 C-5.67887282 20.02642339 -5.67887282 20.02642339 -2.8125 18.9375 C-0.34167862 15.23126793 -0.26785962 12.23410742 -0.8125 7.9375 C-1.74493871 5.35798316 -1.74493871 5.35798316 -3.8125 3.9375 C-7.21476157 3.37045641 -8.95005473 3.24754378 -11.6875 5.4375 Z " fill="#E28545" transform="translate(696.8125,765.0625)"/>
<path d="M0 0 C2.92207125 2.58812025 4.36160293 5.1774949 5.1875 8.9375 C5.46252316 13.58862691 4.84955253 17.58618337 2.125 21.4375 C-1.80983608 24.78629666 -3.67820274 24.9375 -8.8125 24.9375 C-12.12187187 24.18537003 -13.56271129 23.16647299 -16.0625 20.875 C-18.70821164 16.43398404 -19.47825179 12.00113658 -18.37109375 6.90625 C-17.28654102 3.98105636 -15.95157447 2.06068024 -13.625 0 C-8.85941979 -1.8003303 -4.76558021 -1.8003303 0 0 Z M-11.6875 5.4375 C-13.2877025 8.99350556 -13.51023981 12.10385094 -12.8125 15.9375 C-11.37235074 18.62888543 -11.37235074 18.62888543 -8.8125 19.9375 C-5.67887282 20.02642339 -5.67887282 20.02642339 -2.8125 18.9375 C-0.34167862 15.23126793 -0.26785962 12.23410742 -0.8125 7.9375 C-1.74493871 5.35798316 -1.74493871 5.35798316 -3.8125 3.9375 C-7.21476157 3.37045641 -8.95005473 3.24754378 -11.6875 5.4375 Z " fill="#E28545" transform="translate(365.8125,765.0625)"/>
<path d="M0 0 C3.01784991 1.75607646 5.41468217 3.82936435 7 7 C7.48468147 12.37916974 7.91843858 17.29918781 5.3125 22.125 C1.56559322 25.16303252 -1.19399745 26.2356167 -6 25.9375 C-10.26676975 25.26804463 -12.32277369 23.40737894 -15 20 C-16.68600001 14.94199996 -16.58520639 10.63241784 -14.8125 5.6875 C-11.18961087 0.31562991 -6.37374928 -1.3693602 0 0 Z M-8.6640625 6.20703125 C-10.41999065 8.56367167 -10.43315849 10.08250352 -10.4375 13 C-10.45683594 13.86625 -10.47617187 14.7325 -10.49609375 15.625 C-10.19924267 18.13618216 -10.19924267 18.13618216 -8.16796875 19.81640625 C-5.95435292 21.25785692 -5.95435292 21.25785692 -2.875 20.9375 C0.05625158 20.3073052 0.05625158 20.3073052 1.1953125 18.23046875 C2.11874615 15.67085413 2.09137608 14.06109074 1.75 11.375 C1.66234375 10.59898437 1.5746875 9.82296875 1.484375 9.0234375 C1.13545643 6.78674973 1.13545643 6.78674973 -1 5 C-5.08286927 4.51731985 -5.08286927 4.51731985 -8.6640625 6.20703125 Z " fill="#E28443" transform="translate(569,764)"/>
<path d="M0 0 C13.82142857 0 13.82142857 0 18 3 C21.64050184 6.95478977 21.44079649 10.19443786 21.2890625 15.3671875 C20.93098563 18.62859037 20.20684797 20.55670403 18 23 C12.80786227 26.48999824 5.94038214 25.11000708 0 25 C0 16.75 0 8.5 0 0 Z M5 5 C5 10.28 5 15.56 5 21 C10.45021111 20.83184113 10.45021111 20.83184113 15 18.3125 C16.61554364 14.57655533 16.5602715 11.48071753 15.125 7.6875 C14.09561011 5.8410805 14.09561011 5.8410805 12 5 C9.69 5 7.38 5 5 5 Z " fill="#E17F3C" transform="translate(301,764)"/>
<path d="M0 0 C1.4540625 0.0309375 1.4540625 0.0309375 2.9375 0.0625 C6.83143294 8.13880536 9.37280621 16.4960023 11.9375 25.0625 C9.9575 25.0625 7.9775 25.0625 5.9375 25.0625 C5.4425 22.5875 5.4425 22.5875 4.9375 20.0625 C1.6375 20.0625 -1.6625 20.0625 -5.0625 20.0625 C-5.3925 21.7125 -5.7225 23.3625 -6.0625 25.0625 C-8.0425 25.0625 -10.0225 25.0625 -12.0625 25.0625 C-10.75483076 21.08172912 -9.44056177 17.10316885 -8.125 13.125 C-7.56522461 11.42053711 -7.56522461 11.42053711 -6.99414062 9.68164062 C-6.63642578 8.60205078 -6.27871094 7.52246094 -5.91015625 6.41015625 C-5.58023682 5.40992432 -5.25031738 4.40969238 -4.91040039 3.37915039 C-3.70126851 0.07553609 -3.70126851 0.07553609 0 0 Z M-1.0625 8.0625 C-1.7225 10.3725 -2.3825 12.6825 -3.0625 15.0625 C-1.0825 15.0625 0.8975 15.0625 2.9375 15.0625 C2.2775 12.7525 1.6175 10.4425 0.9375 8.0625 C0.2775 8.0625 -0.3825 8.0625 -1.0625 8.0625 Z " fill="#E28545" transform="translate(408.0625,763.9375)"/>
<path d="M0 0 C1.4540625 0.0309375 1.4540625 0.0309375 2.9375 0.0625 C6.83143294 8.13880536 9.37280621 16.4960023 11.9375 25.0625 C9.9575 25.0625 7.9775 25.0625 5.9375 25.0625 C5.4425 22.5875 5.4425 22.5875 4.9375 20.0625 C1.6375 20.0625 -1.6625 20.0625 -5.0625 20.0625 C-5.3925 21.7125 -5.7225 23.3625 -6.0625 25.0625 C-8.0425 25.0625 -10.0225 25.0625 -12.0625 25.0625 C-10.75483076 21.08172912 -9.44056177 17.10316885 -8.125 13.125 C-7.56522461 11.42053711 -7.56522461 11.42053711 -6.99414062 9.68164062 C-6.63642578 8.60205078 -6.27871094 7.52246094 -5.91015625 6.41015625 C-5.58023682 5.40992432 -5.25031738 4.40969238 -4.91040039 3.37915039 C-3.70126851 0.07553609 -3.70126851 0.07553609 0 0 Z M-1.0625 8.0625 C-1.7225 10.3725 -2.3825 12.6825 -3.0625 15.0625 C-1.0825 15.0625 0.8975 15.0625 2.9375 15.0625 C2.2775 12.7525 1.6175 10.4425 0.9375 8.0625 C0.2775 8.0625 -0.3825 8.0625 -1.0625 8.0625 Z " fill="#E28545" transform="translate(286.0625,763.9375)"/>
<path d="M0 0 C2.31 0 4.62 0 7 0 C8.34117853 3.60129621 9.6715839 7.20647859 11 10.8125 C11.3815625 11.83666016 11.763125 12.86082031 12.15625 13.91601562 C12.5171875 14.89892578 12.878125 15.88183594 13.25 16.89453125 C13.75273438 18.25348511 13.75273438 18.25348511 14.265625 19.63989258 C15 22 15 22 15 25 C13.35 25 11.7 25 10 25 C9.76539063 24.35546875 9.53078125 23.7109375 9.2890625 23.046875 C8.18838927 20.7922092 8.18838927 20.7922092 5.8359375 20.390625 C4.61777344 20.32101562 4.61777344 20.32101562 3.375 20.25 C2.55773437 20.19328125 1.74046875 20.1365625 0.8984375 20.078125 C-0.04128906 20.03945313 -0.04128906 20.03945313 -1 20 C-1.33 21.65 -1.66 23.3 -2 25 C-3.98 25 -5.96 25 -8 25 C-5.85406445 16.45115106 -3.0505873 8.25949525 0 0 Z M3 6 C2.34 8.97 1.68 11.94 1 15 C2.65 15 4.3 15 6 15 C5.34 12.03 4.68 9.06 4 6 C3.67 6 3.34 6 3 6 Z " fill="#E28544" transform="translate(610,764)"/>
<path d="M0 0 C2.9375 1.5 2.9375 1.5 5 3 C4.34 4.32 3.68 5.64 3 7 C0.03 6.67 -2.94 6.34 -6 6 C-6.33 6.99 -6.66 7.98 -7 9 C-6.39671875 9.09796875 -5.7934375 9.1959375 -5.171875 9.296875 C-1.50221844 9.9834559 1.42840238 10.64615385 4.625 12.625 C6.40791202 15.7045753 6.3815502 17.70100588 5.73046875 21.15625 C5 23 5 23 2.4375 25.0625 C-2.01580105 26.27703665 -4.48868608 26.01868379 -9 25 C-11.5 23.4375 -11.5 23.4375 -13 22 C-12.34 20.35 -11.68 18.7 -11 17 C-10.278125 17.495 -9.55625 17.99 -8.8125 18.5 C-5.85151341 20.07919285 -4.28746971 20.28178312 -1 20 C-0.67 18.68 -0.34 17.36 0 16 C-0.60328125 15.91363281 -1.2065625 15.82726562 -1.828125 15.73828125 C-5.90242316 15.02199335 -8.42995659 14.48860864 -11.625 11.75 C-13 9 -13 9 -13.0625 5.875 C-12 3 -12 3 -9.875 1.125 C-6.30377926 -0.2724342 -3.81032164 -0.40824875 0 0 Z " fill="#E28748" transform="translate(744,764)"/>
<path d="M0 0 C2.9375 1.5 2.9375 1.5 5 3 C4.34 4.32 3.68 5.64 3 7 C-0.3 6.34 -3.6 5.68 -7 5 C-7 6.32 -7 7.64 -7 9 C-6.39671875 9.08636719 -5.7934375 9.17273438 -5.171875 9.26171875 C-1.09757684 9.97800665 1.42995659 10.51139136 4.625 13.25 C6.36382113 16.72764225 6.19501672 18.33528206 5 22 C3.9375 23.8125 3.9375 23.8125 2 25 C-2.62941817 26.06248942 -4.93861756 26.36665939 -9.4375 24.8125 C-12 23 -12 23 -12.875 20.8125 C-12.91625 20.214375 -12.9575 19.61625 -13 19 C-12.01 18.34 -11.02 17.68 -10 17 C-9.46375 17.495 -8.9275 17.99 -8.375 18.5 C-5.40641555 20.37489544 -3.44687573 20.23501425 0 20 C0 18.68 0 17.36 0 16 C-0.60328125 15.90203125 -1.2065625 15.8040625 -1.828125 15.703125 C-5.53377526 15.00980979 -8.42829778 14.36752286 -11.625 12.3125 C-13 10 -13 10 -13.0625 6.4375 C-12 3 -12 3 -9.875 1.0625 C-6.31144916 -0.25446444 -3.77713372 -0.4046929 0 0 Z " fill="#E28647" transform="translate(473,764)"/>
<path d="M0 0 C1.65 0 3.3 0 5 0 C5.33 6.6 5.66 13.2 6 20 C8.64 20 11.28 20 14 20 C14.33 13.4 14.66 6.8 15 0 C16.65 0 18.3 0 20 0 C20.11667875 3.22886009 20.18740546 6.45717445 20.25 9.6875 C20.30027344 11.05551758 20.30027344 11.05551758 20.3515625 12.45117188 C20.41361002 16.716939 20.3910544 19.30664736 18.26171875 23.08203125 C14.73237519 26.07496335 11.52527587 26.29899144 7 26 C3.97663142 24.64913319 2.32414606 23.32414606 0 21 C-0.22705078 18.84521484 -0.22705078 18.84521484 -0.1953125 16.2109375 C-0.18886719 15.26992188 -0.18242188 14.32890625 -0.17578125 13.359375 C-0.15902344 12.37453125 -0.14226563 11.3896875 -0.125 10.375 C-0.11597656 9.38242187 -0.10695313 8.38984375 -0.09765625 7.3671875 C-0.07404116 4.91121866 -0.04110799 2.45572832 0 0 Z " fill="#E1823F" transform="translate(754,764)"/>
<path d="M0 0 C5.28 0 10.56 0 16 0 C16.33 1.65 16.66 3.3 17 5 C13.04 5 9.08 5 5 5 C5 6.65 5 8.3 5 10 C8.3 10 11.6 10 15 10 C15 11.65 15 13.3 15 15 C11.7 15 8.4 15 5 15 C5 16.98 5 18.96 5 21 C8.96 21 12.92 21 17 21 C17 22.32 17 23.64 17 25 C11.39 25 5.78 25 0 25 C0 16.75 0 8.5 0 0 Z " fill="#E18341" transform="translate(441,764)"/>
<path d="M0 0 C2.875 1.25 2.875 1.25 5 3 C5.8125 5.1875 5.8125 5.1875 6 7 C4.35 7.33 2.7 7.66 1 8 C0.67 7.34 0.34 6.68 0 6 C-2.64 6 -5.28 6 -8 6 C-8.05389087 7.95803507 -8.09274217 9.91648909 -8.125 11.875 C-8.15980469 13.51082031 -8.15980469 13.51082031 -8.1953125 15.1796875 C-8.30060534 18.1371051 -8.30060534 18.1371051 -6 20 C-3.58517587 20.50059916 -3.58517587 20.50059916 -1 20 C1.31377147 18.10415891 1.31377147 18.10415891 3 16 C4.32 16.99 5.64 17.98 7 19 C5.57891465 21.84217071 4.53081292 23.66634616 1.8125 25.375 C-2.01300988 26.22511331 -5.24920701 26.19722281 -9 25 C-11.64233769 22.80742191 -13.46669809 21.06660382 -15 18 C-15.41849303 13.4529123 -15.53618367 9.32634907 -13.8125 5.0625 C-9.71546129 0.4003525 -6.16108321 -0.66011606 0 0 Z " fill="#E3884A" transform="translate(670,764)"/>
<path d="M0 0 C2.875 1.25 2.875 1.25 5 3 C5.8125 5.1875 5.8125 5.1875 6 7 C4.35 7.33 2.7 7.66 1 8 C0.67 7.34 0.34 6.68 0 6 C-2.64 6 -5.28 6 -8 6 C-8.05389087 7.95803507 -8.09274217 9.91648909 -8.125 11.875 C-8.15980469 13.51082031 -8.15980469 13.51082031 -8.1953125 15.1796875 C-8.30060534 18.1371051 -8.30060534 18.1371051 -6 20 C-3.58517587 20.50059916 -3.58517587 20.50059916 -1 20 C1.31377147 18.10415891 1.31377147 18.10415891 3 16 C4.32 16.99 5.64 17.98 7 19 C5.57891465 21.84217071 4.53081292 23.66634616 1.8125 25.375 C-2.01300988 26.22511331 -5.24920701 26.19722281 -9 25 C-11.64233769 22.80742191 -13.46669809 21.06660382 -15 18 C-15.41849303 13.4529123 -15.53618367 9.32634907 -13.8125 5.0625 C-9.71546129 0.4003525 -6.16108321 -0.66011606 0 0 Z " fill="#E3884A" transform="translate(389,764)"/>
<path d="M0 0 C1.65 0 3.3 0 5 0 C5.62726108 1.54074808 6.2516901 3.08264923 6.875 4.625 C7.22304688 5.48351562 7.57109375 6.34203125 7.9296875 7.2265625 C9.04521675 10.11716749 10.02020396 13.06061189 11 16 C12.98 10.72 14.96 5.44 17 0 C18.65 0 20.3 0 22 0 C21.40221436 5.63412963 19.94103952 10.56460886 18 15.875 C17.72671875 16.64585937 17.4534375 17.41671875 17.171875 18.2109375 C15.14466003 23.85533997 15.14466003 23.85533997 14 25 C12.00041636 25.04080783 9.99954746 25.04254356 8 25 C0 5.76595745 0 5.76595745 0 0 Z " fill="#E28646" transform="translate(324,764)"/>
<path d="M0 0 C6.27 0 12.54 0 19 0 C19.33 1.65 19.66 3.3 20 5 C17.69 5 15.38 5 13 5 C13 11.6 13 18.2 13 25 C11.02 25 9.04 25 7 25 C7 18.4 7 11.8 7 5 C4.69 5 2.38 5 0 5 C0 3.35 0 1.7 0 0 Z " fill="#E48F54" transform="translate(793,764)"/>
<path d="M0 0 C6.27 0 12.54 0 19 0 C19.33 1.65 19.66 3.3 20 5 C17.69 5 15.38 5 13 5 C13 11.6 13 18.2 13 25 C11.02 25 9.04 25 7 25 C7 18.4 7 11.8 7 5 C4.69 5 2.38 5 0 5 C0 3.35 0 1.7 0 0 Z " fill="#E48F54" transform="translate(418,764)"/>
<path d="M0 0 C1.65 0 3.3 0 5 0 C5 6.93 5 13.86 5 21 C8.63 21 12.26 21 16 21 C16 22.32 16 23.64 16 25 C10.39 25 4.78 25 -1 25 C-1.02682614 21.02078906 -1.04675393 17.04175659 -1.0625 13.0625 C-1.07087891 11.92619141 -1.07925781 10.78988281 -1.08789062 9.61914062 C-1.09111328 8.53955078 -1.09433594 7.45996094 -1.09765625 6.34765625 C-1.10289307 5.34742432 -1.10812988 4.34719238 -1.11352539 3.31665039 C-1 1 -1 1 0 0 Z " fill="#E3894B" transform="translate(629,764)"/>
<path d="M0 0 C1.65 0 3.3 0 5 0 C5 6.93 5 13.86 5 21 C8.63 21 12.26 21 16 21 C16 22.32 16 23.64 16 25 C10.39 25 4.78 25 -1 25 C-1.02682614 21.02078906 -1.04675393 17.04175659 -1.0625 13.0625 C-1.07087891 11.92619141 -1.07925781 10.78988281 -1.08789062 9.61914062 C-1.09111328 8.53955078 -1.09433594 7.45996094 -1.09765625 6.34765625 C-1.10289307 5.34742432 -1.10812988 4.34719238 -1.11352539 3.31665039 C-1 1 -1 1 0 0 Z " fill="#E3894B" transform="translate(536,764)"/>
<path d="M0 0 C1.65 0 3.3 0 5 0 C5 6.93 5 13.86 5 21 C8.63 21 12.26 21 16 21 C16 22.32 16 23.64 16 25 C10.72 25 5.44 25 0 25 C0 16.75 0 8.5 0 0 Z " fill="#DF7B35" transform="translate(780,764)"/>
<path d="M0 0 C1.65 0 3.3 0 5 0 C5 9.9 5 19.8 5 30 C3.35 30 1.7 30 0 30 C0 20.1 0 10.2 0 0 Z " fill="#E1813F" transform="translate(491,763)"/>
<path d="M0 0 C1.65 0 3.3 0 5 0 C5 8.25 5 16.5 5 25 C3.35 25 1.7 25 0 25 C0 16.75 0 8.5 0 0 Z " fill="#E07B35" transform="translate(816,764)"/>
</svg>
