<svg xmlns="http://www.w3.org/2000/svg" version="1.1" viewBox="0 0 1024 1024">
<path d="M0 0 C337.92 0 675.84 0 1024 0 C1024 337.92 1024 675.84 1024 1024 C686.08 1024 348.16 1024 0 1024 C0 686.08 0 348.16 0 0 Z " fill="#FEFEFB" transform="translate(0,0)"/>
<path d="M0 0 C0.80449854 -0.00538554 1.60899709 -0.01077108 2.43787438 -0.01631981 C5.13094457 -0.03061601 7.82352439 -0.02349164 10.51661682 -0.01637268 C12.44848526 -0.02207538 14.38035034 -0.02903925 16.31221008 -0.03717041 C21.55806584 -0.05512794 26.80375456 -0.05392855 32.04963183 -0.04822803 C36.42847783 -0.04513995 40.80729156 -0.05122438 45.18613297 -0.05726677 C55.51588529 -0.0713189 65.84555493 -0.06974496 76.17530823 -0.05836487 C86.83347067 -0.04688248 97.49138152 -0.06095987 108.1495108 -0.08776134 C117.29954153 -0.10990935 126.44949324 -0.11655776 135.59954888 -0.11068493 C141.06478369 -0.10731207 146.52985721 -0.10975238 151.9950695 -0.12693596 C157.13416123 -0.14238863 162.27287989 -0.13846806 167.41195679 -0.11963081 C169.29774465 -0.11594031 171.18356006 -0.1190668 173.06932259 -0.1295166 C175.64446536 -0.14269678 178.21836766 -0.13120595 180.79345703 -0.11352539 C181.5390862 -0.1231304 182.28471537 -0.1327354 183.05293936 -0.14263147 C188.1597086 -0.07052686 191.08395184 1.08465795 194.96022034 4.38768005 C198.38956423 8.5173531 198.37909809 12.53961631 198.32098389 17.69561768 C198.32354716 18.52885093 198.32611044 19.36208418 198.32875139 20.22056693 C198.33369001 23.01059946 198.31719507 25.80009001 198.30079651 28.59007263 C198.29995025 30.59078458 198.30042535 32.59149746 198.30212402 34.59220886 C198.30298546 40.02363925 198.28533554 45.45487125 198.26440215 50.8862555 C198.24566018 56.56239459 198.24388686 62.23853812 198.24032593 67.91470337 C198.23099819 78.66332684 198.20637448 89.41185887 198.17627746 100.16044205 C198.13648939 114.68499548 198.12028447 129.20957388 198.10277081 143.73416805 C198.07455396 166.61874056 198.01478919 189.50312009 197.96022034 212.38768005 C250.76022034 212.38768005 303.56022034 212.38768005 357.96022034 212.38768005 C357.91381409 197.97080505 357.86740784 183.55393005 357.81959534 168.70018005 C357.79916152 159.57647928 357.77974057 150.45279506 357.76490784 141.3290863 C357.74116649 126.84188681 357.71324519 112.35478033 357.65846252 97.86766052 C357.61858492 87.31711031 357.59278514 76.76663549 357.58386636 66.216012 C357.57865322 60.62988005 357.56640696 55.0439638 357.53730011 49.457901 C357.51011662 44.19826433 357.50178137 38.93893189 357.50778961 33.67923164 C357.5066907 31.75073149 357.49875441 29.82222099 357.48339844 27.89378166 C357.46342453 25.25563463 357.46830792 22.61862827 357.47920227 19.98045349 C357.4675509 19.22167562 357.45589954 18.46289774 357.4438951 17.68112659 C357.50488901 12.19693247 358.78927982 7.90999356 361.96022034 3.38768005 C365.84086344 0.01053514 369.68318426 -0.03989421 374.62709045 0.00672913 C375.39145904 0.00204915 376.15582763 -0.00263082 376.9433589 -0.00745261 C379.50058899 -0.01940357 382.05728329 -0.00994515 384.61451721 -0.00050354 C386.44948641 -0.0045692 388.28445317 -0.00991105 390.11941528 -0.01643372 C395.10076204 -0.03011377 400.08192245 -0.02480579 405.06327248 -0.01529646 C410.27530547 -0.00770346 415.48732246 -0.01474447 420.69935608 -0.01945496 C429.45219285 -0.02491355 438.20495369 -0.01771815 446.95777893 -0.00343323 C457.07856503 0.01289347 467.19916983 0.00760503 477.31995153 -0.00891244 C486.00797246 -0.02252433 494.69593878 -0.02444842 503.38396692 -0.01659644 C508.57359444 -0.01191829 513.76313674 -0.01129898 518.95275879 -0.0212059 C523.83161854 -0.02986893 528.71024443 -0.02386573 533.5890789 -0.00652313 C535.38014271 -0.00255475 537.17122618 -0.00369834 538.96228218 -0.01031113 C541.40623765 -0.01850288 543.84944263 -0.0082341 546.29335022 0.00672913 C547.35779901 -0.00330912 547.35779901 -0.00330912 548.44375181 -0.01355016 C553.73152352 0.04929293 556.7621064 1.50358239 560.71022034 4.88768005 C563.90137652 8.71706748 563.10110864 13.68557681 563.0916481 18.37926292 C563.09472705 19.78271422 563.09472705 19.78271422 563.0978682 21.21451807 C563.10356506 24.37929719 563.10207766 27.54403316 563.10066223 30.70881653 C563.10324432 32.98885735 563.10625704 35.26889771 563.10966563 37.54893744 C563.11775709 43.8375789 563.11952639 50.12620896 563.1202631 56.414855 C563.12192044 62.49310134 563.12823584 68.57134129 563.13434151 74.64958449 C563.15041217 90.93748737 563.15630575 107.22538934 563.16109026 123.51329873 C563.16342488 131.21529183 563.16702736 138.91728418 563.17078564 146.61927669 C563.18362134 172.97343464 563.19434111 199.32759216 563.19778824 225.68175316 C563.19800987 227.33652674 563.19823166 228.99130033 563.19845359 230.64607392 C563.19867423 232.30488668 563.19889471 233.96369945 563.19911504 235.62251222 C563.1995576 238.95048483 563.20000471 242.27845744 563.20045471 245.60643005 C563.2005641 246.43157561 563.20067349 247.25672116 563.2007862 248.10687113 C563.20441833 274.87338618 563.22034415 301.63987417 563.24364508 328.40637885 C563.26822374 356.69226218 563.28196014 384.97813005 563.28315616 413.26402438 C563.28332762 416.36716946 563.28354305 419.47031454 563.28379059 422.57345963 C563.28384636 423.33756522 563.28390213 424.10167082 563.28395958 424.88893114 C563.28511167 437.2015713 563.2961469 449.51418376 563.31067764 461.82681456 C563.32502166 474.19475534 563.3282915 486.56266049 563.32023767 498.9306073 C563.31616573 505.63491652 563.31732545 512.3391208 563.33129501 519.04342461 C563.3439542 525.17468941 563.34290715 531.30578968 563.3307043 537.43705399 C563.32873339 539.66113164 563.33188933 541.88522063 563.34054866 544.1092823 C563.35153774 547.12119606 563.34422707 550.13251843 563.33215714 553.1444149 C563.33975233 554.01762532 563.34734752 554.89083574 563.35517287 555.79050708 C563.30543956 561.49822187 562.23824902 564.72997992 558.46022034 569.13768005 C554.97879655 572.03886654 550.81397323 571.53860429 546.54058838 571.5415802 C545.77863421 571.54596245 545.01668004 571.55034471 544.23163635 571.55485976 C541.67070287 571.56824672 539.1098038 571.57442635 536.54884338 571.58055115 C534.7157933 571.58845209 532.88274477 571.59672104 531.04969788 571.60533142 C525.02379339 571.63154883 518.99788195 571.64685715 512.97193909 571.66111755 C510.89835417 571.66647704 508.82476929 571.67185455 506.75118446 571.67724991 C498.12725648 571.69887675 489.50333037 571.71761448 480.87938213 571.7288723 C468.5147891 571.74511893 456.15050994 571.77831637 443.78603524 571.83527315 C435.09465772 571.8739472 426.40336424 571.89350189 417.71190292 571.89879286 C412.51930683 571.90244932 407.32704553 571.91450221 402.13454247 571.9468956 C397.24989187 571.97693212 392.36577942 571.98330383 387.48105621 571.97151184 C385.68877725 571.97129075 383.89647362 571.97962538 382.10428047 571.99716568 C379.65580565 572.01982391 377.2092879 572.01157956 374.76080322 571.99568176 C374.0527193 572.00956385 373.34463538 572.02344594 372.61509436 572.03774869 C367.00935664 571.94815788 364.76428904 570.209109 360.96022034 566.38768005 C358.41082723 562.56359039 358.68778295 559.48482156 358.7197113 555.05450439 C358.71714803 553.76434049 358.71714803 553.76434049 358.71453297 552.44811267 C358.7112289 549.55524473 358.72225686 546.66260683 358.73316956 543.76976013 C358.73373347 541.70037847 358.73341749 539.63099641 358.73228455 537.56161499 C358.73170927 531.9338381 358.74349192 526.30614597 358.75743246 520.67838883 C358.76991065 514.80070309 358.77110802 508.92301555 358.77348328 503.0453186 C358.77970662 491.91061959 358.79612899 480.77595972 358.81618226 469.64127797 C358.84268815 454.5981216 358.85350699 439.55495457 358.86518669 424.51178074 C358.88400898 400.80371784 358.92384899 377.09573755 358.96022034 353.38768005 C305.83022034 353.38768005 252.70022034 353.38768005 197.96022034 353.38768005 C198.00662659 368.40525818 198.05303284 383.4228363 198.10084534 398.89549255 C198.12127641 408.39289112 198.14069703 417.89027383 198.15553284 427.38768005 C198.17928489 442.47204516 198.20723608 457.55632102 198.26197815 472.64060974 C198.30182419 483.62549432 198.32764803 494.61030662 198.33657432 505.59526145 C198.3417928 511.41271591 198.35407307 517.2299636 198.38314056 523.04735184 C198.41027419 528.5220224 198.41866939 533.99640086 198.41265106 539.47113228 C198.41375221 541.48109969 198.42171816 543.4910768 198.43704224 545.5009861 C198.45693789 548.24491833 198.452161 550.98774705 198.4412384 553.73170471 C198.45288977 554.52743586 198.46454113 555.323167 198.47654557 556.14301121 C198.42089565 561.31360386 197.51158597 564.37959918 193.96022034 568.38768005 C189.38094176 571.47814178 185.21775083 571.81898925 179.83815002 571.77536011 C179.03688061 571.78074565 178.23561119 571.78613118 177.41006088 571.79167992 C174.73391465 571.80595015 172.05826371 571.79885819 169.38209534 571.79173279 C167.45993147 571.79743679 165.53777099 571.80440117 163.61561584 571.81253052 C158.4008097 571.83047227 153.18617173 571.82929177 147.97134399 571.82358813 C143.61730105 571.82049819 139.2632905 571.82658648 134.90925217 571.83262688 C124.63845374 571.84667344 114.36773849 571.84510931 104.09693909 571.83372498 C93.50067132 571.82223945 82.90465652 571.83632651 72.30842209 571.86312145 C63.20932609 571.88526913 54.11030955 571.89191805 45.01118851 571.88604504 C39.57726737 571.88267254 34.14350846 571.88511021 28.70960999 571.90229607 C23.60087294 571.91774854 18.49251119 571.91382842 13.38378906 571.89499092 C11.50928825 571.89130055 9.63475974 571.89442652 7.76028442 571.90487671 C5.20051934 571.91805764 2.64200202 571.90656552 0.08229065 571.8888855 C-1.0292935 571.90329301 -1.0292935 571.90329301 -2.16333389 571.91799158 C-7.25754676 571.84563747 -10.20946841 570.73746993 -14.03977966 567.38768005 C-17.3411405 562.240814 -17.46595862 557.95454314 -17.4200964 552.04536438 C-17.42475632 551.10825662 -17.42941624 550.17114886 -17.43421736 549.20564389 C-17.44620373 546.05377884 -17.43675774 542.90234196 -17.42745972 539.75047302 C-17.43163102 537.47267837 -17.43710741 535.19488579 -17.44377953 532.91709709 C-17.45827931 526.64852693 -17.45397525 520.38008774 -17.44661272 514.11151028 C-17.44237894 508.04840396 -17.45218257 501.9853348 -17.46152034 495.92223698 C-17.48119945 482.75417135 -17.48353232 469.58614506 -17.47832514 456.41806823 C-17.47377044 444.89456677 -17.47436405 433.37108091 -17.48016548 421.84757996 C-17.48092234 420.3026768 -17.48167832 418.75777364 -17.48243343 417.21287048 C-17.4835786 414.88493684 -17.48472848 412.55700321 -17.48589267 410.22906958 C-17.4965996 388.58277065 -17.50132087 366.93647692 -17.49342251 345.29017639 C-17.49312533 344.47398493 -17.49282816 343.65779348 -17.49252198 342.81686895 C-17.49007297 336.18852796 -17.48746142 329.56018703 -17.48483785 322.93184611 C-17.47473344 297.07139631 -17.48309372 271.21101143 -17.5063324 245.35057068 C-17.53239083 216.30516489 -17.54525685 187.25979818 -17.53814465 158.21438026 C-17.53742857 155.1188469 -17.53675418 152.02331353 -17.5361042 148.92778015 C-17.53593439 148.16556463 -17.53576458 147.4033491 -17.53558963 146.61803614 C-17.53328449 135.10094872 -17.54127378 123.58389753 -17.55439568 112.06681824 C-17.56928713 98.97314464 -17.57017662 85.87955611 -17.55232476 72.78588438 C-17.54358723 66.10165974 -17.54174379 59.41761786 -17.55697632 52.73339081 C-17.57073721 46.61941195 -17.56617153 40.5057363 -17.54673708 34.39177537 C-17.54295025 32.17517444 -17.54597543 29.95854972 -17.55634873 27.74196982 C-17.56941344 24.73760854 -17.55802902 21.73431022 -17.54035091 18.72999573 C-17.55000143 17.86187421 -17.55965194 16.99375269 -17.56959489 16.09932446 C-17.50421227 10.71751938 -16.60400058 7.66602557 -13.03977966 3.38768005 C-8.96762832 0.03436778 -5.07782269 -0.04080704 0 0 Z " fill="#093F5C" transform="translate(246.03977966308594,222.61231994628906)"/>
<path d="M0 0 C0.80449854 -0.00538554 1.60899709 -0.01077108 2.43787438 -0.01631981 C5.13094457 -0.03061601 7.82352439 -0.02349164 10.51661682 -0.01637268 C12.44848526 -0.02207538 14.38035034 -0.02903925 16.31221008 -0.03717041 C21.55806584 -0.05512794 26.80375456 -0.05392855 32.04963183 -0.04822803 C36.42847783 -0.04513995 40.80729156 -0.05122438 45.18613297 -0.05726677 C55.51588529 -0.0713189 65.84555493 -0.06974496 76.17530823 -0.05836487 C86.83347067 -0.04688248 97.49138152 -0.06095987 108.1495108 -0.08776134 C117.29954153 -0.10990935 126.44949324 -0.11655776 135.59954888 -0.11068493 C141.06478369 -0.10731207 146.52985721 -0.10975238 151.9950695 -0.12693596 C157.13416123 -0.14238863 162.27287989 -0.13846806 167.41195679 -0.11963081 C169.29774465 -0.11594031 171.18356006 -0.1190668 173.06932259 -0.1295166 C175.64446536 -0.14269678 178.21836766 -0.13120595 180.79345703 -0.11352539 C181.5390862 -0.1231304 182.28471537 -0.1327354 183.05293936 -0.14263147 C188.1597086 -0.07052686 191.08395184 1.08465795 194.96022034 4.38768005 C198.38956423 8.5173531 198.37909809 12.53961631 198.32098389 17.69561768 C198.32354716 18.52885093 198.32611044 19.36208418 198.32875139 20.22056693 C198.33369001 23.01059946 198.31719507 25.80009001 198.30079651 28.59007263 C198.29995025 30.59078458 198.30042535 32.59149746 198.30212402 34.59220886 C198.30298546 40.02363925 198.28533554 45.45487125 198.26440215 50.8862555 C198.24566018 56.56239459 198.24388686 62.23853812 198.24032593 67.91470337 C198.23099819 78.66332684 198.20637448 89.41185887 198.17627746 100.16044205 C198.13648939 114.68499548 198.12028447 129.20957388 198.10277081 143.73416805 C198.07455396 166.61874056 198.01478919 189.50312009 197.96022034 212.38768005 C250.76022034 212.38768005 303.56022034 212.38768005 357.96022034 212.38768005 C357.96022034 146.05768005 357.96022034 79.72768005 357.96022034 11.38768005 C358.29022034 11.38768005 358.62022034 11.38768005 358.96022034 11.38768005 C358.96022034 78.04768005 358.96022034 144.70768005 358.96022034 213.38768005 C305.83022034 213.38768005 252.70022034 213.38768005 197.96022034 213.38768005 C198.00662659 238.51150818 198.05303284 263.6353363 198.10084534 289.52049255 C198.12127356 305.39809781 198.14071825 321.27569503 198.15553284 337.15330505 C198.16336455 345.491196 198.17144654 353.82908664 198.1799469 362.16697693 C198.18100189 363.21202275 198.18205689 364.25706856 198.18314385 365.33378243 C198.20054999 382.2141674 198.23209015 399.09449798 198.26883152 415.97485067 C198.3062129 433.2934463 198.32845026 450.61201341 198.33657432 467.93064773 C198.3420679 478.62066219 198.35943058 489.31052296 198.3918862 500.00049011 C198.41299949 507.32698687 198.41942761 514.65340395 198.41422585 521.97992893 C198.4116591 526.20953425 198.4156454 530.43887068 198.43704224 534.66842842 C198.45648519 538.53997029 198.45750529 542.41106202 198.44381592 546.28262447 C198.44212363 547.68380771 198.44721725 549.08501887 198.45975307 550.48614706 C198.55888336 562.24912053 198.55888336 562.24912053 196.30515671 566.07336235 C191.96219222 570.35961921 188.18474495 571.71905362 182.08377457 571.79357237 C180.97219042 571.7845573 180.97219042 571.7845573 179.83815002 571.77536011 C179.03688061 571.78074565 178.23561119 571.78613118 177.41006088 571.79167992 C174.73391465 571.80595015 172.05826371 571.79885819 169.38209534 571.79173279 C167.45993147 571.79743679 165.53777099 571.80440117 163.61561584 571.81253052 C158.4008097 571.83047227 153.18617173 571.82929177 147.97134399 571.82358813 C143.61730105 571.82049819 139.2632905 571.82658648 134.90925217 571.83262688 C124.63845374 571.84667344 114.36773849 571.84510931 104.09693909 571.83372498 C93.50067132 571.82223945 82.90465652 571.83632651 72.30842209 571.86312145 C63.20932609 571.88526913 54.11030955 571.89191805 45.01118851 571.88604504 C39.57726737 571.88267254 34.14350846 571.88511021 28.70960999 571.90229607 C23.60087294 571.91774854 18.49251119 571.91382842 13.38378906 571.89499092 C11.50928825 571.89130055 9.63475974 571.89442652 7.76028442 571.90487671 C5.20051934 571.91805764 2.64200202 571.90656552 0.08229065 571.8888855 C-1.0292935 571.90329301 -1.0292935 571.90329301 -2.16333389 571.91799158 C-7.25754676 571.84563747 -10.20946841 570.73746993 -14.03977966 567.38768005 C-17.3411405 562.240814 -17.46595862 557.95454314 -17.4200964 552.04536438 C-17.42475632 551.10825662 -17.42941624 550.17114886 -17.43421736 549.20564389 C-17.44620373 546.05377884 -17.43675774 542.90234196 -17.42745972 539.75047302 C-17.43163102 537.47267837 -17.43710741 535.19488579 -17.44377953 532.91709709 C-17.45827931 526.64852693 -17.45397525 520.38008774 -17.44661272 514.11151028 C-17.44237894 508.04840396 -17.45218257 501.9853348 -17.46152034 495.92223698 C-17.48119945 482.75417135 -17.48353232 469.58614506 -17.47832514 456.41806823 C-17.47377044 444.89456677 -17.47436405 433.37108091 -17.48016548 421.84757996 C-17.48092234 420.3026768 -17.48167832 418.75777364 -17.48243343 417.21287048 C-17.4835786 414.88493684 -17.48472848 412.55700321 -17.48589267 410.22906958 C-17.4965996 388.58277065 -17.50132087 366.93647692 -17.49342251 345.29017639 C-17.49312533 344.47398493 -17.49282816 343.65779348 -17.49252198 342.81686895 C-17.49007297 336.18852796 -17.48746142 329.56018703 -17.48483785 322.93184611 C-17.47473344 297.07139631 -17.48309372 271.21101143 -17.5063324 245.35057068 C-17.53239083 216.30516489 -17.54525685 187.25979818 -17.53814465 158.21438026 C-17.53742857 155.1188469 -17.53675418 152.02331353 -17.5361042 148.92778015 C-17.53593439 148.16556463 -17.53576458 147.4033491 -17.53558963 146.61803614 C-17.53328449 135.10094872 -17.54127378 123.58389753 -17.55439568 112.06681824 C-17.56928713 98.97314464 -17.57017662 85.87955611 -17.55232476 72.78588438 C-17.54358723 66.10165974 -17.54174379 59.41761786 -17.55697632 52.73339081 C-17.57073721 46.61941195 -17.56617153 40.5057363 -17.54673708 34.39177537 C-17.54295025 32.17517444 -17.54597543 29.95854972 -17.55634873 27.74196982 C-17.56941344 24.73760854 -17.55802902 21.73431022 -17.54035091 18.72999573 C-17.55000143 17.86187421 -17.55965194 16.99375269 -17.56959489 16.09932446 C-17.50421227 10.71751938 -16.60400058 7.66602557 -13.03977966 3.38768005 C-8.96762832 0.03436778 -5.07782269 -0.04080704 0 0 Z " fill="#DE7329" transform="translate(246.03977966308594,222.61231994628906)"/>
<path d="M0 0 C0.33 0.99 0.66 1.98 1 3 C-1.32367478 5.95782238 -2.49209707 6.92360053 -6.27208328 7.49219131 C-8.23550234 7.48666056 -8.23550234 7.48666056 -10.23858643 7.48101807 C-11.33402146 7.48614462 -11.33402146 7.48614462 -12.45158648 7.49137473 C-14.89943836 7.49796509 -17.34619442 7.47595973 -19.79394531 7.45410156 C-21.54820734 7.45297333 -23.30247125 7.45360647 -25.05673218 7.45587158 C-29.82097125 7.4570206 -34.5848086 7.4334809 -39.3489542 7.40557575 C-44.32707757 7.3805934 -49.30520985 7.3782226 -54.28338623 7.37347412 C-63.71107247 7.36103503 -73.13857347 7.32820077 -82.56617808 7.28807616 C-93.29880954 7.24338751 -104.03144978 7.22137872 -114.7641511 7.20129442 C-136.84287084 7.15946898 -158.92142376 7.08909876 -181 7 C-181 6.67 -181 6.34 -181 6 C-122.59 6 -64.18 6 -4 6 C-4 5.01 -4 4.02 -4 3 C-2.68 2.67 -1.36 2.34 0 2 C0 1.34 0 0.68 0 0 Z " fill="#094769" transform="translate(805,785)"/>
<path d="M0 0 C42.9 0 85.8 0 130 0 C130 0.33 130 0.66 130 1 C123.3800812 1.31136127 116.75979027 1.61357558 110.13916016 1.90942383 C107.88678524 2.0111555 105.634504 2.11498346 103.38232422 2.22094727 C100.1457312 2.37286316 96.9088766 2.51724571 93.671875 2.66015625 C92.16074127 2.73351952 92.16074127 2.73351952 90.61907959 2.80836487 C89.20806976 2.86854042 89.20806976 2.86854042 87.76855469 2.92993164 C86.94248718 2.96768204 86.11641968 3.00543243 85.26531982 3.04432678 C83 3 83 3 81.18359375 2.51147461 C77.90892104 1.74443086 74.63820522 1.86987502 71.29394531 1.88647461 C70.52282913 1.88632858 69.75171295 1.88618256 68.95722961 1.8860321 C66.4141659 1.88672751 63.87117588 1.89450251 61.328125 1.90234375 C59.56264282 1.90420925 57.79716013 1.90563253 56.03167725 1.90663147 C51.38908454 1.91044625 46.7465232 1.92026768 42.10394287 1.93133545 C37.36487248 1.9415719 32.62579701 1.94613388 27.88671875 1.95117188 C18.59113206 1.96189087 9.29556864 1.97895483 0 2 C0 1.34 0 0.68 0 0 Z " fill="#09486F" transform="translate(475,437)"/>
<path d="M0 0 C2 3 2 3 2 5 C3.65 5 5.3 5 7 5 C7 5.33 7 5.66 7 6 C-13.46 6 -33.92 6 -55 6 C-55 5.67 -55 5.34 -55 5 C-37.51 4.67 -20.02 4.34 -2 4 C-1.34 2.68 -0.68 1.36 0 0 Z " fill="#E27833" transform="translate(303,787)"/>
</svg>