<?xml version="1.0" encoding="UTF-8" standalone="no"?>
<!-- Created with Inkscape (http://www.inkscape.org/) -->

<svg
   width="88.688057mm"
   height="74.111107mm"
   viewBox="0 0 88.688057 74.111107"
   version="1.1"
   id="svg20572"
   xml:space="preserve"
   inkscape:version="1.2.2 (b0a8486541, 2022-12-01)"
   sodipodi:docname="logo-3.svg"
   inkscape:export-filename="../jpg/logo-3.jpg"
   inkscape:export-xdpi="96"
   inkscape:export-ydpi="96"
   xmlns:inkscape="http://www.inkscape.org/namespaces/inkscape"
   xmlns:sodipodi="http://sodipodi.sourceforge.net/DTD/sodipodi-0.dtd"
   xmlns="http://www.w3.org/2000/svg"
   xmlns:svg="http://www.w3.org/2000/svg"><sodipodi:namedview
     id="namedview20574"
     pagecolor="#ffffff"
     bordercolor="#000000"
     borderopacity="0.25"
     inkscape:showpageshadow="2"
     inkscape:pageopacity="0.0"
     inkscape:pagecheckerboard="0"
     inkscape:deskcolor="#d1d1d1"
     inkscape:document-units="mm"
     showgrid="false"
     inkscape:zoom="0.84596234"
     inkscape:cx="311.47959"
     inkscape:cy="180.85911"
     inkscape:window-width="1536"
     inkscape:window-height="795"
     inkscape:window-x="0"
     inkscape:window-y="0"
     inkscape:window-maximized="1"
     inkscape:current-layer="g21830"
     showborder="true" /><defs
     id="defs20569"><inkscape:perspective
       sodipodi:type="inkscape:persp3d"
       inkscape:vp_x="0 : -74.388895 : 1"
       inkscape:vp_y="0 : 999.99994 : 0"
       inkscape:vp_z="210.00001 : -74.388895 : 1"
       inkscape:persp3d-origin="105.00001 : -123.88889 : 1"
       id="perspective39605" /></defs><g
     inkscape:label="Layer 1"
     inkscape:groupmode="layer"
     id="layer1"
     transform="translate(-60.655982,-83.559682)"><g
       id="g21830"
       transform="translate(3.0225339,-43.688688)"><path
         style="fill:none;stroke-width:0.264583"
         d="m 80.017049,153.17754 v -25.92917 h 21.960411 21.96042 v 25.92917 25.92916 H 101.97746 80.017049 Z m 12.303125,17.72708 v -7.27604 l -5.754687,-0.0713 -5.754688,-0.0713 v 7.2371 c 0,3.98041 0.08168,7.31878 0.181508,7.41861 0.09983,0.0998 2.689438,0.14944 5.754687,0.11025 l 5.57318,-0.0713 z M 123.6733,163.09941 V 147.88587 H 108.06631 92.459323 l -0.06958,-9.19427 -0.06957,-9.19428 h -5.688541 -5.688541 v 14.94896 14.94896 l 15.544271,0.0683 15.544268,0.0683 v 9.2142 c 0,5.06781 0.0794,9.29358 0.17639,9.39059 0.097,0.097 2.71639,0.17639 5.82084,0.17639 h 5.64444 z m -0.062,-26.2599 -0.0703,-7.34219 -5.15938,-0.0751 c -2.83765,-0.0413 -5.42726,-0.009 -5.75469,0.0712 l -0.59531,0.14626 v 7.271 7.271 h 5.82502 5.82502 z"
         id="path21846" /><path
         style="fill:#f5d2a4;stroke-width:0.264583"
         d="m 80.992307,178.14168 c -0.248165,-0.24816 -0.231522,-14.64535 0.01693,-14.64556 0.10914,-1e-4 0.164993,3.27412 0.124116,7.27604 l -0.07432,7.27621 h 5.5726 5.572601 l -0.07432,-7.26315 c -0.04088,-3.99474 0.01696,-7.17172 0.128529,-7.05997 0.111568,0.11176 0.171099,3.40994 0.132292,7.3293 l -0.07056,7.12611 -5.57318,0.0713 c -3.065249,0.0392 -5.654858,-0.0104 -5.754687,-0.11025 z m 31.039323,-41.20771 c 0,-6.36491 0.051,-7.2673 0.41852,-7.40834 0.60701,-0.23293 10.90439,-0.19767 11.05016,0.0378 0.0676,0.10914 -2.39596,0.19844 -5.47449,0.19844 h -5.59731 v 7.20999 c 0,3.96549 -0.0893,7.20994 -0.19844,7.20989 -0.10914,-5e-5 -0.19844,-3.26157 -0.19844,-7.24782 z m -25.399998,-7.30435 -5.688541,-0.14822 5.606781,-0.0582 c 3.516631,-0.0365 5.66774,0.0404 5.770302,0.2064 0.08994,0.14552 0.126729,0.2384 0.08176,0.2064 -0.04497,-0.032 -2.641605,-0.12488 -5.770303,-0.2064 z"
         id="path21844" /><path
         style="fill:#aba9aa;stroke-width:0.264583"
         d="m 112.19223,177.89444 c -0.0883,-0.23018 -0.1606,-4.45595 -0.1606,-9.39059 v -8.97208 l -15.544268,-0.0683 -15.544271,-0.0683 -0.0033,-14.88284 -0.0033,-14.88284 0.07168,14.8167 0.07168,14.81669 H 96.68468 112.2895 l 0.0695,9.32657 0.0695,9.32656 h 5.62253 c 3.09239,0 5.62247,0.0893 5.62239,0.19844 -7e-5,0.10914 -2.54724,0.19843 -5.66037,0.19843 -4.91731,0 -5.68131,-0.0549 -5.82083,-0.41851 z m -19.941792,-38.93826 0.06256,-9.19427 0.07321,9.05988 0.07321,9.05988 15.673092,0.0704 15.67309,0.0704 -15.80885,0.064 -15.808857,0.064 z"
         id="path21842" /><path
         style="fill:#ebaa5d;stroke-width:0.264583"
         d="m 86.433195,177.85023 5.490104,-0.0772 v -7.01651 -7.0165 l -5.411258,0.0766 c -2.976192,0.0421 -5.319135,-0.0153 -5.206541,-0.12763 0.112595,-0.1123 2.577426,-0.17183 5.477404,-0.13229 l 5.272687,0.0719 0.0704,7.20989 0.0704,7.2099 -5.626648,-0.0605 -5.626648,-0.0605 z m 25.984485,-33.99822 c -0.0719,-0.18725 -0.0988,-3.43413 -0.0599,-7.21528 l 0.0707,-6.87482 h 5.55625 5.55625 v 7.14375 7.14375 l -5.49634,0.0715 c -4.28903,0.0558 -5.52504,-0.003 -5.62699,-0.26893 z m 10.92928,-7.0125 0.0705,-6.94531 h -5.42835 -5.42835 v 7.01694 7.01693 l 5.35781,-0.0716 5.35781,-0.0716 z"
         id="path21840" /><path
         style="fill:#f2c864;fill-opacity:1;stroke-width:0.264583"
         d="m 81.137135,170.83847 0.07054,-6.94531 5.357813,-0.0716 5.357812,-0.0716 v 7.01694 7.01694 H 86.494948 81.066596 Z M 112.5608,136.91114 v -7.01694 h 5.42835 5.42835 l -0.0705,6.94531 -0.0705,6.94532 -5.35781,0.0716 -5.35781,0.0716 z"
         id="path21838" /><path
         style="fill:#5b5a5a;stroke-width:0.264583"
         d="m 112.41872,177.7214 c -0.0713,-0.18576 -0.0966,-4.44467 -0.0563,-9.46424 l 0.0733,-9.1265 0.0626,9.32656 0.0626,9.32657 h 5.42175 5.42176 l 0.0717,-14.88282 0.0717,-14.88281 -0.003,14.94896 -0.003,14.94896 -5.49634,0.0715 c -4.26652,0.0555 -5.52534,-0.004 -5.62594,-0.26621 z m -20.495421,-38.826 v -8.99046 l -5.490104,-0.0772 -5.490104,-0.0772 5.622396,-0.0605 5.622396,-0.0605 v 9.12812 c 0,5.02047 -0.05953,9.12813 -0.132292,9.12813 -0.07276,0 -0.132292,-4.04571 -0.132292,-8.99047 z"
         id="path21836" /><path
         style="fill:#403e3f;stroke-width:0.264583"
         d="m 123.26785,162.96712 c 0,-8.22193 0.0335,-11.58545 0.0745,-7.47448 0.041,4.11096 0.041,10.838 0,14.94896 -0.041,4.11096 -0.0745,0.74745 -0.0745,-7.47448 z m -42.016079,-3.88056 c -0.09701,-0.097 -0.176389,-6.70498 -0.176389,-14.68437 V 129.8942 l 5.490105,0.0603 5.490104,0.0603 -5.357813,0.0774 -5.357812,0.0774 v 14.41222 14.41221 l 15.676562,0.0704 15.676562,0.0704 -15.632464,0.064 c -8.597856,0.0352 -15.711841,-0.0154 -15.808855,-0.11238 z"
         id="path21834" /><path
         style="fill:#87bbd7;fill-opacity:1;stroke-width:0;stroke:none;stroke-opacity:1;stroke-dasharray:none"
         d="m 112.5608,168.39108 v -9.39271 H 96.950383 81.339966 v -14.41979 -14.4198 h 5.298287 5.298286 l -0.0134,8.66511 c -0.0074,4.7658 -0.01035,8.81393 -0.0066,8.99583 0.0053,0.26077 3.308865,0.33073 15.617201,0.33073 h 15.61041 v 14.81667 14.81667 h -5.29166 -5.29167 z"
         id="path21832" /><text
         xml:space="preserve"
         style="font-style:normal;font-variant:normal;font-weight:normal;font-stretch:normal;font-size:7.05556px;font-family:Garet;-inkscape-font-specification:Garet;fill:#000000;stroke:#000000;stroke-width:0.79375"
         x="101.55943"
         y="191.08282"
         id="text31769"><tspan
           sodipodi:role="line"
           id="tspan31767"
           style="font-size:10.5833px;text-align:center;text-anchor:middle;fill:#f2c864;fill-opacity:1;stroke:#f2c864;stroke-width:0.79375;stroke-opacity:1"
           x="101.55943"
           y="191.08282">HANDEL GLOBAL</tspan><tspan
           sodipodi:role="line"
           style="text-align:center;text-anchor:middle;fill:#f2c864;fill-opacity:1;stroke:none;stroke-width:0.79375"
           x="101.55943"
           y="201.26775"
           id="tspan31771">CONSULTS</tspan></text></g></g></svg>
