<?xml version="1.0" encoding="UTF-8"?>
<svg version="1.1" xmlns="http://www.w3.org/2000/svg" width="1080" height="1080">
<path d="M0 0 C0.81345886 -0.00700928 1.62691772 -0.01401855 2.46502686 -0.02124023 C5.15151192 -0.03883246 7.8369419 -0.02719351 10.5234375 -0.01367188 C12.39144086 -0.01636645 14.25944285 -0.02024857 16.12744141 -0.02526855 C20.04147705 -0.03116525 23.95514745 -0.02259515 27.86914062 -0.00390625 C32.88653639 0.01888345 37.90307631 0.00576128 42.92044067 -0.01819611 C46.77749074 -0.03264946 50.63433787 -0.02805023 54.49139404 -0.01768494 C56.34137066 -0.01501637 58.19136569 -0.01829198 60.0413208 -0.02760315 C62.62700207 -0.03776125 65.21129701 -0.02227898 67.796875 0 C68.56167175 -0.00809692 69.32646851 -0.01619385 70.11444092 -0.02453613 C73.37575109 0.02753028 75.57068961 0.31778422 78.37640381 2.02813721 C80.5420517 5.57027462 80.42583786 8.84078255 80.35253906 12.86621094 C80.35312317 13.70560211 80.35370728 14.54499329 80.35430908 15.40982056 C80.35152536 18.18053741 80.32042027 20.95017453 80.2890625 23.72070312 C80.28160112 25.64312146 80.2759077 27.56554741 80.27191162 29.48797607 C80.25664717 34.54505452 80.21735825 39.60167263 80.1730957 44.65856934 C80.12496203 50.72746263 80.10661286 56.79650995 80.08328247 62.86553955 C80.04450784 72.0832058 79.96785963 81.29986221 79.8984375 90.51757812 C101.6784375 90.51757812 123.4584375 90.51757812 145.8984375 90.51757812 C145.87523437 84.42804688 145.85203125 78.33851563 145.828125 72.06445312 C145.81790718 68.20898012 145.80827933 64.35352378 145.80078125 60.49804688 C145.78882093 54.37708066 145.77466446 48.25617423 145.74755859 42.13525391 C145.72584431 37.20101516 145.71387183 32.26684051 145.70868301 27.33255768 C145.70498472 25.44907878 145.69776299 23.56560344 145.68697739 21.68215179 C145.67248132 19.0461618 145.67045877 16.41043743 145.67138672 13.77441406 C145.66419617 12.99398239 145.65700562 12.21355072 145.64959717 11.4094696 C145.67615912 4.4465904 145.67615912 4.4465904 147.8984375 1.51757812 C151.46410383 0.32902268 154.71559017 0.35440712 158.42749023 0.34057617 C159.19203522 0.33400497 159.9565802 0.32743378 160.74429321 0.32066345 C163.27354023 0.3009568 165.80272804 0.2892758 168.33203125 0.27929688 C169.19585985 0.27522135 170.05968845 0.27114582 170.94969368 0.26694679 C175.51895025 0.2461006 180.08817689 0.23179074 184.6574707 0.22241211 C189.37998739 0.21133069 194.10203508 0.17690698 198.82438564 0.13724041 C202.45405465 0.11112382 206.08361084 0.10272487 209.71336555 0.09913063 C211.4545211 0.0942544 213.19567126 0.082611 214.93673515 0.06409264 C217.37153507 0.03979839 219.80510676 0.0406475 222.23999023 0.04760742 C222.95960434 0.03479736 223.67921844 0.0219873 224.42063904 0.00878906 C227.47603408 0.04065075 229.51325231 0.26213493 232.08378124 1.96683216 C234.80669841 5.79426226 234.44584892 9.22615527 234.39291382 13.81726074 C234.39774265 14.76932388 234.40257148 15.72138701 234.40754664 16.70230055 C234.41884157 19.90076897 234.40147991 23.09844216 234.38427734 26.296875 C234.38642261 28.58651445 234.39029941 30.87615285 234.39578247 33.16578674 C234.40549161 39.39093339 234.3901527 45.61579407 234.36987638 51.84090614 C234.3523344 58.3479951 234.35582991 64.85507484 234.3565979 71.36218262 C234.3547237 82.29082115 234.33745145 93.21934662 234.31005859 104.14794922 C234.28188362 115.39438895 234.26771705 126.64073152 234.26904297 137.88720703 C234.26916284 138.92619323 234.26916284 138.92619323 234.26928513 139.98616904 C234.26936584 140.67762403 234.26944655 141.36907901 234.2695297 142.08148718 C234.27083938 154.23281575 234.26054553 166.38409732 234.24394608 178.53541565 C234.23687561 183.71236989 234.23321889 188.88931009 234.23215866 194.06626892 C234.23015271 200.15981956 234.21796691 206.25326775 234.19782639 212.34678459 C234.19197415 214.5865561 234.1895261 216.82633939 234.19068146 219.06611824 C234.19165979 222.11682034 234.18038192 225.16723357 234.16586304 228.21789551 C234.16896024 229.11010662 234.17205745 230.00231772 234.1752485 230.92156553 C234.16557517 232.14725838 234.16557517 232.14725838 234.15570641 233.39771271 C234.15429756 234.10182423 234.15288871 234.80593575 234.15143716 235.53138399 C233.85015746 237.89660447 233.14317253 239.49150249 231.8984375 241.51757812 C228.88907342 243.02226017 225.7841591 242.67362247 222.48291016 242.67871094 C221.7185112 242.68367584 220.95411224 242.68864075 220.16654968 242.6937561 C217.63185738 242.70838925 215.09722765 242.71518158 212.5625 242.72070312 C210.80374143 242.72645357 209.04498289 242.73221132 207.28622437 242.73797607 C203.59576118 242.7484893 199.90531981 242.75432988 196.21484375 242.7578125 C191.48453703 242.76329833 186.75451799 242.7873268 182.02430153 242.81578445 C178.39034176 242.83440237 174.75645141 242.83961598 171.12244797 242.84114838 C169.37851768 242.84417729 167.63458868 242.85221385 165.89070511 242.86533356 C163.451165 242.88237684 161.0123293 242.88051826 158.57275391 242.87402344 C157.85156876 242.88323822 157.13038361 242.892453 156.38734436 242.90194702 C153.49521072 242.87781081 151.13712863 242.61401531 148.44717407 241.52720642 C145.97672771 238.32157481 146.37646276 234.88390763 146.44433594 231.00708008 C146.44375183 230.13857422 146.44316772 229.27006836 146.44256592 228.37524414 C146.44535485 225.50171068 146.47648478 222.62921183 146.5078125 219.75585938 C146.51527202 217.76475084 146.52096631 215.77363497 146.52496338 213.78251648 C146.54024246 208.53966025 146.57954399 203.29724666 146.6237793 198.05456543 C146.67187338 191.76543068 146.69025517 185.476148 146.71359253 179.18688202 C146.75239349 169.63013945 146.82903172 160.07436826 146.8984375 150.51757812 C124.7884375 150.51757812 102.6784375 150.51757812 79.8984375 150.51757812 C79.94484375 156.82367187 79.99125 163.12976563 80.0390625 169.62695312 C80.0594978 173.61915706 80.07875333 177.61129662 80.09375 181.60351562 C80.11767255 187.9418678 80.14598949 194.27998911 80.20019531 200.61816406 C80.24361878 205.72748598 80.26756743 210.83656037 80.27794647 215.94605255 C80.28534411 217.89654691 80.29978983 219.84702755 80.32135773 221.79741669 C80.35034522 224.5270274 80.35439546 227.25561199 80.35253906 229.98535156 C80.36692017 230.79383545 80.38130127 231.60231934 80.39611816 232.43530273 C80.37127484 235.80553132 80.14343938 238.11442355 78.37739563 241.02047729 C74.89896294 243.1211842 71.72521834 243.06126103 67.78100586 243.00341797 C66.9659407 243.00721466 66.15087555 243.01101135 65.31111145 243.0149231 C62.61977531 243.02232635 59.92952126 243.00095165 57.23828125 242.97851562 C55.36788561 242.97613117 53.49748754 242.97522588 51.62709045 242.97573853 C47.70884184 242.97261102 43.79095927 242.95604825 39.87280273 242.92919922 C34.84653606 242.895196 29.82067117 242.88757133 24.79430294 242.88908958 C20.93303074 242.88854618 17.07184664 242.87758419 13.21060371 242.8630867 C11.35701731 242.85671616 9.50342091 242.85277921 7.64982414 242.85129929 C5.06186734 242.84697032 2.47433947 242.82947888 -0.11352539 242.80810547 C-1.26611343 242.80946503 -1.26611343 242.80946503 -2.44198608 242.81085205 C-6.19994336 242.76539213 -7.89492066 242.65533935 -11.1015625 240.51757812 C-12.4507385 236.47005012 -12.24960294 232.55936687 -12.24873352 228.33815002 C-12.25241021 227.38694131 -12.2560869 226.4357326 -12.259875 225.45569938 C-12.27092675 222.2543964 -12.27475816 219.05312586 -12.27856445 215.85180664 C-12.28482781 213.56231584 -12.29147449 211.27282606 -12.29847717 208.9833374 C-12.31589486 202.75410983 -12.32644032 196.52488994 -12.3346827 190.29564404 C-12.33982958 186.4071923 -12.34590535 182.51874295 -12.35219383 178.63029289 C-12.3690617 167.86691427 -12.38369822 157.10353935 -12.39094257 146.34014988 C-12.39285248 143.54764873 -12.39477282 140.7551476 -12.39672852 137.96264648 C-12.39721226 137.26857899 -12.397696 136.57451149 -12.3981944 135.85941165 C-12.40650091 124.60726452 -12.4318499 113.35522348 -12.46430919 102.10312272 C-12.49735345 90.55427472 -12.51505581 79.00549666 -12.51858681 67.45659965 C-12.52094277 60.97081314 -12.52997445 54.48519445 -12.55504799 47.99945259 C-12.57824092 41.90177448 -12.58259736 35.80437574 -12.57228661 29.70666504 C-12.57178905 27.46526602 -12.57817378 25.22385365 -12.59184265 22.98249626 C-12.60942497 19.92932126 -12.60252281 16.87716391 -12.58930969 13.82398987 C-12.60027894 12.93109664 -12.61124818 12.03820341 -12.62254983 11.11825281 C-12.5600921 5.1661313 -12.5600921 5.1661313 -10.29876995 1.9676733 C-7.01312298 -0.20076138 -3.80566205 -0.04029065 0 0 Z " fill="#DE742A" transform="translate(172.1015625,436.482421875)"/>
<path d="M0 0 C22 0 22 0 27.3125 4.75 C28.59124767 6.8032737 29.8212898 8.8877096 31 11 C32.32788309 12.81123254 33.68332861 14.60250936 35.0625 16.375 C36.17044922 17.86580078 36.17044922 17.86580078 37.30078125 19.38671875 C40.74650889 24.01528819 44.25100226 28.59915624 47.75 33.1875 C48.36883057 33.99944824 48.98766113 34.81139648 49.62524414 35.64794922 C56.07452006 44.10550557 62.53918284 52.5512391 69 61 C69.33 40.87 69.66 20.74 70 0 C77.59 0 85.18 0 93 0 C93 34.32 93 68.64 93 104 C73 104 73 104 67.5 99 C66.17626953 97.24194336 66.17626953 97.24194336 65.2578125 95.65234375 C63.30421249 92.44112457 61.14963132 89.47887623 58.86083984 86.49926758 C57.33414486 84.509246 55.83678083 82.4997538 54.34375 80.484375 C50.56100638 75.39644744 46.71973332 70.35366497 42.875 65.3125 C42.24255371 64.48242432 41.61010742 63.65234863 40.95849609 62.79711914 C35.65942583 55.8487999 30.3280068 48.92640883 25 42 C24.67 62.46 24.34 82.92 24 104 C16.08 104 8.16 104 0 104 C0 69.68 0 35.36 0 0 Z " fill="#DF7730" transform="translate(668,509)"/>
<path d="M0 0 C66.24330784 0 66.24330784 0 82.86328125 15.60546875 C92.83476657 26.7800949 96.98281957 39.22483426 97 54 C96.04325705 68.68165541 90.68660506 80.97194623 79.8359375 91 C56.76491486 109.91334718 29.64445221 104 0 104 C0 69.68 0 35.36 0 0 Z M24 21 C24 41.46 24 61.92 24 83 C44.45890821 84.17197851 44.45890821 84.17197851 61.875 77.1875 C68.95403253 69.90026063 72.04079968 62.27092149 72.4375 52.0625 C72.15952145 43.03977956 69.33015583 35.29093739 63.05859375 28.72265625 C51.46252752 19.0189272 38.99273066 21 24 21 Z " fill="#DF7730" transform="translate(785,509)"/>
<path d="M0 0 C26.07 0 52.14 0 79 0 C79 6.93 79 13.86 79 21 C60.52 21 42.04 21 23 21 C23 27.6 23 34.2 23 41 C39.17 41 55.34 41 72 41 C72 47.93 72 54.86 72 62 C55.83 62 39.66 62 23 62 C23 68.93 23 75.86 23 83 C24.69116943 82.99476318 26.38233887 82.98952637 28.12475586 82.98413086 C33.70072196 82.96803197 39.27668473 82.95652715 44.85266781 82.94818783 C48.23471813 82.94296025 51.6167434 82.93586489 54.9987793 82.92456055 C58.88329777 82.91165733 62.76780597 82.90677076 66.65234375 82.90234375 C67.87211411 82.89718246 69.09188446 82.89202118 70.34861755 82.88670349 C72.03024742 82.88659019 72.03024742 82.88659019 73.74584961 82.88647461 C74.73846298 82.884254 75.73107635 82.88203339 76.75376892 82.87974548 C79 83 79 83 80 84 C80 90.6 80 97.2 80 104 C53.6 104 27.2 104 0 104 C0 69.68 0 35.36 0 0 Z " fill="#DF772F" transform="translate(901,509)"/>
<path d="M0 0 C7.59 0 15.18 0 23 0 C23 13.53 23 27.06 23 41 C36.86 41 50.72 41 65 41 C65 27.47 65 13.94 65 0 C72.59 0 80.18 0 88 0 C88 34.32 88 68.64 88 104 C80.41 104 72.82 104 65 104 C65 90.47 65 76.94 65 63 C51.14 63 37.28 63 23 63 C23 76.53 23 90.06 23 104 C15.41 104 7.82 104 0 104 C0 69.68 0 35.36 0 0 Z " fill="#DE752C" transform="translate(439,509)"/>
<path d="M0 0 C6.93 0 13.86 0 21 0 C25.53401764 8.88847022 29.71385637 17.76331028 33.5 27 C34.6071764 29.67723886 35.71921557 32.35244461 36.83203125 35.02734375 C37.13941727 35.76701889 37.44680328 36.50669403 37.76350403 37.26878357 C40.76326834 44.46896479 43.82274979 51.64335412 46.88671875 58.81640625 C47.40319977 60.02589935 47.91968079 61.23539246 48.45181274 62.48153687 C50.5528297 67.40055923 52.65499683 72.31908361 54.76074219 77.23608398 C56.25267591 80.72032958 57.74176893 84.20577796 59.23046875 87.69140625 C59.68201828 88.74332657 60.13356781 89.79524689 60.59880066 90.87904358 C61.22701469 92.35152809 61.22701469 92.35152809 61.86791992 93.85375977 C62.23286057 94.70623795 62.59780121 95.55871613 62.97380066 96.43702698 C64.09907657 99.2474476 65.04267508 102.12802525 66 105 C57.75 105 49.5 105 41 105 C38.03 97.74 35.06 90.48 32 83 C17.81 83 3.62 83 -11 83 C-13.97 90.26 -16.94 97.52 -20 105 C-27.92 105 -35.84 105 -44 105 C-43.0752468 100.376234 -41.64338447 96.49805265 -39.7734375 92.22265625 C-39.43748566 91.443423 -39.10153381 90.66418976 -38.75540161 89.86134338 C-37.63289488 87.25985067 -36.50384898 84.66124617 -35.375 82.0625 C-34.17038727 79.27481263 -32.96763104 76.48632934 -31.76507568 73.69775391 C-30.90445717 71.70209284 -30.04331849 69.70665603 -29.18170166 67.71142578 C-25.68175123 59.60091657 -22.21400179 51.47688499 -18.7578125 43.34765625 C-18.49694225 42.73419657 -18.23607201 42.12073689 -17.9672966 41.48868752 C-15.6285795 35.98873816 -13.29117118 30.4882333 -10.95526123 24.98709106 C-9.50251048 21.56645196 -8.04824605 18.14645977 -6.59375 14.7265625 C-5.94021042 13.18555626 -5.94021042 13.18555626 -5.27346802 11.61341858 C-4.87062592 10.66671799 -4.46778381 9.7200174 -4.05273438 8.74462891 C-3.70287476 7.92088776 -3.35301514 7.09714661 -2.99255371 6.2484436 C-2.05993525 4.13577203 -1.03277862 2.06555723 0 0 Z M10 29 C8.14633969 33.39561715 6.29498664 37.79219589 4.44580078 42.18969727 C3.81590688 43.68671149 3.18537422 45.18345711 2.55419922 46.67993164 C1.64904908 48.82628844 0.74617228 50.97358888 -0.15625 53.12109375 C-0.44060913 53.79401962 -0.72496826 54.4669455 -1.01794434 55.16026306 C-2.40524422 57.98611589 -2.40524422 57.98611589 -3 61 C5.58 61 14.16 61 23 61 C22.15876008 56.79380038 21.11435282 53.530212 19.49609375 49.60546875 C19.00302734 48.40341797 18.50996094 47.20136719 18.00195312 45.96289062 C17.48056595 44.70438681 16.95908034 43.44592377 16.4375 42.1875 C15.91169842 40.90967423 15.38630353 39.63168104 14.86132812 38.35351562 C13.57820948 35.234007 12.29096615 32.11626734 11 29 C10.67 29 10.34 29 10 29 Z " fill="#DE772F" transform="translate(587,508)"/>
<path d="M0 0 C7.92 0 15.84 0 24 0 C24 27.39 24 54.78 24 83 C40.73915174 82.96039063 40.73915174 82.96039063 57.47827148 82.90991211 C59.56754506 82.90699314 61.65681919 82.90444454 63.74609375 82.90234375 C64.84215942 82.89722778 65.9382251 82.89211182 67.06750488 82.88684082 C68.10282349 82.88671997 69.13814209 82.88659912 70.20483398 82.88647461 C71.10862289 82.884254 72.0124118 82.88203339 72.94358826 82.87974548 C75 83 75 83 76 84 C76 90.6 76 97.2 76 104 C50.92 104 25.84 104 0 104 C0 69.68 0 35.36 0 0 Z " fill="#DF7831" transform="translate(1000,509)"/>
</svg>
