<?xml version="1.0" encoding="UTF-8" standalone="no"?>
<!-- Created with Inkscape (http://www.inkscape.org/) -->

<svg
   sodipodi:docname="Bold _H_ in orange and blue.png"
   viewBox="0 0 916.5213 243.05365"
   height="243.05365"
   width="916.5213"
   id="svg48"
   version="1.1"
   xml:space="preserve"
   inkscape:export-filename="inkscape-svgs/horizontal.svg"
   inkscape:export-xdpi="96"
   inkscape:export-ydpi="96"
   xmlns:inkscape="http://www.inkscape.org/namespaces/inkscape"
   xmlns:sodipodi="http://sodipodi.sourceforge.net/DTD/sodipodi-0.dtd"
   xmlns="http://www.w3.org/2000/svg"
   xmlns:svg="http://www.w3.org/2000/svg"><defs
     id="defs52" /><sodipodi:namedview
     id="namedview50"
     pagecolor="#ffffff"
     bordercolor="#000000"
     borderopacity="0.25"
     inkscape:showpageshadow="2"
     inkscape:pageopacity="0.0"
     inkscape:pagecheckerboard="0"
     inkscape:deskcolor="#d1d1d1"
     showgrid="false"
     inkscape:zoom="0.39545611"
     inkscape:cx="237.70021"
     inkscape:cy="166.89589"
     inkscape:window-width="1536"
     inkscape:window-height="795"
     inkscape:window-x="0"
     inkscape:window-y="0"
     inkscape:window-maximized="1"
     inkscape:current-layer="g54" /><g
     inkscape:groupmode="layer"
     inkscape:label="Image"
     id="g54"
     transform="translate(-1026.1491,875.21977)"><g
       id="g34584"
       transform="translate(866.67042,-1311.6714)"><path
         d="m 0,0 c 0.81345886,-0.00700928 1.6269177,-0.01401855 2.4650269,-0.02124023 2.686485,-0.01759223 5.371915,-0.0059533 8.0584111,0.0075683 1.868003,-0.0026946 3.736005,-0.0065767 5.604003,-0.01159667 3.914036,-0.0058967 7.827706,0.0026734 11.7417,0.0213623 5.017395,0.0227897 10.033935,0.00966753 15.0513,-0.01428986 3.85705,-0.01445335 7.713897,-0.0098541 11.570953,5.1117e-4 1.849977,0.0026686 3.699972,-6.0704e-4 5.549927,-0.0099182 2.585681,-0.0101581 5.169976,0.0053242 7.755554,0.02760315 0.764797,-0.00809692 1.529594,-0.01619385 2.317566,-0.02453613 3.26131,0.05206641 5.456249,0.34232035 8.261963,2.05267337 2.165648,3.5421374 2.049434,6.8126454 1.976135,10.8380738 5.84e-4,0.839391 0.0012,1.678782 0.0018,2.54361 -0.0028,2.770716 -0.03389,5.540354 -0.06525,8.310882 -0.0075,1.922418 -0.01315,3.844844 -0.01715,5.767273 -0.01526,5.057079 -0.05455,10.113697 -0.09882,15.170593 -0.04813,6.068894 -0.06648,12.137941 -0.08981,18.206971 -0.03877,9.217666 -0.115422,18.434322 -0.184845,27.652038 21.780006,0 43.560006,0 66.000006,0 -0.0232,-6.089531 -0.0464,-12.179062 -0.0703,-18.453125 -0.0102,-3.855473 -0.0198,-7.710929 -0.0273,-11.566406 -0.012,-6.120966 -0.0261,-12.241873 -0.0532,-18.362793 -0.0217,-4.934239 -0.0337,-9.868413 -0.0389,-14.802696 -0.004,-1.883479 -0.0109,-3.766955 -0.0217,-5.650406 -0.0145,-2.63599 -0.0165,-5.271715 -0.0156,-7.907738 -0.007,-0.780432 -0.0144,-1.560863 -0.0218,-2.364944 0.0266,-6.9628796 0.0266,-6.9628796 2.24884,-9.8918919 3.56566,-1.18855546 6.81715,-1.16317102 10.52905,-1.17700197 0.76455,-0.006571 1.52909,-0.0131424 2.3168,-0.0199127 2.52925,-0.0197066 5.05844,-0.0313876 7.58774,-0.0413666 0.86383,-0.004076 1.72766,-0.008151 2.61766,-0.0123501 4.56926,-0.0208462 9.13849,-0.035156 13.70778,-0.0445347 4.72252,-0.0110814 9.44457,-0.0455051 14.16692,-0.0851717 3.62966,-0.0261166 7.25922,-0.0345155 10.88898,-0.03810978 1.74115,-0.0048762 3.4823,-0.01651963 5.22337,-0.03503799 2.4348,-0.02429425 4.86837,-0.02344514 7.30325,-0.01648522 0.71961,-0.01281006 1.43923,-0.02562012 2.18065,-0.03881836 3.05539,0.03186169 5.09261,0.25334587 7.66314,1.95804312 2.72292,3.8274301 2.36207,7.2593231 2.30913,11.8504289 0.005,0.952063 0.01,1.904126 0.0146,2.88504 0.0113,3.198468 -0.006,6.396141 -0.0233,9.594574 0.002,2.289639 0.006,4.579278 0.0115,6.868912 0.01,6.225146 -0.006,12.450007 -0.0259,18.675119 -0.0175,6.507089 -0.014,13.014169 -0.0133,19.521277 -0.002,10.928638 -0.0191,21.857164 -0.0465,32.785767 -0.0282,11.24644 -0.0423,22.49278 -0.041,33.73926 1.2e-4,1.03898 1.2e-4,1.03898 2.5e-4,2.09896 8e-5,0.69145 1.6e-4,1.38291 2.4e-4,2.09532 0.001,12.15133 -0.009,24.30261 -0.0256,36.45393 -0.007,5.17695 -0.0107,10.35389 -0.0118,15.53085 -0.002,6.09355 -0.0142,12.187 -0.0343,18.28051 -0.006,2.23978 -0.008,4.47956 -0.007,6.71934 9.8e-4,3.0507 -0.0103,6.10111 -0.0248,9.15178 0.003,0.89221 0.006,1.78442 0.009,2.70367 -0.01,1.22569 -0.01,1.22569 -0.0195,2.47614 -0.001,0.70411 -0.003,1.40823 -0.004,2.13367 -0.30128,2.36522 -1.00827,3.96012 -2.253,5.9862 -3.00937,1.50468 -6.11428,1.15604 -9.41553,1.16113 -0.7644,0.005 -1.5288,0.01 -2.31636,0.0151 -2.53469,0.0146 -5.06932,0.0214 -7.60405,0.0269 -1.75876,0.006 -3.51752,0.0115 -5.27628,0.0173 -3.69046,0.0105 -7.3809,0.0164 -11.07138,0.0198 -4.7303,0.005 -9.46032,0.0295 -14.19054,0.058 -3.63396,0.0186 -7.26785,0.0238 -10.90185,0.0254 -1.74393,0.003 -3.48786,0.0111 -5.23174,0.0242 -2.43955,0.0171 -4.87838,0.0152 -7.31796,0.009 -0.72118,0.009 -1.44237,0.0184 -2.18541,0.0279 -2.89213,-0.0241 -5.25021,-0.28793 -7.94017,-1.37474 -2.47044,-3.20564 -2.07071,-6.6433 -2.00283,-10.52013 -5.9e-4,-0.86851 -0.001,-1.73701 -0.002,-2.63184 0.003,-2.87353 0.0339,-5.74603 0.0652,-8.61938 0.007,-1.99111 0.0132,-3.98223 0.0171,-5.97334 0.0153,-5.24286 0.0546,-10.48527 0.0988,-15.72795 0.0481,-6.28914 0.0665,-12.57842 0.0898,-18.86769 0.0388,-9.55674 0.11544,-19.11251 0.18485,-28.6693 -22.11,0 -44.22,0 -67.000006,0 0.04641,6.30609 0.09281,12.61219 0.140625,19.10937 0.02044,3.99221 0.03969,7.98435 0.05469,11.97657 0.02392,6.33835 0.05224,12.67647 0.106445,19.01464 0.04342,5.10933 0.06737,10.2184 0.07775,15.32789 0.0074,1.9505 0.02184,3.90098 0.04341,5.85137 0.02899,2.72961 0.03304,5.45819 0.03118,8.18793 0.01438,0.80849 0.02876,1.61697 0.04358,2.44995 -0.02484,3.37023 -0.252679,5.67912 -2.018722,8.58518 -3.478433,2.1007 -6.652178,2.04078 -10.59639,1.98294 -0.815065,0.004 -1.63013,0.008 -2.469895,0.0115 -2.691336,0.007 -5.38159,-0.014 -8.07283,-0.0364 -1.870395,-0.002 -3.740793,-0.003 -5.611191,-0.003 -3.918248,-0.003 -7.836131,-0.0197 -11.754287,-0.0465 -5.026267,-0.034 -10.052132,-0.0416 -15.0785,-0.0401 -3.861272,-5.4e-4 -7.722456,-0.0115 -11.583699,-0.026 -1.853587,-0.006 -3.7071831,-0.0103 -5.5607799,-0.0118 -2.5879568,-0.004 -5.1754846,-0.0218 -7.76334949,-0.0432 -1.15258801,0.001 -1.15258801,0.001 -2.32846071,0.003 -3.7579573,-0.0455 -5.4529346,-0.15551 -8.6595769,-2.29327 -1.349176,-4.04753 -1.14804,-7.95821 -1.147171,-12.17943 -0.0037,-0.95121 -0.0074,-1.90242 -0.01114,-2.88245 -0.01105,-3.2013 -0.01488,-6.40257 -0.01869,-9.60389 -0.0063,-2.28949 -0.01291,-4.57898 -0.01991,-6.86847 -0.01742,-6.22923 -0.02796,-12.45845 -0.03621,-18.6877 -0.0051,-3.88845 -0.01122,-7.7769 -0.01751,-11.66535 -0.01687,-10.76338 -0.0315,-21.52675 -0.03875,-32.29014 -0.0019,-2.7925 -0.0038,-5.585 -0.0058,-8.3775 -4.83e-4,-0.69407 -9.67e-4,-1.38814 -0.0015,-2.10324 -0.0083,-11.25215 -0.03366,-22.50419 -0.06611,-33.75629 -0.03304,-11.548845 -0.05075,-23.097623 -0.05428,-34.64652 -0.0024,-6.485787 -0.01139,-12.971406 -0.03646,-19.457147 -0.02319,-6.097679 -0.02755,-12.195077 -0.01724,-18.292788 4.98e-4,-2.241399 -0.0059,-4.482811 -0.01956,-6.724169 -0.01758,-3.053175 -0.01068,-6.105332 0.0025,-9.158506 -0.01097,-0.892893 -0.02194,-1.785787 -0.03324,-2.705737 0.06246,-5.9521218 0.06246,-5.9521218 2.32378,-9.1505798 C -7.013123,-0.20076138 -3.8056621,-0.04029065 0,0 Z"
         fill="#de742a"
         transform="translate(172.10156,436.48242)"
         id="path34557" /><path
         d="M 0,0 C 22,0 22,0 27.3125,4.75 28.591248,6.8032737 29.82129,8.8877096 31,11 c 1.327883,1.811233 2.683329,3.602509 4.0625,5.375 1.107949,1.490801 1.107949,1.490801 2.238281,3.011719 3.445728,4.628569 6.950221,9.212437 10.449219,13.800781 0.618831,0.811948 1.237661,1.623896 1.875244,2.460449 C 56.07452,44.105506 62.539183,52.551239 69,61 69.33,40.87 69.66,20.74 70,0 c 7.59,0 15.18,0 23,0 0,34.32 0,68.64 0,104 -20,0 -20,0 -25.5,-5 -1.32373,-1.758057 -1.32373,-1.758057 -2.242188,-3.347656 -1.9536,-3.211219 -4.108181,-6.173468 -6.396972,-9.153076 C 57.334145,84.509246 55.836781,82.499754 54.34375,80.484375 50.561006,75.396447 46.719733,70.353665 42.875,65.3125 42.242554,64.482424 41.610107,63.652349 40.958496,62.797119 35.659426,55.8488 30.328007,48.926409 25,42 24.67,62.46 24.34,82.92 24,104 16.08,104 8.16,104 0,104 0,69.68 0,35.36 0,0 Z"
         fill="#df7730"
         transform="translate(668,509)"
         id="path34559" /><path
         d="M 0,0 C 66.243308,0 66.243308,0 82.863281,15.605469 92.834767,26.780095 96.98282,39.224834 97,54 96.043257,68.681655 90.686605,80.971946 79.835937,91 56.764915,109.91335 29.644452,104 0,104 0,69.68 0,35.36 0,0 Z m 24,21 c 0,20.46 0,40.92 0,62 20.458908,1.171979 20.458908,1.171979 37.875,-5.8125 C 68.954033,69.900261 72.0408,62.270921 72.4375,52.0625 72.159521,43.03978 69.330156,35.290937 63.058594,28.722656 51.462528,19.018927 38.992731,21 24,21 Z"
         fill="#df7730"
         transform="translate(785,509)"
         id="path34561" /><path
         d="m 0,0 c 26.07,0 52.14,0 79,0 0,6.93 0,13.86 0,21 -18.48,0 -36.96,0 -56,0 0,6.6 0,13.2 0,20 16.17,0 32.34,0 49,0 0,6.93 0,13.86 0,21 -16.17,0 -32.34,0 -49,0 0,6.93 0,13.86 0,21 1.691169,-0.0052 3.382339,-0.01047 5.124756,-0.01587 5.575966,-0.0161 11.151929,-0.0276 16.727912,-0.03594 3.38205,-0.0052 6.764075,-0.01232 10.146111,-0.02363 3.884519,-0.0129 7.769027,-0.01779 11.653565,-0.02222 1.21977,-0.0052 2.43954,-0.01032 3.696274,-0.01564 1.681629,-1.13e-4 1.681629,-1.13e-4 3.397232,-2.28e-4 0.992613,-0.0022 1.985226,-0.0044 3.007919,-0.0067 C 79,83 79,83 80,84 c 0,6.6 0,13.2 0,20 -26.4,0 -52.8,0 -80,0 C 0,69.68 0,35.36 0,0 Z"
         fill="#df772f"
         transform="translate(901,509)"
         id="path34563" /><path
         d="m 0,0 c 7.59,0 15.18,0 23,0 0,13.53 0,27.06 0,41 13.86,0 27.72,0 42,0 0,-13.53 0,-27.06 0,-41 7.59,0 15.18,0 23,0 0,34.32 0,68.64 0,104 -7.59,0 -15.18,0 -23,0 0,-13.53 0,-27.06 0,-41 -13.86,0 -27.72,0 -42,0 0,13.53 0,27.06 0,41 -7.59,0 -15.18,0 -23,0 C 0,69.68 0,35.36 0,0 Z"
         fill="#de752c"
         transform="translate(439,509)"
         id="path34565" /><path
         d="m 0,0 c 6.93,0 13.86,0 21,0 4.534018,8.8884702 8.713856,17.76331 12.5,27 1.107176,2.677239 2.219216,5.352445 3.332031,8.027344 0.307386,0.739675 0.614772,1.47935 0.931473,2.24144 2.999764,7.200181 6.059246,14.37457 9.123215,21.547622 0.516481,1.209493 1.032962,2.418986 1.565094,3.665131 2.101017,4.919022 4.203184,9.837547 6.308929,14.754547 1.491934,3.484246 2.981027,6.969694 4.469727,10.455322 0.451549,1.051921 0.903099,2.103841 1.368332,3.187638 0.628214,1.472484 0.628214,1.472484 1.269119,2.974716 0.364941,0.852478 0.729881,1.704956 1.105881,2.583267 C 64.099077,99.247448 65.042675,102.12803 66,105 c -8.25,0 -16.5,0 -25,0 -2.97,-7.26 -5.94,-14.52 -9,-22 -14.19,0 -28.38,0 -43,0 -2.97,7.26 -5.94,14.52 -9,22 -7.92,0 -15.84,0 -24,0 0.924753,-4.62377 2.356616,-8.501947 4.226563,-12.777344 0.335951,-0.779233 0.671903,-1.558466 1.018035,-2.361313 1.122507,-2.601492 2.251553,-5.200097 3.380402,-7.798843 1.204613,-2.787687 2.407369,-5.576171 3.609924,-8.364746 0.860619,-1.995661 1.721758,-3.991098 2.583374,-5.986328 3.499951,-8.110509 6.9677,-16.234541 10.42389,-24.36377 0.26087,-0.613459 0.52174,-1.226919 0.790515,-1.858968 2.338717,-5.49995 4.676126,-11.000455 7.012036,-16.501597 1.4527505,-3.420639 2.9070149,-6.840631 4.361511,-10.260528 0.6535396,-1.541007 0.6535396,-1.541007 1.320282,-3.113144 0.4028421,-0.946701 0.8056842,-1.8934016 1.2207336,-2.8687901 C -3.7028748,7.9208878 -3.3530151,7.0971466 -2.9925537,6.2484436 -2.0599353,4.135772 -1.0327786,2.0655572 0,0 Z M 10,29 C 8.1463397,33.395617 6.2949866,37.792196 4.4458008,42.189697 3.8159069,43.686711 3.1853742,45.183457 2.5541992,46.679932 1.6490491,48.826288 0.74617228,50.973589 -0.15625,53.121094 -0.44060913,53.79402 -0.72496826,54.466946 -1.0179443,55.160263 -2.4052442,57.986116 -2.4052442,57.986116 -3,61 5.58,61 14.16,61 23,61 22.15876,56.7938 21.114353,53.530212 19.496094,49.605469 19.003027,48.403418 18.509961,47.201367 18.001953,45.962891 17.480566,44.704387 16.95908,43.445924 16.4375,42.1875 15.911698,40.909674 15.386304,39.631681 14.861328,38.353516 13.578209,35.234007 12.290966,32.116267 11,29 c -0.33,0 -0.66,0 -1,0 z"
         fill="#de772f"
         transform="translate(587,508)"
         id="path34567" /><path
         d="m 0,0 c 7.92,0 15.84,0 24,0 0,27.39 0,54.78 0,83 16.739152,-0.03961 16.739152,-0.03961 33.478271,-0.09009 2.089274,-0.0029 4.178548,-0.0055 6.267823,-0.0076 1.096065,-0.0051 2.192131,-0.01023 3.321411,-0.0155 1.035318,-1.21e-4 2.070637,-2.42e-4 3.137329,-3.66e-4 0.903789,-0.0022 1.807578,-0.0044 2.738754,-0.0067 C 75,83 75,83 76,84 c 0,6.6 0,13.2 0,20 -25.08,0 -50.16,0 -76,0 C 0,69.68 0,35.36 0,0 Z"
         fill="#df7831"
         transform="translate(1000,509)"
         id="path34569" /></g></g></svg>
