<?xml version="1.0" encoding="UTF-8" standalone="no"?>
<!-- Created with Inkscape (http://www.inkscape.org/) -->

<svg
   width="193.14583mm"
   height="64.822906mm"
   viewBox="0 0 193.14583 64.822906"
   version="1.1"
   id="svg6008"
   xml:space="preserve"
   xmlns:inkscape="http://www.inkscape.org/namespaces/inkscape"
   xmlns:sodipodi="http://sodipodi.sourceforge.net/DTD/sodipodi-0.dtd"
   xmlns="http://www.w3.org/2000/svg"
   xmlns:svg="http://www.w3.org/2000/svg"><sodipodi:namedview
     id="namedview6010"
     pagecolor="#ffffff"
     bordercolor="#000000"
     borderopacity="0.25"
     inkscape:showpageshadow="2"
     inkscape:pageopacity="0.0"
     inkscape:pagecheckerboard="0"
     inkscape:deskcolor="#d1d1d1"
     inkscape:document-units="mm"
     showgrid="false" /><defs
     id="defs6005" /><g
     inkscape:label="Layer 1"
     inkscape:groupmode="layer"
     id="layer1"
     transform="translate(-34.554785,-133.28408)"><g
       id="g6217"
       transform="translate(20.243534,69.286956)"><path
         style="fill:#fdfdfd;stroke-width:0.264583"
         d="M 14.311251,96.408577 V 63.99712 h 0.548065 c 0.498242,0 0.510268,0.0378 0.132292,0.415774 -0.373351,0.373351 -0.41536,3.619648 -0.411722,31.816145 0.0025,19.314031 0.100561,31.553131 0.254783,31.797241 0.215279,0.34076 1.852482,0.40737 11.579099,0.47106 11.140915,0.073 11.338092,0.0651 11.91605,-0.47333 l 0.587683,-0.54751 V 96.349178 65.22185 L 38.342213,64.609485 37.766926,63.99712 H 122.612 207.45708 V 96.408577 128.82003 H 110.88417 14.311251 Z m 73.024999,6.217713 v -3.968755 h 3.96875 3.96875 v 3.968755 3.96874 h 2.38125 2.38125 V 96.408577 86.222119 H 97.655 95.27375 v 3.96875 3.96875 H 91.305 87.33625 v -3.96875 -3.96875 H 84.955 82.57375 v 10.186458 10.186453 h 2.38125 2.38125 z m 21.20959,1.72074 0.88312,-2.248 h 4.23333 4.23333 l 0.88312,2.248 0.88311,2.248 h 2.38889 c 2.14681,0 2.37611,-0.0469 2.26272,-0.46302 -0.21672,-0.79534 -8.20919,-19.494414 -8.48618,-19.854136 -0.18324,-0.237975 -0.86213,-0.317978 -2.24521,-0.264583 l -1.98256,0.07654 -4.32642,10.1718 c -2.37954,5.594479 -4.32642,10.208159 -4.32642,10.252599 0,0.0444 1.06111,0.0808 2.35803,0.0808 h 2.35803 z m 2.67791,-6.549391 c 1.47216,-3.699298 2.36609,-5.900229 2.41796,-5.953206 0.0357,-0.03642 0.57319,1.213733 1.19451,2.778125 0.62131,1.564393 1.18964,2.99318 1.26294,3.175081 0.10117,0.251034 -0.48605,0.33073 -2.43687,0.33073 -1.94993,0 -2.5384,-0.07981 -2.43854,-0.33073 z m 20.88844,2.545931 0.0709,-6.251468 4.75674,6.251468 4.75673,6.25146 h 2.05629 2.05629 V 96.408577 86.222119 h -2.38125 -2.38125 v 6.116545 6.116547 l -4.64064,-6.116547 -4.64064,-6.116545 h -2.10624 -2.10623 v 10.186458 10.186453 h 2.24417 2.24416 z m 31.19212,5.28886 c 2.24785,-1.06505 3.65192,-2.34568 4.66851,-4.25806 3.295,-6.198516 -0.11243,-13.400406 -7.02928,-14.856993 -0.77115,-0.162392 -3.47982,-0.295258 -6.01927,-0.295258 h -4.61719 v 10.20528 10.205281 l 5.6224,-0.085 5.62239,-0.085 z m -8.23473,-9.223853 v -5.953125 h 2.15212 c 2.6561,0 3.90114,0.356698 5.23741,1.500492 2.91342,2.49378 2.34072,8.017634 -1.015,9.789906 -0.99227,0.52405 -1.55427,0.61585 -3.77031,0.61585 h -2.60422 z m 33.60208,8.202083 v -1.98437 h -5.55625 -5.55625 v -2.11667 -2.116668 h 4.7625 4.7625 v -1.984375 -1.984375 h -4.7625 -4.7625 v -1.984375 -1.984375 h 5.42396 5.42396 v -2.116666 -2.116667 h -7.67292 -7.67291 v 10.186458 10.186453 h 7.80521 7.8052 z m 18.52084,-0.13229 v -2.11667 h -5.02709 -5.02708 v -8.06979 -8.069791 h -2.38125 -2.38125 v 10.186458 10.186453 h 7.40833 7.40834 z"
         id="path6233" /><path
         style="fill:#f5dbc7;stroke-width:0.264583"
         d="m 99.891975,96.408577 c 7.4e-5,-5.675312 0.03511,-7.959381 0.07786,-5.075708 0.04275,2.883672 0.04268,7.52711 -1.35e-4,10.318751 -0.04282,2.79164 -0.0778,0.43227 -0.07772,-5.243043 z m 45.772915,0 c 7e-5,-5.675312 0.0351,-7.959381 0.0779,-5.075708 0.0427,2.883672 0.0427,7.52711 -1.4e-4,10.318751 -0.0428,2.79164 -0.0778,0.43227 -0.0777,-5.243043 z m 10.40387,6.023633 c 0.62231,-0.0559 1.57481,-0.0551 2.11667,0.002 0.54186,0.0568 0.0327,0.10258 -1.13147,0.10162 -1.16417,-0.001 -1.60751,-0.0475 -0.9852,-0.10337 z M 89.254479,98.460868 c 1.127786,-0.0496 2.973255,-0.0496 4.101041,0 1.127787,0.0496 0.205053,0.09018 -2.05052,0.09018 -2.255573,0 -3.178308,-0.04058 -2.050521,-0.09018 z m 79.899401,-1.919999 c 0,-0.509323 0.0545,-0.717683 0.121,-0.463021 0.0666,0.254661 0.0666,0.67138 0,0.926041 -0.0666,0.254662 -0.121,0.0463 -0.121,-0.46302 z M 89.254479,94.227535 c 1.127786,-0.0496 2.973255,-0.0496 4.101041,0 1.127787,0.0496 0.205053,0.09018 -2.05052,0.09018 -2.255573,0 -3.178308,-0.04058 -2.050521,-0.09018 z M 112.6771,86.028048 c 0.62231,-0.05589 1.57481,-0.05511 2.11666,0.0017 0.54186,0.05685 0.0327,0.102583 -1.13147,0.101622 -1.16417,-9.52e-4 -1.6075,-0.04748 -0.98519,-0.103369 z"
         id="path6231" /><path
         style="fill:#f2cdb3;stroke-width:0.264583"
         d="m 38.758735,107.52108 c 3.7e-4,-2.18282 0.04135,-3.04058 0.09107,-1.90614 0.04972,1.13444 0.04941,2.92037 -6.62e-4,3.96875 -0.0501,1.04838 -0.09078,0.1202 -0.0904,-2.06261 z m 48.419424,-4.89479 c 0,-2.25558 0.04058,-3.178312 0.09018,-2.05053 0.0496,1.12779 0.0496,2.97326 0,4.10105 -0.0496,1.12778 -0.09018,0.20505 -0.09018,-2.05052 z m 63.249091,-6.085421 c 0,-5.602552 0.0351,-7.894505 0.0779,-5.093229 0.0429,2.801276 0.0429,7.385182 0,10.18646 -0.0428,2.80127 -0.0779,0.50932 -0.0779,-5.093231 z m 15.49025,7.308441 c 0,-0.055 0.20836,-0.2633 0.46302,-0.46303 0.41964,-0.3291 0.429,-0.31974 0.0999,0.0999 -0.34565,0.44073 -0.56292,0.58089 -0.56292,0.36313 z m 31.07614,-1.55681 c -0.0704,-0.18358 -0.0946,-3.84475 -0.0537,-8.135935 l 0.0744,-7.802154 0.062,7.997806 0.062,7.997813 4.96094,0.0782 4.96094,0.0782 -4.96924,0.0599 c -3.80033,0.0459 -4.99937,-0.0186 -5.09733,-0.27384 z m -55.83319,-9.720381 c 0,-3.41974 0.0377,-4.818724 0.0838,-3.108854 0.0461,1.70987 0.0461,4.507838 0,6.217708 -0.0461,1.70987 -0.0838,0.310885 -0.0838,-3.108854 z m 23.21132,3.96875 c 0,-0.363802 0.0601,-0.512631 0.13346,-0.330729 0.0734,0.181901 0.0734,0.479557 0,0.661458 -0.0734,0.181901 -0.13346,0.03307 -0.13346,-0.330729 z M 87.177484,90.323161 c 2.64e-4,-2.182813 0.04135,-3.040574 0.09107,-1.906136 0.04971,1.134437 0.04941,2.920373 -7.94e-4,3.96875 -0.05009,1.048375 -0.09076,0.120198 -0.09039,-2.062614 z m 93.108036,-0.06529 c 1.57226,-0.04686 4.07257,-0.04668 5.55625,3.97e-4 1.48368,0.04707 0.19729,0.08541 -2.85865,0.0852 -3.05593,-2.16e-4 -4.26985,-0.03873 -2.6976,-0.08559 z M 38.673805,87.390696 c 0.0127,-0.308225 0.07539,-0.37092 0.159853,-0.159853 0.07643,0.190996 0.06703,0.419199 -0.02089,0.507118 -0.08792,0.08792 -0.150453,-0.06835 -0.138964,-0.347265 z"
         id="path6229" /><path
         style="fill:#ecb28b;stroke-width:0.264583"
         d="m 38.770144,119.16274 c -1.18e-4,-4.36562 0.03613,-6.18868 0.08055,-4.05125 0.04442,2.13744 0.04452,5.70932 2.15e-4,7.9375 -0.0443,2.22819 -0.08065,0.47938 -0.08076,-3.88625 z M 188.49778,104.61066 c 0.001,-1.16417 0.0475,-1.60751 0.10337,-0.98519 0.0559,0.62231 0.0551,1.57481 -0.002,2.11666 -0.0568,0.54186 -0.10258,0.0327 -0.10162,-1.13147 z m 18.52084,0 c 0.001,-1.16417 0.0475,-1.60751 0.10337,-0.98519 0.0559,0.62231 0.0551,1.57481 -0.002,2.11666 -0.0568,0.54186 -0.10258,0.0327 -0.10162,-1.13147 z M 38.762742,98.922119 c 0,-2.692136 0.03929,-3.793464 0.08731,-2.447396 0.04802,1.346067 0.04802,3.548727 0,4.894787 -0.04802,1.34607 -0.08731,0.24474 -0.08731,-2.447391 z M 154.91845,96.408577 c 1.8e-4,-3.346979 0.0381,-4.679714 0.0843,-2.961635 0.0462,1.71808 0.046,4.456518 -2.6e-4,6.085417 -0.0464,1.628901 -0.0841,0.223197 -0.0839,-3.123782 z M 38.773745,76.300244 c -6.8e-5,-5.966353 0.03469,-8.444873 0.07724,-5.507822 0.04255,2.937052 0.04261,7.818614 1.24e-4,10.847916 -0.04248,3.029303 -0.07729,0.62626 -0.07736,-5.340094 z M 158.7076,86.311474 c 0.1819,-0.0734 0.47956,-0.0734 0.66146,0 0.1819,0.0734 0.0331,0.133452 -0.33073,0.133452 -0.3638,0 -0.51263,-0.06005 -0.33073,-0.133452 z"
         id="path6227" /><path
         style="fill:#e9a678;stroke-width:0.264583"
         d="m 82.701263,96.474781 0.0048,-10.12037 2.116667,-0.01603 2.116667,-0.01603 -2.047388,0.09283 -2.047386,0.09283 -0.07406,10.043574 -0.07406,10.043575 0.0048,-10.12037 z m 12.678979,6.151509 c 0,-2.25558 0.04058,-3.178312 0.09018,-2.05053 0.0496,1.12779 0.0496,2.97326 0,4.10105 -0.0496,1.12778 -0.09018,0.20505 -0.09018,-2.05052 z m 97.123098,-6.151509 0.005,-10.12037 2.11667,-0.01603 2.11667,-0.01603 -2.04739,0.09283 -2.04739,0.09283 -0.0741,10.043574 -0.074,10.043575 0.005,-10.12037 z M 38.752974,91.249202 c 0,-1.673489 0.04296,-2.358099 0.09547,-1.521354 0.05251,0.836745 0.05251,2.205964 0,3.042708 -0.05251,0.836745 -0.09547,0.152136 -0.09547,-1.521354 z m 56.641703,-0.926041 0.01138,-3.96875 2.116667,-0.01603 2.116667,-0.01603 -2.04351,0.09276 -2.043506,0.09276 -0.08452,3.892017 -0.08452,3.892017 0.01138,-3.968749 z m 60.534803,-0.06045 c 0.5457,-0.05708 1.43867,-0.05708 1.98437,0 0.54571,0.05708 0.0992,0.103786 -0.99218,0.103786 -1.09141,0 -1.5379,-0.0467 -0.99219,-0.103786 z m -27.25209,-3.96875 c 0.54571,-0.05708 1.43868,-0.05708 1.98438,0 0.5457,0.05708 0.0992,0.103786 -0.99219,0.103786 -1.0914,0 -1.53789,-0.0467 -0.99219,-0.103786 z m 13.62605,-9.79e-4 c 0.61846,-0.0557 1.63049,-0.0557 2.24895,0 0.61847,0.0557 0.11245,0.10128 -1.12447,0.10128 -1.23693,0 -1.74295,-0.04558 -1.12448,-0.10128 z m 10.18645,-0.0029 c 1.12779,-0.0496 2.97326,-0.0496 4.10105,0 1.12778,0.0496 0.20505,0.09018 -2.05052,0.09018 -2.25558,0 -3.17831,-0.04058 -2.05053,-0.09018 z m 24.62244,-0.0013 c 2.15533,-0.04452 5.60815,-0.04442 7.67292,2.28e-4 2.06477,0.04465 0.30131,0.08108 -3.91879,0.08095 -4.22011,-1.26e-4 -5.90946,-0.03666 -3.75413,-0.08118 z M 34.22913,64.066898 c 0.695614,-0.05468 1.767177,-0.05402 2.38125,0.0015 0.614072,0.05549 0.04493,0.10023 -1.264754,0.09942 -1.309688,-8.06e-4 -1.812111,-0.04621 -1.116496,-0.10089 z"
         id="path6225" /><path
         style="fill:#e69963;stroke-width:0.264583"
         d="m 31.982557,128.35929 c 0.915207,-0.0518 2.343957,-0.0514 3.175,0.001 0.831042,0.0523 0.08224,0.0947 -1.664015,0.0942 -1.74625,-5.3e-4 -2.426193,-0.0433 -1.510985,-0.0952 z M 14.703796,96.408577 c 10e-6,-17.025937 0.03171,-23.952138 0.07044,-15.391559 0.03873,8.560579 0.03873,22.490892 -1.7e-5,30.956252 -0.03874,8.46535 -0.07043,1.46124 -0.07043,-15.564693 z m 5.511238,-32.344938 c 2.446716,-0.04371 6.375779,-0.04362 8.73125,1.82e-4 2.355471,0.04381 0.353613,0.07957 -4.448575,0.07947 -4.802187,-1.01e-4 -6.729391,-0.03594 -4.282675,-0.07965 z"
         id="path6223" /><path
         style="fill:#e48e54;stroke-width:0.264583"
         d="m 20.065938,128.3577 c 1.928151,-0.0452 5.083308,-0.0452 7.011459,0 1.928151,0.0452 0.350573,0.0822 -3.505729,0.0822 -3.856303,0 -5.433881,-0.037 -3.50573,-0.0822 z m 16.66875,0.0225 c 0.181901,-0.0734 0.479557,-0.0734 0.661458,0 0.181901,0.0734 0.03307,0.13345 -0.330729,0.13345 -0.363802,0 -0.51263,-0.06 -0.330729,-0.13345 z m 1.582529,-0.90432 c 0.09356,-0.35777 0.213493,-0.4777 0.279546,-0.27954 0.06363,0.19088 -0.01011,0.47285 -0.16386,0.6266 -0.196339,0.19634 -0.230773,0.093 -0.115686,-0.34706 z M 127.67309,96.540869 c 0,-5.602552 0.0351,-7.894505 0.0779,-5.093229 0.0429,2.801276 0.0429,7.385182 0,10.18646 -0.0429,2.80127 -0.0779,0.50932 -0.0779,-5.093231 z m 4.22758,3.704171 c 0,-3.565265 0.0375,-5.023781 0.0832,-3.241151 0.0458,1.782631 0.0458,4.699661 0,6.482291 -0.0458,1.78263 -0.0832,0.32412 -0.0832,-3.24114 z m 27.35264,6.16926 c 0.19099,-0.0764 0.4192,-0.067 0.50711,0.0209 0.0879,0.0879 -0.0684,0.15045 -0.34726,0.13897 -0.30823,-0.0127 -0.37092,-0.0754 -0.15985,-0.15986 z m 13.92811,-9.873431 c 0,-5.602552 0.0351,-7.894505 0.0779,-5.093229 0.0428,2.801276 0.0428,7.385182 0,10.18646 -0.0429,2.80127 -0.0779,0.50932 -0.0779,-5.093231 z m -61.68895,5.359061 c 1.28045,-0.0486 3.30452,-0.0484 4.49792,5.3e-4 1.1934,0.0489 0.14576,0.0887 -2.3281,0.0884 -2.47385,-2.6e-4 -3.45027,-0.0403 -2.16982,-0.0889 z m 50.98545,-0.69646 c 0,-0.0549 0.20835,-0.2633 0.46302,-0.46302 0.41964,-0.32911 0.429,-0.31975 0.0999,0.0999 -0.34564,0.44073 -0.56291,0.58089 -0.56291,0.36312 z"
         id="path6221" /><path
         style="fill:#dd7228;stroke-width:0.264583"
         d="m 15.160716,127.97616 c -0.247095,-0.24709 -0.320298,-7.53319 -0.320298,-31.880043 V 64.536368 l 0.595312,-0.144729 c 0.327422,-0.0796 5.532918,-0.111635 11.567768,-0.07119 l 10.972456,0.07354 0.334581,0.661458 c 0.490038,0.968792 0.490034,61.472883 -3e-6,62.441663 l -0.334585,0.66146 -11.247467,0.0689 c -8.527458,0.0523 -11.324925,-0.009 -11.567764,-0.25136 z M 82.838333,96.540869 V 86.486702 H 84.955 87.071666 v 3.96875 3.96875 H 91.305 95.538333 v -3.96875 -3.96875 H 97.655 99.771666 V 96.540869 106.59503 H 97.655 95.538333 v -4.10104 -4.101038 H 91.305 87.071666 v 4.101038 4.10104 H 84.955 82.838333 Z m 20.482447,9.602371 c 0.0961,-0.26083 2.03576,-4.85444 4.31032,-10.208016 l 4.13555,-9.733766 1.98395,0.07648 1.98395,0.07648 3.6601,8.598958 c 2.01306,4.729427 3.95641,9.288184 4.31857,10.130574 l 0.65846,1.53161 -2.2739,-0.0764 -2.27389,-0.0764 -0.9257,-2.3151 -0.92569,-2.3151 h -4.31021 -4.31021 l -0.92563,2.3151 -0.92564,2.3151 -2.17739,0.0774 c -1.9989,0.071 -2.16308,0.0385 -2.00264,-0.39688 z m 12.56555,-9.403934 c -1.01592,-2.582886 -2.14066,-5.22552 -2.22404,-5.22552 -0.0834,0 -1.20812,2.642634 -2.22404,5.22552 l -0.54636,1.389063 h 2.7704 2.77041 z M 127.8175,96.540869 V 86.486702 h 1.94927 1.94928 l 4.73145,6.225702 4.73146,6.225701 0.0709,-6.225701 0.0709,-6.225702 h 2.11187 2.11188 v 10.054167 10.054161 h -1.80899 -1.80899 l -4.82677,-6.34999 c -2.65472,-3.492505 -4.9363,-6.350005 -5.07017,-6.350005 -0.1414,0 -0.24341,2.661367 -0.24341,6.350005 v 6.34999 h -1.98438 -1.98437 z m 22.75417,0.03423 V 86.486702 h 4.86692 c 4.09884,0 5.1339,0.08246 6.55867,0.52253 3.95983,1.223067 6.62428,4.462596 7.00261,8.514004 0.42801,4.583424 -2.26652,8.733954 -6.70747,10.331924 -1.28948,0.46398 -2.3469,0.57251 -6.62751,0.6802 l -5.09322,0.12814 z m 10.87976,5.311881 c 4.23933,-2.214652 4.16101,-8.751498 -0.13128,-10.957118 -0.83151,-0.427278 -1.73659,-0.590185 -3.80317,-0.684538 l -2.71198,-0.12382 v 6.25239 6.252396 h 2.61562 c 2.3494,0 2.75966,-0.0752 4.03081,-0.73931 z m 11.8744,-5.346112 V 86.486702 h 7.54063 7.54062 v 1.852084 1.852083 h -5.42396 -5.42396 v 2.116667 2.116666 h 4.7625 4.7625 v 1.984375 1.984375 h -4.7625 -4.7625 v 2.116668 2.11667 h 5.42396 5.42396 v 1.98437 1.98437 h -7.54062 -7.54063 z m 19.31458,0 V 86.486702 h 2.11667 2.11667 v 8.069792 8.069796 h 5.02708 5.02708 v 1.98437 1.98437 h -7.14375 -7.14375 z"
         id="path6219" /></g></g></svg>
