<?xml version="1.0" encoding="UTF-8" standalone="no"?>
<!-- Created with Inkscape (http://www.inkscape.org/) -->

<svg
   sodipodi:docname="Bold _H_ in orange and blue.png"
   viewBox="0 0 600 376.5336"
   height="376.5336"
   width="600"
   id="svg48"
   version="1.1"
   xml:space="preserve"
   inkscape:export-filename="inkscape-svgs/vertical-logo.svg"
   inkscape:export-xdpi="96"
   inkscape:export-ydpi="96"
   xmlns:inkscape="http://www.inkscape.org/namespaces/inkscape"
   xmlns:sodipodi="http://sodipodi.sourceforge.net/DTD/sodipodi-0.dtd"
   xmlns="http://www.w3.org/2000/svg"
   xmlns:svg="http://www.w3.org/2000/svg"><defs
     id="defs52" /><sodipodi:namedview
     id="namedview50"
     pagecolor="#ffffff"
     bordercolor="#000000"
     borderopacity="0.25"
     inkscape:showpageshadow="2"
     inkscape:pageopacity="0.0"
     inkscape:pagecheckerboard="0"
     inkscape:deskcolor="#d1d1d1"
     showgrid="false"
     inkscape:zoom="0.39545611"
     inkscape:cx="237.70021"
     inkscape:cy="166.89589"
     inkscape:window-width="1536"
     inkscape:window-height="795"
     inkscape:window-x="0"
     inkscape:window-y="0"
     inkscape:window-maximized="1"
     inkscape:current-layer="g54" /><g
     inkscape:groupmode="layer"
     inkscape:label="Image"
     id="g54"
     transform="translate(-917.61806,-170.58966)"><g
       id="g33252"
       transform="translate(643.61806,-245.87675)"><path
         d="m 0,0 c 0.82452667,-0.0049649 1.6490533,-0.00992981 2.4985657,-0.01504517 2.7342918,-0.01463486 5.4685257,-0.02142527 8.2028503,-0.02694702 1.895676,-0.0057497 3.791351,-0.01150743 5.687027,-0.01727295 3.97713,-0.01051329 7.954239,-0.01635403 11.931381,-0.01983642 5.102569,-0.0054901 10.204872,-0.02952783 15.307357,-0.05797196 3.916147,-0.0185981 7.832229,-0.0238304 11.748416,-0.0253639 1.881519,-0.003033 3.763036,-0.0110819 5.644512,-0.0241852 2.628922,-0.017004 5.257187,-0.0151944 7.886141,-0.00869 0.780885,-0.009215 1.56177,-0.0184296 2.366318,-0.0279236 2.831974,0.0220141 5.174879,0.0965954 7.730942,1.38621522 1.672892,3.2955283 1.403395,6.7149695 1.354888,10.325058 6.58e-4,1.273498 6.58e-4,1.273498 0.0013,2.572724 -0.0021,2.80843 -0.02544,5.616264 -0.04894,8.424591 -0.0056,1.94627 -0.0099,3.892545 -0.01286,5.838821 -0.01146,5.124401 -0.04093,10.248548 -0.07411,15.372848 -0.03607,6.147339 -0.04986,12.294763 -0.06736,18.442177 -0.0291,9.340822 -0.08658,18.681085 -0.138634,28.021935 22.109996,0 44.219996,0 66.999996,0 -0.0348,-6.161719 -0.0696,-12.323438 -0.10547,-18.671875 -0.0153,-3.901051 -0.0298,-7.802065 -0.041,-11.703125 -0.0179,-6.193438 -0.0392,-12.386743 -0.0798,-18.580078 -0.0326,-4.992602 -0.0505,-9.985061 -0.0583,-14.977761 -0.006,-1.90582 -0.0164,-3.811632 -0.0326,-5.717392 -0.0217,-2.667217 -0.0248,-5.333844 -0.0234,-8.001136 -0.0108,-0.789783 -0.0216,-1.579565 -0.0327,-2.39328 0.0174,-3.0735244 0.22307,-5.5950809 1.41152,-8.445786 3.00648,-2.31349524 6.05237,-2.05868221 9.69026,-2.01127631 0.78566,-0.005403 1.57131,-0.010806 2.38078,-0.0163727 2.59937,-0.0125167 5.19763,0.004022 7.79695,0.0219879 1.80457,-1.5492e-4 3.60913,-0.001643 5.4137,-0.00441 3.78298,-0.001385 7.56559,0.0111959 11.34851,0.0339508 4.85263,0.0283851 9.70464,0.0256491 14.55732,0.0129099 3.72661,-0.00695 7.45307,8.2452e-4 11.17966,0.013257 1.7894,0.004521 3.5788,0.004846 5.3682,9.346e-4 2.49961,-0.002906 4.99835,0.0135637 7.49785,0.0353985 1.11286,-0.006752 1.11286,-0.006752 2.24821,-0.0136414 5.02261,0.0730141 5.02261,0.0730141 7.17001,1.69017081 1.5936,2.1010449 1.68682,3.1405068 1.69061,5.7555756 0.008,0.8221044 0.0169,1.6442087 0.0256,2.4912252 -0.006,0.9029061 -0.012,1.8058121 -0.0182,2.7360791 0.008,1.439063 0.008,1.439063 0.0163,2.907199 0.0144,3.229066 0.007,6.457726 5e-5,9.68681 0.006,2.309197 0.0127,4.618392 0.0208,6.927582 0.018,6.282989 0.0168,12.565838 0.0111,18.848845 -0.003,5.238856 0.003,10.477685 0.009,15.716536 0.0149,13.062845 0.0112,26.125611 -8.6e-4,39.188459 -0.01,11.34915 0.003,22.69815 0.0269,34.04728 0.0244,11.6483 0.0336,23.29652 0.0273,34.94485 -0.003,6.54165 -9e-4,13.08318 0.0163,19.62482 0.0154,6.15023 0.0116,12.30015 -0.007,18.45037 -0.004,2.26074 -5.3e-4,4.52151 0.01,6.78222 0.0131,3.07948 0.002,6.1579 -0.016,9.23733 0.0144,1.35102 0.0144,1.35102 0.0291,2.72932 -0.0715,6.0074 -0.0715,6.0074 -2.34581,9.20767 -3.16717,2.09553 -6.15496,2.00434 -9.82708,1.96293 -1.14703,0.0105 -1.14703,0.0105 -2.31724,0.0212 -2.52418,0.0176 -5.04724,0.006 -7.57143,-0.008 -1.7559,0.003 -3.5118,0.007 -5.2677,0.0116 -3.67865,0.006 -7.35691,-0.003 -11.03552,-0.0214 -4.71474,-0.0228 -9.42858,-0.01 -14.14329,0.0143 -3.62544,0.0145 -7.25066,0.01 -10.8761,-5.1e-4 -1.73834,-0.003 -3.47669,6e-4 -5.215,0.01 -2.43005,0.0102 -4.85862,-0.005 -7.28856,-0.0276 -0.71804,0.008 -1.43609,0.0162 -2.17589,0.0245 -3.15151,-0.0535 -5.21091,-0.38557 -7.91597,-2.0412 -2.22623,-3.59035 -2.07763,-6.93981 -2.00482,-11.03314 -5.8e-4,-0.8589 -10e-4,-1.7178 -0.002,-2.60273 0.003,-2.83563 0.0339,-5.67022 0.0652,-8.50567 0.007,-1.96726 0.0132,-3.93453 0.0172,-5.9018 0.0153,-5.17544 0.0546,-10.35043 0.0988,-15.52569 0.0481,-6.21073 0.0665,-12.42162 0.0898,-18.63248 0.0388,-9.43345 0.11542,-18.86591 0.18484,-28.29941 -22.11,0 -44.22,0 -66.999996,0 0.04641,6.38989 0.09281,12.77977 0.140625,19.36328 0.02043,4.04234 0.03969,8.08461 0.05469,12.12696 0.02393,6.41965 0.05228,12.83907 0.106445,19.25854 0.04339,5.17416 0.06736,10.34807 0.07775,15.52239 0.0074,1.97644 0.02186,3.95287 0.04341,5.92921 0.02894,2.76333 0.03304,5.52566 0.03118,8.28912 0.01438,0.82143 0.02876,1.64286 0.04358,2.48919 -0.0234,3.20451 -0.04552,5.4245 -2.018723,8.02896 -3.520471,1.40928 -6.863218,1.41012 -10.596389,1.38054 -1.222598,0.008 -1.222598,0.008 -2.469895,0.0159 -2.691139,0.0132 -5.381685,0.004 -8.07283,-0.006 -1.870398,0.002 -3.740795,0.005 -5.611191,0.009 -3.918172,0.004 -7.836139,-0.002 -11.754288,-0.016 -5.026332,-0.0171 -10.052184,-0.007 -15.078499,0.0107 -3.86127,0.0108 -7.722426,0.007 -11.5837,-3.8e-4 -1.853593,-0.002 -3.7071974,4.6e-4 -5.5607791,0.007 -2.5880635,0.008 -5.1753445,-0.004 -7.76334952,-0.0207 -0.76839203,0.006 -1.53678408,0.0121 -2.32846068,0.0184 -5.1076708,-0.0613 -5.1076708,-0.0613 -7.5963288,-1.61835 -2.8311519,-4.76161 -2.2065009,-10.65707 -2.1969609,-16.01163 -0.0023,-0.93179 -0.0045,-1.86358 -0.0069,-2.82361 -0.0063,-3.12367 -0.0055,-6.24729 -0.0047,-9.37097 -0.003,-2.2389 -0.0064,-4.4778 -0.01018,-6.7167 -0.0088,-6.08249 -0.01118,-12.16497 -0.01182,-18.24747 -9.49e-4,-5.07482 -0.0046,-10.14964 -0.0082,-15.22446 -0.0077,-11.28562 -0.01067,-22.57123 -0.01,-33.85685 4e-5,-0.67689 8e-5,-1.35379 1.22e-4,-2.0512 4e-5,-0.67772 8.1e-5,-1.35544 1.23e-4,-2.0537 4.07e-4,-10.98941 -0.0092,-21.97879 -0.02326,-32.96819 -0.01436,-11.285622 -0.02109,-22.571224 -0.02041,-33.856853 2.55e-4,-6.335385 -0.0026,-12.670732 -0.01318,-19.00611 -0.0097,-5.955656 -0.0098,-11.911235 -0.0025,-17.866894 10e-4,-2.187758 -0.0013,-4.37552 -0.0074,-6.56327 -0.0077,-2.982404 -0.0031,-5.964543 0.0046,-8.946942 -0.0051,-0.869161 -0.01029,-1.738322 -0.01559,-2.633822 0.02449,-4.2653587 0.126655,-7.765924 2.2628243,-11.5895666 C -6.8332831,-0.4133145 -3.4578899,0.00493727 0,0 Z"
         fill="#de742a"
         transform="translate(445.98218,416.83887)"
         id="path33147" /><path
         d="m 0,0 c 16,0 16,0 19.695312,2.6132813 1.26709,1.7556152 1.26709,1.7556152 2.429688,3.6992187 0.459712,0.6613696 0.919424,1.3227393 1.393066,2.0041504 0.995639,1.4347736 1.970187,2.8843676 2.925293,4.3464356 2.237146,3.358526 4.661772,6.566914 7.07959,9.796631 2.259771,3.023255 4.482009,6.072853 6.701172,9.125976 C 42.791168,35.075592 45.400599,38.534133 48,42 48.33,28.14 48.66,14.28 49,0 54.61,0 60.22,0 66,0 66,24.09 66,48.18 66,73 51,73 51,73 47,69.765625 45.95019,68.294723 44.951613,66.786257 44,65.25 42.857162,63.605197 41.713917,61.960677 40.570312,60.316406 39.994424,59.450317 39.418535,58.584229 38.825195,57.691895 35.684449,53.059756 32.25964,48.642624 28.875,44.1875 27.116974,41.832936 25.362232,39.47597 23.608887,37.11792 21.781609,34.712512 19.887048,32.35881 18,30 17.67,44.19 17.34,58.38 17,73 11.39,73 5.78,73 0,73 0,48.91 0,24.82 0,0 Z"
         fill="#df7a34"
         transform="translate(515,678)"
         id="path33149" /><path
         d="m 0,0 c 46.982759,0 46.982759,0 58.042969,11.039063 8.157093,9.844168 10.096809,19.537218 9.180176,32.019531 C 66.28568,51.214742 61.731388,58.290487 56,64 c -8.436548,6.39725 -17.43958,9.507699 -27.972656,9.292969 -1.077435,-0.0045 -1.077435,-0.0045 -2.176636,-0.0092 C 23.212822,73.268327 20.575144,73.226446 17.9375,73.1875 9.0584375,73.094688 9.0584375,73.094688 0,73 0,48.91 0,24.82 0,0 Z m 16,15 c 0,14.19 0,28.38 0,43 15.569096,0.788174 15.569096,0.788174 27.6875,-4.625 4.514466,-4.636478 6.531442,-9.990043 6.75,-16.4375 C 50.073714,29.816114 48.483769,25.036454 43.1875,20.125 35.013723,13.109582 26.923542,15 16,15 Z"
         fill="#de762e"
         transform="translate(598,678)"
         id="path33151" /><path
         d="m 0,0 c 9.054375,-0.020625 18.10875,-0.04125 27.4375,-0.0625 2.862283,-0.009104 5.724565,-0.01820801 8.673584,-0.02758789 2.253336,-0.0029189 4.506673,-0.0054675 6.76001,-0.0075684 1.182433,-0.005116 2.364865,-0.01023193 3.58313,-0.01550293 1.116529,-1.2085e-4 2.233059,-2.417e-4 3.383422,-3.6621e-4 0.974849,-0.002221 1.949697,-0.004441 2.954087,-0.006729 C 55,0 55,0 56,1 c 0.09893,2.164808 0.129711,4.3329379 0.125,6.5 0.0039,1.7789063 0.0039,1.7789063 0.0078,3.59375 C 56,14 56,14 55,15 c -2.811634,0.08862 -5.598583,0.115224 -8.410156,0.09766 -0.842035,-0.0014 -1.68407,-0.0028 -2.551621,-0.0043 -2.700276,-0.0056 -5.400471,-0.01817 -8.100723,-0.03087 -1.826171,-0.005 -3.652343,-0.0096 -5.478516,-0.01367 C 25.972625,15.037778 21.486326,15.020503 17,15 c 0,4.62 0,9.24 0,14 11.22,0 22.44,0 34,0 0,4.95 0,9.9 0,15 -11.22,0 -22.44,0 -34,0 0,4.62 0,9.24 0,14 12.87,0 25.74,0 39,0 0,4.95 0,9.9 0,15 C 37.52,73 19.04,73 0,73 0,48.91 0,24.82 0,0 Z"
         fill="#df7a33"
         transform="translate(679,678)"
         id="path33153" /><path
         d="m 0,0 c 5.61,0 11.22,0 17,0 0,9.57 0,19.14 0,29 9.57,0 19.14,0 29,0 0,-9.57 0,-19.14 0,-29 5.61,0 11.22,0 17,0 0,24.09 0,48.18 0,73 -5.61,0 -11.22,0 -17,0 0,-9.57 0,-19.14 0,-29 -9.57,0 -19.14,0 -29,0 0,9.57 0,19.14 0,29 C 11.39,73 5.78,73 0,73 0,48.91 0,24.82 0,0 Z"
         fill="#df7933"
         transform="translate(354,678)"
         id="path33155" /><path
         d="m 0,0 c 1.3945645,0.00667256 2.7891112,0.01863093 4.1835937,0.03515625 1.066377,0.0067676 1.066377,0.0067676 2.1542969,0.01367187 1.7611033,0.01181949 3.5221635,0.0297555 5.2832034,0.04882813 C 28.909377,40.3105 28.909377,40.3105 37.246094,60.160156 c 0.279031,0.66275 0.558063,1.325499 0.84555,2.008332 0.774831,1.841437 1.54676,3.684095 2.318512,5.526824 0.430064,1.026175 0.860127,2.052349 1.303223,3.10962 0.907715,2.292724 0.907715,2.292724 0.907715,3.292724 -5.94,0 -11.88,0 -18,0 -1.98,-4.95 -3.96,-9.9 -6,-15 -9.9000002,0 -19.8000002,0 -30,0 -1.932224,4.561255 -1.932224,4.561255 -3.859131,9.124756 -2.029758,4.764133 -2.029758,4.764133 -3.140869,5.875244 -2.862676,0.07325 -5.700719,0.09238 -8.5625,0.0625 -0.806309,-0.0045 -1.612617,-0.009 -2.44336,-0.01367 -1.998078,-0.01182 -3.996118,-0.02976 -5.99414,-0.04883 5.825867,-14.960687 12.131518,-29.695544 18.558792,-44.404587 1.832232,-4.193898 3.652122,-8.392946 5.464645,-12.595413 0.46229,-1.070163 0.92458,-2.140327 1.4008792,-3.24292 C -9.0888,11.850026 -8.2244766,9.8446819 -7.3618164,7.838623 -6.9807373,6.9585962 -6.5996582,6.0785693 -6.2070312,5.171875 -5.8760645,4.40448 -5.5450977,3.637085 -5.2041016,2.8464355 -3.7637943,-0.20590803 -3.7161976,0.10740456 0,0 Z m 2.6210938,22.097656 c -1.3391259,3.12255 -2.67030663,6.248424 -4,9.375 -0.5723438,1.33418 -0.5723438,1.33418 -1.1562501,2.695313 -0.3609375,0.850781 -0.7218749,1.701562 -1.09375,2.578125 -0.5027343,1.178283 -0.5027343,1.178283 -1.0156249,2.380371 -0.8507461,1.932961 -0.8507461,1.932961 -0.734375,3.971191 5.93999995,0 11.8799999,0 18.0000002,0 -1.423125,-3.805312 -1.423125,-3.805312 -2.8750002,-7.6875 -0.2950342,-0.789792 -0.5900684,-1.579585 -0.894043,-2.39331 -1.3695932,-3.657027 -2.760843,-7.300996 -4.2309571,-10.91919 -0.6599999,0 -1.3199999,0 -1.9999999,0 z"
         fill="#df7932"
         transform="translate(462.37891,676.90234)"
         id="path33157" /><path
         d="m 0,0 c 5.28,0 10.56,0 16,0 0,19.14 0,38.28 0,58 12.21,0 24.42,0 37,0 0,4.95 0,9.9 0,15 C 35.51,73 18.02,73 0,73 0,48.91 0,24.82 0,0 Z"
         fill="#de752c"
         transform="translate(749,678)"
         id="path33159" /><path
         d="m 0,0 c 1.98,0 3.96,0 6,0 1.969385,2.3608529 3.3817263,4.368994 4.875,7 0.402188,0.6677344 0.804375,1.3354688 1.21875,2.0234375 C 13.082101,10.670689 14.043711,12.333931 15,14 15.33,9.38 15.66,4.76 16,0 c 1.65,0 3.3,0 5,0 0,8.25 0,16.5 0,25 -1.98,0 -3.96,0 -6,0 C 13.030615,22.639147 11.618274,20.631006 10.125,18 9.7228125,17.332266 9.320625,16.664531 8.90625,15.976563 7.9178993,14.329311 6.9562893,12.666069 6,11 5.67,15.62 5.34,20.24 5,25 3.35,25 1.7,25 0,25 0,16.75 0,8.5 0,0 Z"
         fill="#e1813f"
         transform="translate(827,764)"
         id="path33161" /><path
         d="m 0,0 c 1.98,0 3.96,0 6,0 1.969385,2.3608529 3.3817263,4.368994 4.875,7 0.402188,0.6677344 0.804375,1.3354688 1.21875,2.0234375 C 13.082101,10.670689 14.043711,12.333931 15,14 15.33,9.38 15.66,4.76 16,0 c 1.65,0 3.3,0 5,0 0,8.25 0,16.5 0,25 -1.98,0 -3.96,0 -6,0 C 13.030615,22.639147 11.618274,20.631006 10.125,18 9.7228125,17.332266 9.320625,16.664531 8.90625,15.976563 7.9178993,14.329311 6.9562893,12.666069 6,11 5.67,15.62 5.34,20.24 5,25 3.35,25 1.7,25 0,25 0,16.75 0,8.5 0,0 Z"
         fill="#e1813f"
         transform="translate(706,764)"
         id="path33163" /><path
         d="M 0,0 C 12.279808,-0.49615385 12.279808,-0.49615385 15.925781,2.015625 16.610273,2.6704688 17.294766,3.3253125 18,4 17.835,4.94875 17.67,5.8975 17.5,6.875 16.947336,9.801689 16.947336,9.801689 17,12 c 0.515625,0.5775 1.03125,1.155 1.5625,1.75 C 20,16 20,16 19.875,19.0625 18.64007,23.208336 18.64007,23.208336 16,25 13.17074,25.218532 10.626688,25.282625 7.8125,25.1875 5.234375,25.125625 2.65625,25.06375 0,25 0,16.75 0,8.5 0,0 Z m 5,5 c 0,1.65 0,3.3 0,5 2.31,0 4.62,0 7,0 C 12,8.35 12,6.7 12,5 9.69,5 7.38,5 5,5 Z m 0,9 c 0,2.31 0,4.62 0,7 4.6505287,0.269325 4.6505287,0.269325 9,-1 -0.379042,-3.29076 -0.379042,-3.29076 -2,-6 -2.3329743,-0.04093 -4.6670523,-0.04242 -7,0 z"
         fill="#e18240"
         transform="translate(581,764)"
         id="path33165" /><path
         d="M 0,0 C 2.9375,1.3125 2.9375,1.3125 5,3 5.33,3.99 5.66,4.98 6,6 4.35,6.66 2.7,7.32 1,8 0.34,7.34 -0.32,6.68 -1,6 -4,5.5833333 -4,5.5833333 -7,6 c -2.5401488,3.8102231 -2.5860696,6.534708 -2,11 0.961179,2.128707 0.961179,2.128707 3,3 3.1254902,0.250486 3.1254902,0.250486 6,0 0,-0.99 0,-1.98 0,-3 -1.65,-0.33 -3.3,-0.66 -5,-1 0,-1.65 0,-3.3 0,-5 3.63,0 7.26,0 11,0 0,4.62 0,9.24 0,14 -2.3333333,0 -4.6666667,0 -7,0 -1.0725,0.2475 -2.145,0.495 -3.25,0.75 C -8,26 -8,26 -11.3125,24.4375 -14.491595,21.554135 -15.296221,20.222677 -16,16 -16.135763,10.713721 -15.917912,7.1532744 -12.5625,2.9375 -8.4320198,-0.18554598 -5.1007053,-0.55697357 0,0 Z"
         fill="#e38849"
         transform="translate(868,764)"
         id="path33167" /><path
         d="m 0,0 c 1.0209375,0.86625 1.0209375,0.86625 2.0625,1.75 0,1.32 0,2.64 0,4 -1.32,0.33 -2.64,0.66 -4,1 0,-0.66 0,-1.32 0,-2 -2.64,0 -5.28,0 -8,0 -1.907858,3.1749094 -2.160904,5.1058521 -1.625,8.75 0.110859,0.799219 0.221719,1.598437 0.335937,2.421875 0.09539,0.603281 0.190782,1.206562 0.289063,1.828125 3.9775413,0.733344 3.9775413,0.733344 8,1 0.33,-1.32 0.66,-2.64 1,-4 -1.98,0 -3.96,0 -6,0 0,-1.65 0,-3.3 0,-5 3.63,0 7.26,0 11,0 0,4.62 0,9.24 0,14 -2.33333333,0 -4.6666667,0 -7,0 -0.9075,0.226875 -1.815,0.45375 -2.75,0.6875 -4.065095,0.390875 -5.869875,-0.45969 -9.25,-2.6875 -3.13566,-4.783754 -2.731901,-10.518059 -2,-16 1.363039,-2.7942289 2.580879,-3.9184308 5,-6 C -8.3265871,-1.786971 -4.5067241,-1.9177549 0,0 Z"
         fill="#e28545"
         transform="translate(526.9375,765.25)"
         id="path33169" /><path
         d="m 0,0 c 2.9220713,2.5881202 4.3616029,5.1774949 5.1875,8.9375 0.2750232,4.651127 -0.3379475,8.648683 -3.0625,12.5 -3.9348361,3.348797 -5.8032027,3.5 -10.9375,3.5 -3.309372,-0.75213 -4.750211,-1.771027 -7.25,-4.0625 -2.645712,-4.441016 -3.415752,-8.873863 -2.308594,-13.96875 C -17.286541,3.9810564 -15.951574,2.0606802 -13.625,0 -8.8594198,-1.8003303 -4.7655802,-1.8003303 0,0 Z m -11.6875,5.4375 c -1.600203,3.5560056 -1.82274,6.666351 -1.125,10.5 1.440149,2.691385 1.440149,2.691385 4,4 3.1336272,0.08892 3.1336272,0.08892 6,-1 2.47082138,-3.706232 2.54464038,-6.703393 2,-11 -0.9324387,-2.5795168 -0.9324387,-2.5795168 -3,-4 -3.4022616,-0.5670436 -5.1375547,-0.6899562 -7.875,1.5 z"
         fill="#e28545"
         transform="translate(696.8125,765.0625)"
         id="path33171" /><path
         d="m 0,0 c 2.9220713,2.5881202 4.3616029,5.1774949 5.1875,8.9375 0.2750232,4.651127 -0.3379475,8.648683 -3.0625,12.5 -3.9348361,3.348797 -5.8032027,3.5 -10.9375,3.5 -3.309372,-0.75213 -4.750211,-1.771027 -7.25,-4.0625 -2.645712,-4.441016 -3.415752,-8.873863 -2.308594,-13.96875 C -17.286541,3.9810564 -15.951574,2.0606802 -13.625,0 -8.8594198,-1.8003303 -4.7655802,-1.8003303 0,0 Z m -11.6875,5.4375 c -1.600203,3.5560056 -1.82274,6.666351 -1.125,10.5 1.440149,2.691385 1.440149,2.691385 4,4 3.1336272,0.08892 3.1336272,0.08892 6,-1 2.47082138,-3.706232 2.54464038,-6.703393 2,-11 -0.9324387,-2.5795168 -0.9324387,-2.5795168 -3,-4 -3.4022616,-0.5670436 -5.1375547,-0.6899562 -7.875,1.5 z"
         fill="#e28545"
         transform="translate(365.8125,765.0625)"
         id="path33173" /><path
         d="M 0,0 C 3.0178499,1.7560765 5.4146822,3.8293644 7,7 7.4846815,12.37917 7.9184386,17.299188 5.3125,22.125 1.5655932,25.163033 -1.1939974,26.235617 -6,25.9375 -10.26677,25.268045 -12.322774,23.407379 -15,20 -16.686,14.942 -16.585206,10.632418 -14.8125,5.6875 -11.189611,0.31562991 -6.3737493,-1.3693602 0,0 Z M -8.6640625,6.2070312 C -10.419991,8.5636717 -10.433158,10.082504 -10.4375,13 c -0.01934,0.86625 -0.03867,1.7325 -0.05859,2.625 0.296851,2.511182 0.296851,2.511182 2.3281252,4.191406 C -5.9543529,21.257857 -5.9543529,21.257857 -2.875,20.9375 0.05625158,20.307305 0.05625158,20.307305 1.1953125,18.230469 2.1187462,15.670854 2.0913761,14.061091 1.75,11.375 1.6623437,10.598984 1.5746875,9.8229687 1.484375,9.0234375 1.1354564,6.7867497 1.1354564,6.7867497 -1,5 -5.0828693,4.5173198 -5.0828693,4.5173198 -8.6640625,6.2070312 Z"
         fill="#e28443"
         transform="translate(569,764)"
         id="path33175" /><path
         d="m 0,0 c 13.821429,0 13.821429,0 18,3 3.640502,3.9547898 3.440796,7.194438 3.289062,12.367188 C 20.930986,18.62859 20.206848,20.556704 18,23 12.807862,26.489998 5.9403821,25.110007 0,25 0,16.75 0,8.5 0,0 Z m 5,5 c 0,5.28 0,10.56 0,16 5.450211,-0.168159 5.450211,-0.168159 10,-2.6875 1.615544,-3.735945 1.560271,-6.831782 0.125,-10.625 C 14.09561,5.8410805 14.09561,5.8410805 12,5 9.69,5 7.38,5 5,5 Z"
         fill="#e17f3c"
         transform="translate(301,764)"
         id="path33177" /><path
         d="m 0,0 c 1.4540625,0.0309375 1.4540625,0.0309375 2.9375,0.0625 3.8939329,8.0763054 6.4353062,16.433502 9,25 -1.98,0 -3.96,0 -6,0 -0.495,-2.475 -0.495,-2.475 -1,-5 -3.3,0 -6.6,0 -10,0 -0.33,1.65 -0.66,3.3 -1,5 -1.98,0 -3.96,0 -6,0 1.307669,-3.980771 2.6219382,-7.959331 3.9375,-11.9375 0.5597754,-1.704463 0.5597754,-1.704463 1.1308594,-3.4433594 C -6.6364258,8.6020508 -6.2787109,7.5224609 -5.9101562,6.4101562 -5.5802368,5.4099243 -5.2503174,4.4096924 -4.9104004,3.3791504 -3.7012685,0.07553609 -3.7012685,0.07553609 0,0 Z m -1.0625,8.0625 c -0.66,2.31 -1.32,4.62 -2,7 1.98,0 3.96,0 6,0 -0.66,-2.31 -1.32,-4.62 -2,-7 -0.66,0 -1.32,0 -2,0 z"
         fill="#e28545"
         transform="translate(408.0625,763.9375)"
         id="path33179" /><path
         d="m 0,0 c 1.4540625,0.0309375 1.4540625,0.0309375 2.9375,0.0625 3.8939329,8.0763054 6.4353062,16.433502 9,25 -1.98,0 -3.96,0 -6,0 -0.495,-2.475 -0.495,-2.475 -1,-5 -3.3,0 -6.6,0 -10,0 -0.33,1.65 -0.66,3.3 -1,5 -1.98,0 -3.96,0 -6,0 1.307669,-3.980771 2.6219382,-7.959331 3.9375,-11.9375 0.5597754,-1.704463 0.5597754,-1.704463 1.1308594,-3.4433594 C -6.6364258,8.6020508 -6.2787109,7.5224609 -5.9101562,6.4101562 -5.5802368,5.4099243 -5.2503174,4.4096924 -4.9104004,3.3791504 -3.7012685,0.07553609 -3.7012685,0.07553609 0,0 Z m -1.0625,8.0625 c -0.66,2.31 -1.32,4.62 -2,7 1.98,0 3.96,0 6,0 -0.66,-2.31 -1.32,-4.62 -2,-7 -0.66,0 -1.32,0 -2,0 z"
         fill="#e28545"
         transform="translate(286.0625,763.9375)"
         id="path33181" /><path
         d="m 0,0 c 2.31,0 4.62,0 7,0 1.3411785,3.6012962 2.6715839,7.2064786 4,10.8125 0.381562,1.02416 0.763125,2.04832 1.15625,3.103516 0.360938,0.98291 0.721875,1.96582 1.09375,2.978515 0.502734,1.358954 0.502734,1.358954 1.015625,2.745362 C 15,22 15,22 15,25 13.35,25 11.7,25 10,25 9.7653906,24.355469 9.5307813,23.710937 9.2890625,23.046875 8.1883893,20.792209 8.1883893,20.792209 5.8359375,20.390625 4.6177734,20.321016 4.6177734,20.321016 3.375,20.25 2.5577344,20.193281 1.7404687,20.136562 0.8984375,20.078125 -0.04128906,20.039453 -0.04128906,20.039453 -1,20 c -0.33,1.65 -0.66,3.3 -1,5 -1.98,0 -3.96,0 -6,0 C -5.8540644,16.451151 -3.0505873,8.2594953 0,0 Z M 3,6 C 2.34,8.97 1.68,11.94 1,15 2.65,15 4.3,15 6,15 5.34,12.03 4.68,9.06 4,6 3.67,6 3.34,6 3,6 Z"
         fill="#e28544"
         transform="translate(610,764)"
         id="path33183" /><path
         d="M 0,0 C 2.9375,1.5 2.9375,1.5 5,3 4.34,4.32 3.68,5.64 3,7 0.03,6.67 -2.94,6.34 -6,6 -6.33,6.99 -6.66,7.98 -7,9 -6.3967187,9.0979688 -5.7934375,9.1959375 -5.171875,9.296875 -1.5022184,9.9834559 1.4284024,10.646154 4.625,12.625 6.407912,15.704575 6.3815502,17.701006 5.7304687,21.15625 5,23 5,23 2.4375,25.0625 -2.0158011,26.277037 -4.4886861,26.018684 -9,25 c -2.5,-1.5625 -2.5,-1.5625 -4,-3 0.66,-1.65 1.32,-3.3 2,-5 0.721875,0.495 1.44375,0.99 2.1875,1.5 2.9609866,1.579193 4.5250303,1.781783 7.8125,1.5 0.33,-1.32 0.66,-2.64 1,-4 C -0.60328125,15.91363 -1.2065625,15.827266 -1.828125,15.738281 -5.9024232,15.021993 -8.4299566,14.488609 -11.625,11.75 -13,9 -13,9 -13.0625,5.875 -12,3 -12,3 -9.875,1.125 -6.3037793,-0.2724342 -3.8103216,-0.40824875 0,0 Z"
         fill="#e28748"
         transform="translate(744,764)"
         id="path33185" /><path
         d="M 0,0 C 2.9375,1.5 2.9375,1.5 5,3 4.34,4.32 3.68,5.64 3,7 -0.3,6.34 -3.6,5.68 -7,5 c 0,1.32 0,2.64 0,4 0.6032813,0.086367 1.2065625,0.1727344 1.828125,0.2617188 C -1.0975768,9.9780066 1.4299566,10.511391 4.625,13.25 6.3638211,16.727642 6.1950167,18.335282 5,22 3.9375,23.8125 3.9375,23.8125 2,25 -2.6294182,26.062489 -4.9386176,26.366659 -9.4375,24.8125 -12,23 -12,23 -12.875,20.8125 -12.91625,20.214375 -12.9575,19.61625 -13,19 c 0.99,-0.66 1.98,-1.32 3,-2 0.53625,0.495 1.0725,0.99 1.625,1.5 C -5.4064155,20.374895 -3.4468757,20.235014 0,20 0,18.68 0,17.36 0,16 -0.60328125,15.902031 -1.2065625,15.804063 -1.828125,15.703125 -5.5337753,15.00981 -8.4282978,14.367523 -11.625,12.3125 -13,10 -13,10 -13.0625,6.4375 -12,3 -12,3 -9.875,1.0625 -6.3114492,-0.25446444 -3.7771337,-0.4046929 0,0 Z"
         fill="#e28647"
         transform="translate(473,764)"
         id="path33187" /><path
         d="m 0,0 c 1.65,0 3.3,0 5,0 0.33,6.6 0.66,13.2 1,20 2.64,0 5.28,0 8,0 0.33,-6.6 0.66,-13.2 1,-20 1.65,0 3.3,0 5,0 0.116679,3.2288601 0.187405,6.4571744 0.25,9.6875 0.05027,1.368018 0.05027,1.368018 0.101562,2.763672 0.06205,4.265767 0.03949,6.855475 -2.089843,10.630859 C 14.732375,26.074963 11.525276,26.298991 7,26 3.9766314,24.649133 2.3241461,23.324146 0,21 -0.22705078,18.845215 -0.22705078,18.845215 -0.1953125,16.210937 -0.1888675,15.269922 -0.1824219,14.328906 -0.1757812,13.359375 -0.1590234,12.374531 -0.1422656,11.389688 -0.1249999,10.375 -0.1159769,9.3824219 -0.106953,8.3898438 -0.09765615,7.3671875 -0.07404116,4.9112187 -0.04110799,2.4557283 0,0 Z"
         fill="#e1823f"
         transform="translate(754,764)"
         id="path33189" /><path
         d="m 0,0 c 5.28,0 10.56,0 16,0 0.33,1.65 0.66,3.3 1,5 -3.96,0 -7.92,0 -12,0 0,1.65 0,3.3 0,5 3.3,0 6.6,0 10,0 0,1.65 0,3.3 0,5 -3.3,0 -6.6,0 -10,0 0,1.98 0,3.96 0,6 3.96,0 7.92,0 12,0 0,1.32 0,2.64 0,4 C 11.39,25 5.78,25 0,25 0,16.75 0,8.5 0,0 Z"
         fill="#e18341"
         transform="translate(441,764)"
         id="path33191" /><path
         d="M 0,0 C 2.875,1.25 2.875,1.25 5,3 5.8125,5.1875 5.8125,5.1875 6,7 4.35,7.33 2.7,7.66 1,8 0.67,7.34 0.34,6.68 0,6 -2.64,6 -5.28,6 -8,6 -8.053891,7.9580351 -8.092742,9.9164891 -8.125,11.875 -8.159805,13.51082 -8.159805,13.51082 -8.195312,15.179688 -8.3006053,18.137105 -8.3006053,18.137105 -6,20 c 2.4148241,0.500599 2.4148241,0.500599 5,0 2.3137715,-1.895841 2.3137715,-1.895841 4,-4 1.32,0.99 2.64,1.98 4,3 C 5.5789146,21.842171 4.5308129,23.666346 1.8125,25.375 -2.0130099,26.225113 -5.249207,26.197223 -9,25 -11.642338,22.807422 -13.466698,21.066604 -15,18 -15.418493,13.452912 -15.536184,9.3263491 -13.8125,5.0625 -9.7154613,0.4003525 -6.1610832,-0.66011606 0,0 Z"
         fill="#e3884a"
         transform="translate(670,764)"
         id="path33193" /><path
         d="M 0,0 C 2.875,1.25 2.875,1.25 5,3 5.8125,5.1875 5.8125,5.1875 6,7 4.35,7.33 2.7,7.66 1,8 0.67,7.34 0.34,6.68 0,6 -2.64,6 -5.28,6 -8,6 -8.053891,7.9580351 -8.092742,9.9164891 -8.125,11.875 -8.159805,13.51082 -8.159805,13.51082 -8.195312,15.179688 -8.3006053,18.137105 -8.3006053,18.137105 -6,20 c 2.4148241,0.500599 2.4148241,0.500599 5,0 2.3137715,-1.895841 2.3137715,-1.895841 4,-4 1.32,0.99 2.64,1.98 4,3 C 5.5789146,21.842171 4.5308129,23.666346 1.8125,25.375 -2.0130099,26.225113 -5.249207,26.197223 -9,25 -11.642338,22.807422 -13.466698,21.066604 -15,18 -15.418493,13.452912 -15.536184,9.3263491 -13.8125,5.0625 -9.7154613,0.4003525 -6.1610832,-0.66011606 0,0 Z"
         fill="#e3884a"
         transform="translate(389,764)"
         id="path33195" /><path
         d="M 0,0 C 1.65,0 3.3,0 5,0 5.6272611,1.5407481 6.2516901,3.0826492 6.875,4.625 7.2230469,5.4835156 7.5710937,6.3420312 7.9296875,7.2265625 9.0452168,10.117167 10.020204,13.060612 11,16 12.98,10.72 14.96,5.44 17,0 c 1.65,0 3.3,0 5,0 -0.597786,5.6341296 -2.05896,10.564609 -4,15.875 -0.273281,0.770859 -0.546563,1.541719 -0.828125,2.335937 C 15.14466,23.85534 15.14466,23.85534 14,25 12.000416,25.040808 9.9995475,25.042544 8,25 0,5.7659574 0,5.7659574 0,0 Z"
         fill="#e28646"
         transform="translate(324,764)"
         id="path33197" /><path
         d="m 0,0 c 6.27,0 12.54,0 19,0 0.33,1.65 0.66,3.3 1,5 -2.31,0 -4.62,0 -7,0 0,6.6 0,13.2 0,20 -1.98,0 -3.96,0 -6,0 C 7,18.4 7,11.8 7,5 4.69,5 2.38,5 0,5 0,3.35 0,1.7 0,0 Z"
         fill="#e48f54"
         transform="translate(793,764)"
         id="path33199" /><path
         d="m 0,0 c 6.27,0 12.54,0 19,0 0.33,1.65 0.66,3.3 1,5 -2.31,0 -4.62,0 -7,0 0,6.6 0,13.2 0,20 -1.98,0 -3.96,0 -6,0 C 7,18.4 7,11.8 7,5 4.69,5 2.38,5 0,5 0,3.35 0,1.7 0,0 Z"
         fill="#e48f54"
         transform="translate(418,764)"
         id="path33201" /><path
         d="m 0,0 c 1.65,0 3.3,0 5,0 0,6.93 0,13.86 0,21 3.63,0 7.26,0 11,0 0,1.32 0,2.64 0,4 C 10.39,25 4.78,25 -1,25 -1.026826,21.020789 -1.046754,17.041757 -1.0625,13.0625 -1.07088,11.926191 -1.079258,10.789883 -1.087891,9.6191406 -1.091111,8.5395508 -1.094341,7.4599609 -1.097661,6.3476562 -1.102901,5.3474243 -1.108135,4.3471924 -1.11353,3.3166504 -1,1 -1,1 0,0 Z"
         fill="#e3894b"
         transform="translate(629,764)"
         id="path33203" /><path
         d="m 0,0 c 1.65,0 3.3,0 5,0 0,6.93 0,13.86 0,21 3.63,0 7.26,0 11,0 0,1.32 0,2.64 0,4 C 10.39,25 4.78,25 -1,25 -1.026826,21.020789 -1.046754,17.041757 -1.0625,13.0625 -1.07088,11.926191 -1.079258,10.789883 -1.087891,9.6191406 -1.091111,8.5395508 -1.094341,7.4599609 -1.097661,6.3476562 -1.102901,5.3474243 -1.108135,4.3471924 -1.11353,3.3166504 -1,1 -1,1 0,0 Z"
         fill="#e3894b"
         transform="translate(536,764)"
         id="path33205" /><path
         d="m 0,0 c 1.65,0 3.3,0 5,0 0,6.93 0,13.86 0,21 3.63,0 7.26,0 11,0 0,1.32 0,2.64 0,4 C 10.72,25 5.44,25 0,25 0,16.75 0,8.5 0,0 Z"
         fill="#df7b35"
         transform="translate(780,764)"
         id="path33207" /><path
         d="M 0,0 C 1.65,0 3.3,0 5,0 5,9.9 5,19.8 5,30 3.35,30 1.7,30 0,30 0,20.1 0,10.2 0,0 Z"
         fill="#e1813f"
         transform="translate(491,763)"
         id="path33209" /><path
         d="M 0,0 C 1.65,0 3.3,0 5,0 5,8.25 5,16.5 5,25 3.35,25 1.7,25 0,25 0,16.75 0,8.5 0,0 Z"
         fill="#e07b35"
         transform="translate(816,764)"
         id="path33211" /></g></g></svg>
