<svg version="1.1" id="Layer_1" xmlns="http://www.w3.org/2000/svg" xmlns:xlink="http://www.w3.org/1999/xlink" x="0px" y="0px"
	 width="100%" viewBox="0 0 1024 1024" enable-background="new 0 0 1024 1024" xml:space="preserve">
<path fill="#FFFFFC" opacity="1.000000" stroke="none" 
	d="
M573.000000,1025.000000 
	C382.000000,1025.000000 191.500000,1025.000000 1.000000,1025.000000 
	C1.000000,683.666687 1.000000,342.333344 1.000000,1.000000 
	C342.333344,1.000000 683.666687,1.000000 1025.000000,1.000000 
	C1025.000000,342.333344 1025.000000,683.666687 1025.000000,1025.000000 
	C874.500000,1025.000000 724.000000,1025.000000 573.000000,1025.000000 
M806.080933,227.928284 
	C806.080933,227.928284 806.201599,227.902100 806.087463,227.325287 
	C805.751770,227.155075 805.416138,226.984848 805.107910,226.918488 
	C805.107910,226.918488 805.190063,226.849228 804.969055,226.270477 
	C804.434021,226.028473 803.899048,225.786469 803.147278,225.594589 
	C803.147278,225.594589 803.133911,225.816620 802.861023,225.055862 
	C801.268250,224.698013 799.675781,224.028656 798.082703,224.027252 
	C737.997864,223.974411 677.912537,223.906479 617.829041,224.196808 
	C614.635925,224.212234 611.457825,227.322495 607.915588,229.403656 
	C607.886963,229.583023 607.858276,229.762405 607.899841,229.995956 
	C607.899841,229.995956 607.946350,229.920334 607.232971,230.293655 
	C606.693420,233.345383 605.695801,236.395523 605.685303,239.449066 
	C605.580505,269.884277 605.619324,300.320038 605.655701,330.755615 
	C605.697998,366.168640 605.778381,401.581573 606.075867,436.802307 
	C606.075867,436.802307 605.900330,436.555847 604.975037,436.483307 
	C604.476318,436.495880 603.977661,436.519104 603.478943,436.519501 
	C550.892517,436.560669 498.306061,436.600159 445.462799,436.234253 
	C445.253174,435.804108 445.043518,435.373993 444.956940,434.019226 
	C444.970490,368.588318 445.003876,303.157379 444.914886,237.726624 
	C444.911804,235.439072 443.690094,233.153168 442.797302,230.240906 
	C440.207611,228.476669 437.617950,226.712418 434.620972,224.176819 
	C434.127441,224.118668 433.633942,224.009628 433.140411,224.009583 
	C369.635162,224.003143 306.129883,223.998459 242.624649,224.046600 
	C241.229889,224.047653 239.835587,224.656723 237.779160,224.838348 
	C233.486023,226.465820 231.408813,229.890915 230.049759,234.988342 
	C230.031616,327.290588 230.005569,419.592804 229.997589,511.895050 
	C229.989853,601.365112 229.972824,690.835266 230.126831,780.305115 
	C230.131882,783.234985 231.961197,786.161804 232.955917,789.013916 
	C232.955917,789.013916 232.878220,789.015747 232.569565,789.646973 
	C233.032761,790.128174 233.495956,790.609314 233.983353,791.018005 
	C233.983353,791.018005 233.909698,791.038391 234.166367,791.648132 
	C235.106888,792.141846 236.047394,792.635620 236.991760,793.035767 
	C236.991760,793.035767 236.898285,793.041565 237.326309,793.713440 
	C240.075943,794.147644 242.825104,794.957397 245.575256,794.960754 
	C307.058502,795.035950 368.541870,795.025085 430.025208,795.011353 
	C431.679504,795.010925 433.333710,794.798462 435.669525,794.613647 
	C438.125061,792.468384 440.580597,790.323181 443.754120,787.794250 
	C444.171387,785.219604 444.950104,782.645325 444.953186,780.070190 
	C445.033844,712.386230 445.034241,644.702148 445.128448,577.083740 
	C445.128448,577.083740 445.211365,577.021790 446.117401,577.004456 
	C499.196960,577.004456 552.276550,577.004456 605.389648,577.004456 
	C605.515991,578.053101 605.623230,578.528076 605.623352,579.003052 
	C605.638367,645.814331 605.617310,712.625671 605.748962,779.436707 
	C605.754639,782.327393 607.162109,785.215393 607.918396,788.018982 
	C607.918396,788.018982 607.836792,788.045044 607.792175,788.694031 
	C608.178833,789.158508 608.565552,789.622925 608.984741,790.010925 
	C608.984741,790.010925 608.909363,790.045898 609.124634,790.689087 
	C610.003235,791.254639 610.881775,791.820190 611.909302,792.297729 
	C611.909302,792.297729 611.813049,792.153992 611.851257,792.947266 
	C614.694580,793.656799 617.536682,794.979980 620.381348,794.985474 
	C679.187683,795.099487 737.994263,795.070679 796.800781,795.018188 
	C798.352661,795.016846 799.904053,794.434875 802.027222,794.248840 
	C802.354980,794.055664 802.682739,793.862427 803.569580,793.575317 
	C804.104126,793.099060 804.638672,792.622803 805.046448,792.048035 
	C805.046448,792.048035 805.130066,792.185120 805.810669,791.991882 
	C809.067749,788.963257 810.071960,785.223450 810.068481,780.812378 
	C809.997559,690.829041 810.016357,600.845581 810.015137,510.862152 
	C810.013916,419.878906 810.038391,328.895599 809.883911,237.912643 
	C809.878845,234.912262 808.045349,231.914993 807.010437,228.983658 
	C807.010437,228.983658 807.094177,228.963303 807.023621,228.387268 
	C806.715942,228.193634 806.408325,228.000015 806.080933,227.928284 
z"/>
<path fill="#09405E" opacity="1.000000" stroke="none" 
	d="
M803.010437,793.669189 
	C802.682739,793.862427 802.354980,794.055664 801.247437,794.118286 
	C743.317261,793.986084 686.166626,794.036377 629.016479,793.903137 
	C623.280640,793.889771 617.547485,792.763672 611.813049,792.153992 
	C611.813049,792.153992 611.909302,792.297729 611.823853,791.983521 
	C610.795410,791.128174 609.852417,790.587036 608.909363,790.045898 
	C608.909363,790.045898 608.984741,790.010925 609.010864,789.715576 
	C608.636902,788.961853 608.236877,788.503418 607.836792,788.045044 
	C607.836792,788.045044 607.918396,788.018982 607.973511,787.635010 
	C607.685486,784.133911 607.045898,781.017151 607.043030,777.899780 
	C606.983276,712.323853 607.004517,646.747864 606.950745,581.171936 
	C606.949036,579.107666 606.318237,577.044006 605.687500,574.686157 
	C604.416687,574.261841 603.439209,574.017639 602.461670,574.017273 
	C552.065857,573.999329 501.670013,573.994751 451.274200,574.041260 
	C449.871307,574.042542 448.468933,574.615845 446.753815,574.971313 
	C446.020905,575.054871 445.600464,575.089478 445.117920,574.651367 
	C445.085297,529.123535 445.114838,484.068481 445.534302,439.008606 
	C447.596527,438.699371 449.268829,438.394989 451.293457,438.051697 
	C452.116943,438.038300 452.588135,438.063812 453.340149,438.365112 
	C456.727020,438.456757 459.833069,438.272644 463.325531,438.045349 
	C464.487701,438.030762 465.263458,438.059357 466.118896,438.240601 
	C466.451080,438.295166 466.703552,438.197113 467.396759,438.055115 
	C469.901825,438.045685 471.966125,438.080231 474.088531,438.451477 
	C476.078217,438.558502 478.009796,438.328796 480.402710,438.054352 
	C484.263489,438.037659 487.663025,438.065674 491.343994,438.367950 
	C494.731934,438.455383 497.838379,438.268585 501.401733,438.039154 
	C504.915131,438.035614 507.971588,438.074707 511.064117,438.413757 
	C512.379150,438.512390 513.658081,438.311035 515.287476,438.068298 
	C516.106934,438.052521 516.575928,438.078125 517.124878,438.253357 
	C517.454041,438.304901 517.703308,438.206787 518.394531,438.063660 
	C520.908203,438.044189 522.979919,438.069794 525.188721,438.305054 
	C525.865601,438.377014 526.405396,438.239319 527.415344,438.055969 
	C535.600403,438.046997 543.315308,438.083740 551.062012,438.411682 
	C552.047607,438.499390 553.001343,438.295868 554.389038,438.047333 
	C556.566589,438.032074 558.310242,438.061829 560.230896,438.326385 
	C561.252991,438.406464 562.098022,438.251770 563.293945,438.059143 
	C564.113770,438.046875 564.582825,438.072510 565.189392,438.308350 
	C565.867554,438.377869 566.408203,438.237183 567.355713,438.052368 
	C568.851624,438.044128 569.940674,438.080048 571.075256,438.436127 
	C572.070862,438.541718 573.020935,438.327087 574.403320,438.063904 
	C576.574768,438.043762 578.313843,438.072174 580.188599,438.310059 
	C580.862488,438.385559 581.400635,438.251587 582.409119,438.068604 
	C589.143372,438.003845 595.409546,438.072327 601.669678,437.908417 
	C603.090698,437.871185 604.490662,437.028015 605.900330,436.555847 
	C605.900330,436.555847 606.075867,436.802307 606.296997,436.642883 
	C606.679077,434.848022 606.977051,433.212799 606.979919,431.577087 
	C607.012695,413.096008 606.915283,394.614380 607.016418,376.133789 
	C607.283203,327.395721 607.630859,278.658112 607.946350,229.920334 
	C607.946350,229.920334 607.899841,229.995956 608.136597,229.947388 
	C608.565613,229.612656 608.757874,229.326508 609.269409,228.945862 
	C611.096436,227.954010 612.604126,227.056641 614.410278,226.428589 
	C615.526855,226.797913 616.345032,226.985245 617.163147,226.985443 
	C672.395447,226.999435 727.627686,227.005844 782.859924,226.955505 
	C784.248657,226.954239 785.636841,226.312485 787.490356,225.938782 
	C793.014893,225.877625 798.074402,225.847122 803.133911,225.816620 
	C803.133911,225.816620 803.147278,225.594589 803.235229,225.929276 
	C803.945496,226.459045 804.567810,226.654144 805.190063,226.849228 
	C805.190063,226.849228 805.107910,226.918488 805.134155,227.167908 
	C805.507446,227.578918 805.854553,227.740509 806.201599,227.902100 
	C806.201599,227.902100 806.080933,227.928284 806.109741,228.164795 
	C806.457031,228.588638 806.775635,228.775970 807.094177,228.963318 
	C807.094177,228.963303 807.010437,228.983658 806.978027,229.353928 
	C807.601135,232.798187 808.818237,235.873001 808.813843,238.946045 
	C808.796082,251.363419 808.273804,263.779480 808.199036,276.197601 
	C808.160095,282.669678 808.741699,289.143127 808.897827,295.619476 
	C809.008179,300.195984 808.906677,304.778839 808.843811,309.358093 
	C808.686279,320.834351 808.454834,332.309723 808.334839,343.786285 
	C808.253540,351.558807 808.251831,359.333252 808.318970,367.105927 
	C808.447876,382.027740 808.696472,396.948578 808.797668,411.870483 
	C808.831055,416.794678 808.441284,421.721497 808.462036,426.646179 
	C808.491333,433.590607 808.878967,440.535400 808.826538,447.477844 
	C808.765686,455.533264 808.179321,463.587189 808.210938,471.640228 
	C808.253052,482.346222 808.824158,493.050018 808.875183,503.756134 
	C808.909180,510.895172 808.286560,518.035400 808.226868,525.177368 
	C808.169067,532.085205 808.540649,538.995667 808.571350,545.905579 
	C808.618713,556.578918 808.516174,567.252869 808.514587,577.926514 
	C808.513062,588.544556 808.623779,599.162903 808.565247,609.780457 
	C808.495911,622.358582 808.143982,634.936646 808.196289,647.513550 
	C808.257385,662.210876 808.789490,676.906677 808.803894,691.603516 
	C808.815918,703.818726 808.262756,716.033447 808.162537,728.250061 
	C808.042664,742.860535 807.949219,757.476379 808.222961,772.082825 
	C808.353210,779.033630 808.749084,785.876587 805.130066,792.185120 
	C805.130066,792.185120 805.046448,792.048035 804.798706,792.009583 
	C804.037476,792.537109 803.523926,793.103149 803.010437,793.669189 
z"/>
<path fill="#DF742A" opacity="1.000000" stroke="none" 
	d="
M445.144348,439.013428 
	C445.114838,484.068481 445.085297,529.123535 445.058716,574.966064 
	C445.111511,576.176270 445.161438,576.599060 445.211365,577.021790 
	C445.211365,577.021790 445.128448,577.083740 444.768127,577.323486 
	C444.262177,579.704834 443.990143,581.846436 443.989380,583.988159 
	C443.966919,646.602783 443.994598,709.217468 443.931152,771.832031 
	C443.925629,777.280945 443.348022,782.729309 443.036133,788.177917 
	C440.580597,790.323181 438.125061,792.468384 435.203491,794.360840 
	C423.167877,794.076782 411.598114,794.075623 400.028717,794.009094 
	C345.651855,793.696472 291.275085,793.365784 236.898285,793.041565 
	C236.898285,793.041565 236.991760,793.035767 236.897125,792.752502 
	C235.838226,791.992310 234.873962,791.515320 233.909698,791.038391 
	C233.909698,791.038391 233.983353,791.018005 233.991150,790.732300 
	C233.625381,789.969604 233.251816,789.492676 232.878235,789.015747 
	C232.878220,789.015747 232.955917,789.013916 232.923126,788.656372 
	C232.261902,784.736023 231.085388,781.173462 231.083649,777.610413 
	C230.996185,598.371887 231.011414,419.133331 230.980789,239.894760 
	C230.980453,237.957901 230.522781,236.021088 230.278595,234.084259 
	C231.408813,229.890915 233.486023,226.465820 238.621628,224.901031 
	C304.652161,224.958527 369.840210,224.953354 435.028259,224.948181 
	C437.617950,226.712418 440.207611,228.476669 442.896271,230.989990 
	C443.320831,237.020615 443.923523,242.301804 443.929626,247.583694 
	C443.999542,308.122314 443.970917,368.661072 444.017883,429.199738 
	C444.019379,431.114655 444.549988,433.029144 444.833923,434.943848 
	C445.043518,435.373993 445.253174,435.804108 445.427765,436.627472 
	C445.308929,437.327850 445.225159,437.635010 445.093628,438.210114 
	C445.078674,438.656525 445.111511,438.834991 445.144348,439.013428 
z"/>
<path fill="#041017" opacity="1.000000" stroke="none" 
	d="
M805.470337,792.088501 
	C808.749084,785.876587 808.353210,779.033630 808.222961,772.082825 
	C807.949219,757.476379 808.042664,742.860535 808.162537,728.250061 
	C808.262756,716.033447 808.815918,703.818726 808.803894,691.603516 
	C808.789490,676.906677 808.257385,662.210876 808.196289,647.513550 
	C808.143982,634.936646 808.495911,622.358582 808.565247,609.780457 
	C808.623779,599.162903 808.513062,588.544556 808.514587,577.926514 
	C808.516174,567.252869 808.618713,556.578918 808.571350,545.905579 
	C808.540649,538.995667 808.169067,532.085205 808.226868,525.177368 
	C808.286560,518.035400 808.909180,510.895172 808.875183,503.756134 
	C808.824158,493.050018 808.253052,482.346222 808.210938,471.640228 
	C808.179321,463.587189 808.765686,455.533264 808.826538,447.477844 
	C808.878967,440.535400 808.491333,433.590607 808.462036,426.646179 
	C808.441284,421.721497 808.831055,416.794678 808.797668,411.870483 
	C808.696472,396.948578 808.447876,382.027740 808.318970,367.105927 
	C808.251831,359.333252 808.253540,351.558807 808.334839,343.786285 
	C808.454834,332.309723 808.686279,320.834351 808.843811,309.358093 
	C808.906677,304.778839 809.008179,300.195984 808.897827,295.619476 
	C808.741699,289.143127 808.160095,282.669678 808.199036,276.197601 
	C808.273804,263.779480 808.796082,251.363419 808.813843,238.946045 
	C808.818237,235.873001 807.601135,232.798187 807.004822,229.320236 
	C808.045349,231.914993 809.878845,234.912262 809.883911,237.912643 
	C810.038391,328.895599 810.013916,419.878906 810.015137,510.862152 
	C810.016357,600.845581 809.997559,690.829041 810.068481,780.812378 
	C810.071960,785.223450 809.067749,788.963257 805.470337,792.088501 
z"/>
<path fill="#DE2601" opacity="1.000000" stroke="none" 
	d="
M230.164185,234.536301 
	C230.522781,236.021088 230.980453,237.957901 230.980789,239.894760 
	C231.011414,419.133331 230.996185,598.371887 231.083649,777.610413 
	C231.085388,781.173462 232.261902,784.736023 232.915237,788.694397 
	C231.961197,786.161804 230.131882,783.234985 230.126831,780.305115 
	C229.972824,690.835266 229.989853,601.365112 229.997589,511.895050 
	C230.005569,419.592804 230.031616,327.290588 230.164185,234.536301 
z"/>
<path fill="#030406" opacity="1.000000" stroke="none" 
	d="
M445.664368,577.013123 
	C445.161438,576.599060 445.111511,576.176270 445.120850,575.438843 
	C445.600464,575.089478 446.020905,575.054871 447.214539,575.008911 
	C500.652069,574.991760 553.316406,574.985901 605.980774,574.980042 
	C606.318237,577.044006 606.949036,579.107666 606.950745,581.171936 
	C607.004517,646.747864 606.983276,712.323853 607.043030,777.899780 
	C607.045898,781.017151 607.685486,784.133911 607.972534,787.677795 
	C607.162109,785.215393 605.754639,782.327393 605.748962,779.436707 
	C605.617310,712.625671 605.638367,645.814331 605.623352,579.003052 
	C605.623230,578.528076 605.515991,578.053101 605.389648,577.004456 
	C552.276550,577.004456 499.196960,577.004456 445.664368,577.013123 
z"/>
<path fill="#041017" opacity="1.000000" stroke="none" 
	d="
M802.997437,225.436249 
	C798.074402,225.847122 793.014893,225.877625 787.019104,225.916656 
	C752.585266,225.916168 719.087585,225.872528 685.590088,225.909912 
	C661.763977,225.936493 637.937927,226.072235 614.111877,226.159271 
	C612.604126,227.056641 611.096436,227.954010 609.099854,228.941299 
	C608.610962,229.031219 608.272705,228.992004 608.272705,228.992004 
	C611.457825,227.322495 614.635925,224.212234 617.829041,224.196808 
	C677.912537,223.906479 737.997864,223.974411 798.082703,224.027252 
	C799.675781,224.028656 801.268250,224.698013 802.997437,225.436249 
z"/>
<path fill="#DE2601" opacity="1.000000" stroke="none" 
	d="
M443.395142,787.986084 
	C443.348022,782.729309 443.925629,777.280945 443.931152,771.832031 
	C443.994598,709.217468 443.966919,646.602783 443.989380,583.988159 
	C443.990143,581.846436 444.262177,579.704834 444.728088,577.290649 
	C445.034241,644.702148 445.033844,712.386230 444.953186,780.070190 
	C444.950104,782.645325 444.171387,785.219604 443.395142,787.986084 
z"/>
<path fill="#030406" opacity="1.000000" stroke="none" 
	d="
M607.589661,230.106995 
	C607.630859,278.658112 607.283203,327.395721 607.016418,376.133789 
	C606.915283,394.614380 607.012695,413.096008 606.979919,431.577087 
	C606.977051,433.212799 606.679077,434.848022 606.180176,436.739014 
	C605.778381,401.581573 605.697998,366.168640 605.655701,330.755615 
	C605.619324,300.320038 605.580505,269.884277 605.685303,239.449066 
	C605.695801,236.395523 606.693420,233.345383 607.589661,230.106995 
z"/>
<path fill="#DE2601" opacity="1.000000" stroke="none" 
	d="
M444.895447,434.481537 
	C444.549988,433.029144 444.019379,431.114655 444.017883,429.199738 
	C443.970917,368.661072 443.999542,308.122314 443.929626,247.583694 
	C443.923523,242.301804 443.320831,237.020615 443.015808,231.302795 
	C443.690094,233.153168 444.911804,235.439072 444.914886,237.726624 
	C445.003876,303.157379 444.970490,368.588318 444.895447,434.481537 
z"/>
<path fill="#DE2601" opacity="1.000000" stroke="none" 
	d="
M237.112305,793.377502 
	C291.275085,793.365784 345.651855,793.696472 400.028717,794.009094 
	C411.598114,794.075623 423.167877,794.076782 434.862732,794.396484 
	C433.333710,794.798462 431.679504,795.010925 430.025208,795.011353 
	C368.541870,795.025085 307.058502,795.035950 245.575256,794.960754 
	C242.825104,794.957397 240.075943,794.147644 237.112305,793.377502 
z"/>
<path fill="#E40F00" opacity="1.000000" stroke="none" 
	d="
M434.824615,224.562500 
	C369.840210,224.953354 304.652161,224.958527 238.952576,224.972931 
	C239.835587,224.656723 241.229889,224.047653 242.624649,224.046600 
	C306.129883,223.998459 369.635162,224.003143 433.140411,224.009583 
	C433.633942,224.009628 434.127441,224.118668 434.824615,224.562500 
z"/>
<path fill="#030406" opacity="1.000000" stroke="none" 
	d="
M611.832153,792.550659 
	C617.547485,792.763672 623.280640,793.889771 629.016479,793.903137 
	C686.166626,794.036377 743.317261,793.986084 800.961670,794.055664 
	C799.904053,794.434875 798.352661,795.016846 796.800781,795.018188 
	C737.994263,795.070679 679.187683,795.099487 620.381348,794.985474 
	C617.536682,794.979980 614.694580,793.656799 611.832153,792.550659 
z"/>
<path fill="#030406" opacity="1.000000" stroke="none" 
	d="
M445.141357,437.942169 
	C445.225159,437.635010 445.308929,437.327850 445.556183,436.830200 
	C498.306061,436.600159 550.892517,436.560669 603.478943,436.519501 
	C603.977661,436.519104 604.476318,436.495880 605.437683,436.519592 
	C604.490662,437.028015 603.090698,437.871185 601.669678,437.908417 
	C595.409546,438.072327 589.143372,438.003845 582.096191,438.027588 
	C580.892944,438.057220 580.472900,438.078888 580.052917,438.100555 
	C578.313843,438.072174 576.574768,438.043762 574.036621,438.028015 
	C572.501648,438.065796 571.765686,438.090851 571.029724,438.115936 
	C569.940674,438.080048 568.851624,438.044128 567.040222,438.020447 
	C565.895874,438.054504 565.473877,438.076324 565.051880,438.098145 
	C564.582825,438.072510 564.113770,438.046875 562.933960,438.024048 
	C561.500061,438.048431 560.776978,438.069977 560.053894,438.091553 
	C558.310242,438.061829 556.566589,438.032074 554.024170,438.016083 
	C552.493652,438.060059 551.761902,438.090240 551.030212,438.120453 
	C543.315308,438.083740 535.600403,438.046997 527.100708,438.021912 
	C525.894470,438.054169 525.473022,438.074799 525.051636,438.095459 
	C522.979919,438.069794 520.908203,438.044189 518.167908,438.037231 
	C517.499329,438.055847 517.044922,438.103760 517.044922,438.103760 
	C516.575928,438.078125 516.106934,438.052521 514.898376,438.034546 
	C513.115234,438.066040 512.071655,438.089905 511.028076,438.113770 
	C507.971588,438.074707 504.915131,438.035614 500.954926,438.007050 
	C497.054993,438.042938 494.058746,438.068298 491.062531,438.093689 
	C487.663025,438.065674 484.263489,438.037659 479.982697,438.022308 
	C477.411102,438.061584 475.720764,438.088196 474.030457,438.114777 
	C471.966125,438.080231 469.901825,438.045685 467.167969,438.028809 
	C466.498444,438.046509 466.039246,438.087952 466.039246,438.087952 
	C465.263458,438.059357 464.487701,438.030762 462.879333,438.013184 
	C459.050934,438.045929 456.055145,438.067657 453.059326,438.089355 
	C452.588135,438.063812 452.116943,438.038300 450.881470,438.022461 
	C448.458557,438.002136 446.799957,437.972168 445.141357,437.942169 
z"/>
<path fill="#030406" opacity="1.000000" stroke="none" 
	d="
M609.016968,790.367493 
	C609.852417,790.587036 610.795410,791.128174 611.749390,792.027466 
	C610.881775,791.820190 610.003235,791.254639 609.016968,790.367493 
z"/>
<path fill="#DE2601" opacity="1.000000" stroke="none" 
	d="
M234.038025,791.343262 
	C234.873962,791.515320 235.838226,791.992310 236.895203,792.799316 
	C236.047394,792.635620 235.106888,792.141846 234.038025,791.343262 
z"/>
<path fill="#041017" opacity="1.000000" stroke="none" 
	d="
M803.290039,793.622253 
	C803.523926,793.103149 804.037476,792.537109 804.862122,792.058838 
	C804.638672,792.622803 804.104126,793.099060 803.290039,793.622253 
z"/>
<path fill="#041017" opacity="1.000000" stroke="none" 
	d="
M805.079590,226.559845 
	C804.567810,226.654144 803.945496,226.459045 803.343628,225.904205 
	C803.899048,225.786469 804.434021,226.028473 805.079590,226.559845 
z"/>
<path fill="#030406" opacity="1.000000" stroke="none" 
	d="
M607.814453,788.369507 
	C608.236877,788.503418 608.636902,788.961853 608.994629,789.753784 
	C608.565552,789.622925 608.178833,789.158508 607.814453,788.369507 
z"/>
<path fill="#DE2601" opacity="1.000000" stroke="none" 
	d="
M232.723907,789.331360 
	C233.251816,789.492676 233.625381,789.969604 233.979050,790.768555 
	C233.495956,790.609314 233.032761,790.128174 232.723907,789.331360 
z"/>
<path fill="#030406" opacity="1.000000" stroke="none" 
	d="
M608.094116,229.197830 
	C608.272705,228.992004 608.610962,229.031219 608.780518,229.035782 
	C608.757874,229.326508 608.565613,229.612656 608.101440,229.920288 
	C607.858276,229.762405 607.886963,229.583023 608.094116,229.197830 
z"/>
<path fill="#041017" opacity="1.000000" stroke="none" 
	d="
M806.144531,227.613678 
	C805.854553,227.740509 805.507446,227.578918 805.120422,227.115967 
	C805.416138,226.984848 805.751770,227.155075 806.144531,227.613678 
z"/>
<path fill="#041017" opacity="1.000000" stroke="none" 
	d="
M807.058899,228.675293 
	C806.775635,228.775970 806.457031,228.588638 806.119568,228.103851 
	C806.408325,228.000015 806.715942,228.193634 807.058899,228.675293 
z"/>
<path fill="#0E4C6D" opacity="1.000000" stroke="none" 
	d="
M614.410278,226.428589 
	C637.937927,226.072235 661.763977,225.936493 685.590088,225.909912 
	C719.087585,225.872528 752.585266,225.916168 786.554077,225.947296 
	C785.636841,226.312485 784.248657,226.954239 782.859924,226.955505 
	C727.627686,227.005844 672.395447,226.999435 617.163147,226.985443 
	C616.345032,226.985245 615.526855,226.797913 614.410278,226.428589 
z"/>
<path fill="#0E547A" opacity="1.000000" stroke="none" 
	d="
M605.687500,574.686157 
	C553.316406,574.985901 500.652069,574.991760 447.527039,574.960022 
	C448.468933,574.615845 449.871307,574.042542 451.274200,574.041260 
	C501.670013,573.994751 552.065857,573.999329 602.461670,574.017273 
	C603.439209,574.017639 604.416687,574.261841 605.687500,574.686157 
z"/>
<path fill="#0E4C6D" opacity="1.000000" stroke="none" 
	d="
M453.340149,438.365112 
	C456.055145,438.067657 459.050934,438.045929 462.492950,438.056366 
	C459.833069,438.272644 456.727020,438.456757 453.340149,438.365112 
z"/>
<path fill="#0E4C6D" opacity="1.000000" stroke="none" 
	d="
M474.088531,438.451477 
	C475.720764,438.088196 477.411102,438.061584 479.521423,438.067047 
	C478.009796,438.328796 476.078217,438.558502 474.088531,438.451477 
z"/>
<path fill="#0E4C6D" opacity="1.000000" stroke="none" 
	d="
M491.343994,438.367950 
	C494.058746,438.068298 497.054993,438.042938 500.498016,438.049652 
	C497.838379,438.268585 494.731934,438.455383 491.343994,438.367950 
z"/>
<path fill="#0E4C6D" opacity="1.000000" stroke="none" 
	d="
M511.064117,438.413757 
	C512.071655,438.089905 513.115234,438.066040 514.547974,438.075928 
	C513.658081,438.311035 512.379150,438.512390 511.064117,438.413757 
z"/>
<path fill="#0E4C6D" opacity="1.000000" stroke="none" 
	d="
M445.093597,438.210114 
	C446.799957,437.972168 448.458557,438.002136 450.529144,438.061371 
	C449.268829,438.394989 447.596527,438.699371 445.534271,439.008606 
	C445.111511,438.834991 445.078674,438.656525 445.093597,438.210114 
z"/>
<path fill="#0E4C6D" opacity="1.000000" stroke="none" 
	d="
M571.075256,438.436127 
	C571.765686,438.090851 572.501648,438.065796 573.604309,438.076599 
	C573.020935,438.327087 572.070862,438.541718 571.075256,438.436127 
z"/>
<path fill="#0E4C6D" opacity="1.000000" stroke="none" 
	d="
M551.062012,438.411682 
	C551.761902,438.090240 552.493652,438.060059 553.590210,438.061096 
	C553.001343,438.295868 552.047607,438.499390 551.062012,438.411682 
z"/>
<path fill="#0E4C6D" opacity="1.000000" stroke="none" 
	d="
M560.230896,438.326355 
	C560.776978,438.069977 561.500061,438.048431 562.583130,438.061951 
	C562.098022,438.251770 561.252991,438.406464 560.230896,438.326355 
z"/>
<path fill="#0E4C6D" opacity="1.000000" stroke="none" 
	d="
M565.189392,438.308350 
	C565.473877,438.076324 565.895874,438.054504 566.633362,438.064575 
	C566.408203,438.237183 565.867554,438.377869 565.189392,438.308350 
z"/>
<path fill="#0E4C6D" opacity="1.000000" stroke="none" 
	d="
M580.188599,438.310059 
	C580.472900,438.078888 580.892944,438.057220 581.625854,438.076599 
	C581.400635,438.251587 580.862488,438.385559 580.188599,438.310059 
z"/>
<path fill="#0E4C6D" opacity="1.000000" stroke="none" 
	d="
M525.188721,438.305084 
	C525.473022,438.074799 525.894470,438.054169 526.630493,438.067596 
	C526.405396,438.239319 525.865601,438.377014 525.188721,438.305084 
z"/>
<path fill="#0E4C6D" opacity="1.000000" stroke="none" 
	d="
M517.124878,438.253357 
	C517.044922,438.103760 517.499329,438.055847 517.725952,438.082275 
	C517.703308,438.206787 517.454041,438.304901 517.124878,438.253357 
z"/>
<path fill="#0E4C6D" opacity="1.000000" stroke="none" 
	d="
M466.118896,438.240601 
	C466.039246,438.087952 466.498444,438.046509 466.727234,438.072784 
	C466.703552,438.197113 466.451080,438.295166 466.118896,438.240601 
z"/>
</svg>