<svg version="1.1" id="Layer_1" xmlns="http://www.w3.org/2000/svg" xmlns:xlink="http://www.w3.org/1999/xlink" x="0px" y="0px"
	 width="100%" viewBox="0 0 500 500" enable-background="new 0 0 500 500" xml:space="preserve">
<path fill="#000000" opacity="1.000000" stroke="none" 
	d="
M263.000000,501.000000 
	C175.333359,501.000000 88.166710,501.000000 1.000047,501.000000 
	C1.000031,334.333405 1.000031,167.666794 1.000016,1.000136 
	C167.666565,1.000091 334.333130,1.000091 500.999756,1.000045 
	C500.999847,167.666519 500.999847,334.333038 500.999939,500.999786 
	C421.833344,501.000000 342.666656,501.000000 263.000000,501.000000 
M219.940552,282.980255 
	C244.945877,282.990265 269.951202,283.000305 294.996918,283.945587 
	C294.997955,315.695648 294.982971,347.445770 295.045746,379.195709 
	C295.048981,380.836304 295.716797,382.475586 296.232483,384.729187 
	C297.851227,386.131042 299.469971,387.532928 301.321533,389.797699 
	C330.889069,389.864288 360.456573,389.936890 390.024139,389.955017 
	C390.625793,389.955383 391.227844,389.321716 392.466888,388.708527 
	C393.639984,387.422485 394.813080,386.136444 396.835785,384.627380 
	C396.887451,384.298676 396.984375,383.970001 396.984406,383.641296 
	C396.994873,294.512604 397.002777,205.383926 396.952728,116.255280 
	C396.952148,115.185646 396.202454,114.116447 395.332245,112.694733 
	C394.527313,111.847748 393.722412,111.000771 392.742737,109.260544 
	C362.300262,109.176804 331.857819,109.088699 301.415283,109.053284 
	C300.984802,109.052780 300.553528,109.712700 299.736816,110.564285 
	C298.518280,111.976227 297.299744,113.388168 295.275238,115.221268 
	C295.183502,117.038467 295.013794,118.855568 295.011627,120.672874 
	C294.974792,151.441086 294.958801,182.209305 294.008514,213.001221 
	C268.718231,213.020920 243.427948,213.040619 217.926819,212.135803 
	C217.910431,210.473831 217.882690,208.811905 217.879333,207.149902 
	C217.819077,177.396057 217.761780,147.642197 217.821945,117.501747 
	C217.821945,117.501747 217.688171,117.120277 217.815292,116.419067 
	C217.800919,115.944771 217.786545,115.470474 217.964661,114.365593 
	C217.643936,113.862755 217.323212,113.359917 216.741470,112.300797 
	C215.867767,111.850891 214.994064,111.400986 214.036835,110.486610 
	C214.036835,110.486610 213.857208,110.050613 213.656754,109.193077 
	C181.845444,109.129318 150.034134,109.057297 118.222816,109.050072 
	C117.439705,109.049896 116.656441,109.768204 115.335388,110.280075 
	C114.897644,110.847641 114.459908,111.415207 113.468033,112.053993 
	C113.282066,112.360970 113.096092,112.667946 112.982430,112.990601 
	C112.982430,112.990601 112.946953,112.925667 112.157204,113.322594 
	C112.096962,113.816673 111.983940,114.310745 111.983940,114.804825 
	C111.984100,203.589081 111.987862,292.373352 112.043434,381.157562 
	C112.044250,382.464081 112.693855,383.770172 113.024658,385.475250 
	C113.024658,385.475250 113.119781,385.862854 113.075401,386.565125 
	C114.381462,387.414307 115.687515,388.263489 117.410004,389.878387 
	C148.477005,389.918701 179.544006,389.966797 210.610992,389.956421 
	C211.418961,389.956146 212.226700,389.317169 212.996948,389.028198 
	C212.996948,389.028198 213.052414,389.060730 213.781357,388.923187 
	C216.005630,388.035278 218.876633,387.674957 217.854553,383.116608 
	C217.885727,349.777283 217.916901,316.437958 218.489822,283.038910 
	C218.662964,282.985565 218.836121,282.932220 219.940552,282.980255 
z"/>
<path fill="#0B415F" opacity="1.000000" stroke="none" 
	d="
M301.088715,388.934784 
	C299.469971,387.532928 297.851227,386.131042 296.175873,383.946472 
	C296.105743,382.002350 296.082458,380.840942 296.080139,379.679504 
	C296.015656,347.480774 295.953278,315.282074 295.942413,282.839905 
	C295.994232,282.596466 295.939545,282.101685 296.028198,281.809631 
	C295.525208,281.336182 294.933685,280.996765 294.341827,280.996185 
	C270.795654,280.972595 247.249435,280.966248 223.703354,281.020538 
	C222.451645,281.023438 221.201187,281.572418 219.772919,281.942017 
	C219.595673,282.016876 219.226654,282.125885 219.192551,282.051544 
	C219.158447,281.977203 219.099258,281.824646 219.095795,281.367920 
	C219.146606,258.977081 219.200897,237.042953 219.707153,215.085083 
	C243.906052,215.048065 267.653046,215.054489 291.399750,214.975662 
	C292.923767,214.970596 294.445587,214.306564 296.001709,213.695862 
	C295.987701,213.279083 295.940399,213.115524 295.974426,212.492584 
	C296.064209,179.622177 296.072693,147.211151 296.081207,114.800117 
	C297.299744,113.388168 298.518280,111.976227 300.148224,110.347229 
	C300.559631,110.130180 300.991364,110.234222 301.328674,110.475700 
	C302.319397,110.807831 302.972748,110.977417 303.626160,110.977791 
	C331.511597,110.993805 359.397064,111.005592 387.282410,110.962227 
	C388.537537,110.960274 389.791870,110.441956 391.359680,110.120956 
	C392.087708,110.103088 392.502594,110.128433 392.917511,110.153778 
	C393.722412,111.000771 394.527313,111.847748 395.511536,113.192719 
	C395.738800,114.117172 395.786774,114.543655 395.576813,115.298470 
	C395.209900,116.945648 395.005768,118.264465 395.005554,119.583321 
	C394.991608,206.135101 394.989716,292.686859 395.030212,379.238617 
	C395.030975,380.833038 395.553467,382.427185 395.911926,384.221069 
	C395.991272,384.420715 395.986145,384.850372 395.986145,384.850403 
	C394.813080,386.136444 393.639984,387.422485 391.693909,388.803467 
	C360.976868,388.910522 331.032776,388.922638 301.088715,388.934784 
z"/>
<path fill="#DF752B" opacity="1.000000" stroke="none" 
	d="
M113.119781,385.862854 
	C113.119781,385.862854 113.024658,385.475250 113.072205,385.005402 
	C113.151184,384.356110 113.182632,384.176636 113.450035,383.658203 
	C113.788765,381.834625 113.981255,380.349976 113.981483,378.865356 
	C113.994850,292.521027 113.996277,206.176697 113.960785,119.832382 
	C113.960129,118.225143 113.502846,116.618080 113.260246,114.646301 
	C113.156906,113.829659 113.051926,113.377663 112.946953,112.925667 
	C112.946953,112.925667 112.982430,112.990601 113.252548,113.032150 
	C113.689163,112.710052 113.855675,112.346413 114.022171,111.982773 
	C114.459908,111.415207 114.897644,110.847641 115.882706,110.258690 
	C116.614861,110.269493 116.799683,110.301689 117.343071,110.538849 
	C118.692360,110.831177 119.683083,110.994965 120.673782,110.994812 
	C151.822647,110.990051 182.971512,110.969345 214.120377,110.951073 
	C214.994064,111.400986 215.867767,111.850891 216.884399,112.875320 
	C217.275589,113.965294 217.523880,114.480736 217.772171,114.996178 
	C217.786545,115.470474 217.800919,115.944771 217.649551,116.845314 
	C217.358429,117.537285 217.431763,117.742882 217.703842,117.888351 
	C217.761780,147.642197 217.819077,177.396057 217.879333,207.149902 
	C217.882690,208.811905 217.910431,210.473831 218.030579,212.812653 
	C218.134323,213.489487 218.188599,213.915390 218.074890,214.168167 
	C217.906372,214.596939 217.851578,214.772919 217.548401,215.286102 
	C217.187042,216.272644 216.976044,216.921860 216.975342,217.571320 
	C216.953842,237.488571 216.936890,257.405884 216.987122,277.323029 
	C216.990280,278.576752 217.542694,279.829132 217.880951,281.268921 
	C217.922318,281.455719 217.958847,281.836639 217.933502,282.151947 
	C217.921448,282.677704 217.934753,282.888153 217.948074,283.098633 
	C217.916901,316.437958 217.885727,349.777283 217.537323,383.759033 
	C215.830887,385.954559 214.441650,387.507660 213.052414,389.060730 
	C213.052414,389.060730 212.996948,389.028198 212.550903,388.918457 
	C193.514664,388.810913 174.924362,388.852173 156.334320,388.801941 
	C143.560272,388.767426 130.786560,388.605865 117.919159,388.199463 
	C116.256996,387.219452 114.688393,386.541138 113.119781,385.862854 
z"/>
<path fill="#FFFFCD" opacity="1.000000" stroke="none" 
	d="
M112.552078,113.124130 
	C113.051926,113.377663 113.156906,113.829659 113.172699,115.109543 
	C113.054337,117.767387 112.999664,119.597336 112.999619,121.427284 
	C112.997643,199.138947 112.993134,276.850586 113.012138,354.562256 
	C113.014542,364.373871 113.143661,374.185516 113.214081,383.997131 
	C113.182632,384.176636 113.151184,384.356110 113.080200,384.806030 
	C112.693855,383.770172 112.044250,382.464081 112.043434,381.157562 
	C111.987862,292.373352 111.984100,203.589081 111.983940,114.804825 
	C111.983940,114.310745 112.096962,113.816673 112.552078,113.124130 
z"/>
<path fill="#F3FFFF" opacity="1.000000" stroke="none" 
	d="
M396.410950,384.738892 
	C395.986145,384.850372 395.991272,384.420715 395.985657,383.753113 
	C395.986023,298.037048 395.994415,212.988586 395.990967,127.940147 
	C395.990814,123.616806 395.889160,119.293472 395.834778,114.970131 
	C395.786774,114.543655 395.738800,114.117172 395.746613,113.368866 
	C396.202454,114.116447 396.952148,115.185646 396.952728,116.255280 
	C397.002777,205.383926 396.994873,294.512604 396.984406,383.641296 
	C396.984375,383.970001 396.887451,384.298676 396.410950,384.738892 
z"/>
<path fill="#FFFFFF" opacity="1.000000" stroke="none" 
	d="
M295.890564,283.083344 
	C295.953278,315.282074 296.015656,347.480774 296.080139,379.679504 
	C296.082458,380.840942 296.105743,382.002350 296.097229,383.639618 
	C295.716797,382.475586 295.048981,380.836304 295.045746,379.195709 
	C294.982971,347.445770 294.997955,315.695648 295.208374,283.519592 
	C295.419861,283.093567 295.890564,283.083344 295.890564,283.083344 
z"/>
<path fill="#FFEEDC" opacity="1.000000" stroke="none" 
	d="
M116.984497,110.333878 
	C116.799683,110.301689 116.614861,110.269493 116.151642,110.194351 
	C116.656441,109.768204 117.439705,109.049896 118.222816,109.050072 
	C150.034134,109.057297 181.845444,109.129318 213.299561,109.621918 
	C186.944046,110.035912 160.945724,110.000572 134.947433,110.021622 
	C128.959702,110.026466 122.972137,110.224663 116.984497,110.333878 
z"/>
<path fill="#FFFFFF" opacity="1.000000" stroke="none" 
	d="
M295.678223,115.010696 
	C296.072693,147.211151 296.064209,179.622177 295.735107,212.477264 
	C295.414490,212.921310 294.938202,212.977524 294.938202,212.977524 
	C294.958801,182.209305 294.974792,151.441086 295.011627,120.672874 
	C295.013794,118.855568 295.183502,117.038467 295.678223,115.010696 
z"/>
<path fill="#AE5733" opacity="1.000000" stroke="none" 
	d="
M117.343071,110.538849 
	C122.972137,110.224663 128.959702,110.026466 134.947433,110.021622 
	C160.945724,110.000572 186.944046,110.035912 213.399780,110.050690 
	C213.857208,110.050613 214.036835,110.486610 214.078613,110.718842 
	C182.971512,110.969345 151.822647,110.990051 120.673782,110.994812 
	C119.683083,110.994965 118.692360,110.831177 117.343071,110.538849 
z"/>
<path fill="#FFFFFF" opacity="1.000000" stroke="none" 
	d="
M118.012703,388.501129 
	C130.786560,388.605865 143.560272,388.767426 156.334320,388.801941 
	C174.924362,388.852173 193.514664,388.810913 212.569702,388.892365 
	C212.226700,389.317169 211.418961,389.956146 210.610992,389.956421 
	C179.544006,389.966797 148.477005,389.918701 117.458420,389.345276 
	C117.675453,388.708496 117.844078,388.604797 118.012703,388.501129 
z"/>
<path fill="#F8FFFF" opacity="1.000000" stroke="none" 
	d="
M392.830139,109.707161 
	C392.502594,110.128433 392.087708,110.103088 390.889526,110.043144 
	C383.632324,110.005844 377.158386,109.984489 370.684540,110.003822 
	C347.453461,110.073181 324.222412,110.156303 300.991364,110.234222 
	C300.991364,110.234222 300.559631,110.130180 300.341125,110.097282 
	C300.553528,109.712700 300.984802,109.052780 301.415283,109.053284 
	C331.857819,109.088699 362.300262,109.176804 392.830139,109.707161 
z"/>
<path fill="#FFFFFF" opacity="1.000000" stroke="none" 
	d="
M301.205139,389.366241 
	C331.032776,388.922638 360.976868,388.910522 391.375305,388.941101 
	C391.227844,389.321716 390.625793,389.955383 390.024139,389.955017 
	C360.456573,389.936890 330.889069,389.864288 301.205139,389.366241 
z"/>
<path fill="#BAC8CE" opacity="1.000000" stroke="none" 
	d="
M294.473358,212.989380 
	C294.938202,212.977524 295.414490,212.921310 295.653809,212.936646 
	C295.940399,213.115524 295.987701,213.279083 295.534454,213.718079 
	C269.743774,214.037582 244.453674,214.081665 218.926315,214.043060 
	C218.522263,213.945374 218.355438,213.930389 218.188599,213.915390 
	C218.188599,213.915390 218.134323,213.489487 218.135986,213.274902 
	C243.427948,213.040619 268.718231,213.020920 294.473358,212.989380 
z"/>
<path fill="#9FAEB9" opacity="1.000000" stroke="none" 
	d="
M295.942383,282.839905 
	C295.890564,283.083344 295.419861,283.093567 295.188171,283.051941 
	C269.951202,283.000305 244.945877,282.990265 219.493805,282.731079 
	C219.047058,282.481903 219.226654,282.125885 219.226654,282.125885 
	C219.226654,282.125885 219.595673,282.016876 220.245972,281.999054 
	C245.910706,282.021393 270.925110,282.061554 295.939545,282.101685 
	C295.939545,282.101685 295.994232,282.596466 295.942383,282.839905 
z"/>
<path fill="#B68764" opacity="1.000000" stroke="none" 
	d="
M213.416885,388.991943 
	C214.441650,387.507660 215.830887,385.954559 217.486328,384.228455 
	C218.876633,387.674957 216.005630,388.035278 213.416885,388.991943 
z"/>
<path fill="#B68764" opacity="1.000000" stroke="none" 
	d="
M117.919159,388.199463 
	C117.844078,388.604797 117.675453,388.708496 117.250206,388.962402 
	C115.687515,388.263489 114.381462,387.414307 113.097595,386.213989 
	C114.688393,386.541138 116.256996,387.219452 117.919159,388.199463 
z"/>
<path fill="#B68764" opacity="1.000000" stroke="none" 
	d="
M217.868408,114.680885 
	C217.523880,114.480736 217.275589,113.965294 217.014893,113.153465 
	C217.323212,113.359917 217.643936,113.862755 217.868408,114.680885 
z"/>
<path fill="#B68764" opacity="1.000000" stroke="none" 
	d="
M219.192551,282.051544 
	C219.226654,282.125885 219.047058,282.481903 219.028168,282.680389 
	C218.836121,282.932220 218.662964,282.985565 218.218948,283.068787 
	C217.934753,282.888153 217.921448,282.677704 218.219482,282.191467 
	C218.720291,281.885315 218.909775,281.854980 219.099258,281.824646 
	C219.099258,281.824646 219.158447,281.977203 219.192551,282.051544 
z"/>
<path fill="#B68764" opacity="1.000000" stroke="none" 
	d="
M217.762894,117.695053 
	C217.431763,117.742882 217.358429,117.537285 217.585999,117.195923 
	C217.688171,117.120277 217.821945,117.501747 217.762894,117.695053 
z"/>
<path fill="#FFFFCD" opacity="1.000000" stroke="none" 
	d="
M113.745102,112.018387 
	C113.855675,112.346413 113.689163,112.710052 113.216393,113.024307 
	C113.096092,112.667946 113.282066,112.360970 113.745102,112.018387 
z"/>
<path fill="#031D2C" opacity="1.000000" stroke="none" 
	d="
M395.576813,115.298470 
	C395.889160,119.293472 395.990814,123.616806 395.990967,127.940147 
	C395.994415,212.988586 395.986023,298.037048 395.906311,383.553467 
	C395.553467,382.427185 395.030975,380.833038 395.030212,379.238617 
	C394.989716,292.686859 394.991608,206.135101 395.005554,119.583321 
	C395.005768,118.264465 395.209900,116.945648 395.576813,115.298470 
z"/>
<path fill="#001723" opacity="1.000000" stroke="none" 
	d="
M301.328674,110.475700 
	C324.222412,110.156303 347.453461,110.073181 370.684540,110.003822 
	C377.158386,109.984489 383.632324,110.005844 390.576416,110.086349 
	C389.791870,110.441956 388.537537,110.960274 387.282410,110.962227 
	C359.397064,111.005592 331.511597,110.993805 303.626160,110.977791 
	C302.972748,110.977417 302.319397,110.807831 301.328674,110.475700 
z"/>
<path fill="#0A2636" opacity="1.000000" stroke="none" 
	d="
M219.163559,214.125748 
	C244.453674,214.081665 269.743774,214.037582 295.501160,213.971298 
	C294.445587,214.306564 292.923767,214.970596 291.399750,214.975662 
	C267.653046,215.054489 243.906052,215.048065 219.650681,214.842026 
	C219.142242,214.622711 219.163559,214.125748 219.163559,214.125748 
z"/>
<path fill="#0F2C3F" opacity="1.000000" stroke="none" 
	d="
M296.028198,281.809631 
	C270.925110,282.061554 245.910706,282.021393 220.423218,281.924194 
	C221.201187,281.572418 222.451645,281.023438 223.703354,281.020538 
	C247.249435,280.966248 270.795654,280.972595 294.341827,280.996185 
	C294.933685,280.996765 295.525208,281.336182 296.028198,281.809631 
z"/>
<path fill="#342C24" opacity="1.000000" stroke="none" 
	d="
M218.926315,214.043060 
	C219.163559,214.125748 219.142242,214.622711 219.198700,214.865784 
	C219.200897,237.042953 219.146606,258.977081 219.095795,281.367920 
	C218.909775,281.854980 218.720291,281.885315 218.244827,281.876160 
	C217.958847,281.836639 217.922318,281.455719 217.946609,280.793518 
	C217.912872,258.403809 217.854843,236.676346 217.796799,214.948883 
	C217.851578,214.772919 217.906372,214.596939 218.074890,214.168167 
	C218.355438,213.930389 218.522263,213.945374 218.926315,214.043060 
z"/>
<path fill="#B95E2B" opacity="1.000000" stroke="none" 
	d="
M113.450035,383.658203 
	C113.143661,374.185516 113.014542,364.373871 113.012138,354.562256 
	C112.993134,276.850586 112.997643,199.138947 112.999619,121.427284 
	C112.999664,119.597336 113.054337,117.767387 113.171066,115.474190 
	C113.502846,116.618080 113.960129,118.225143 113.960785,119.832382 
	C113.996277,206.176697 113.994850,292.521027 113.981483,378.865356 
	C113.981255,380.349976 113.788765,381.834625 113.450035,383.658203 
z"/>
<path fill="#B68764" opacity="1.000000" stroke="none" 
	d="
M217.548401,215.286102 
	C217.854843,236.676346 217.912872,258.403809 217.905243,280.606689 
	C217.542694,279.829132 216.990280,278.576752 216.987122,277.323029 
	C216.936890,257.405884 216.953842,237.488571 216.975342,217.571320 
	C216.976044,216.921860 217.187042,216.272644 217.548401,215.286102 
z"/>
</svg>