<?xml version="1.0" encoding="UTF-8" standalone="no"?>
<!-- Created with Inkscape (http://www.inkscape.org/) -->

<svg
   width="269.01224mm"
   height="282.11212mm"
   viewBox="0 0 269.01224 282.11212"
   version="1.1"
   id="svg53"
   xml:space="preserve"
   xmlns:inkscape="http://www.inkscape.org/namespaces/inkscape"
   xmlns:sodipodi="http://sodipodi.sourceforge.net/DTD/sodipodi-0.dtd"
   xmlns="http://www.w3.org/2000/svg"
   xmlns:svg="http://www.w3.org/2000/svg"><sodipodi:namedview
     id="namedview55"
     pagecolor="#ffffff"
     bordercolor="#000000"
     borderopacity="0.25"
     inkscape:showpageshadow="2"
     inkscape:pageopacity="0.0"
     inkscape:pagecheckerboard="0"
     inkscape:deskcolor="#d1d1d1"
     inkscape:document-units="mm"
     showgrid="false" /><defs
     id="defs50" /><g
     inkscape:label="Layer 1"
     inkscape:groupmode="layer"
     id="layer1"
     transform="translate(54.573538,117.88774)"><path
       style="fill:#093f5c;fill-opacity:1;stroke:none;stroke-width:0.264583"
       d="m -54.531157,-40.846224 c 1.84997,-0.09446 3.92112,1.719527 3.92986,3.704166 0.003,0.7493 -0.60564,1.35255 -0.48895,2.116667 0.26193,1.71741 1.81504,3.191665 1.98649,5.027085 0.12753,1.36287 -0.78158,3.58457 -1.01547,5.02708 -0.24871,1.53458 -0.49398,3.34089 -1.1438,4.7625 -0.42915,0.93901 -1.60417,1.79493 -1.48537,2.91042 0.17172,1.6121 2.01507,2.32595 2.58895,3.70813 0.86545,2.08439 -1.16073,4.3344103 0.92498,6.3785803 1.42822,1.40017 3.49541,0.29818 4.59793,1.63539 0.58235,0.70643 0.39132,1.68063 1.03346,2.38945 2.36829,2.61301995 5.45571,4.27249 7.68139,7.05511 1.18851,1.4859 1.82906,3.90314 2.98026,5.13689 2.11852,2.2703897 5.62901,2.8273397 8.0436,4.5164397 3.78143,2.64477 6.96886,5.60705 11.64167,6.57357 2.30637,0.47704 3.4416995,-1.14856 5.2916595,-2.13228 3.60548,-1.91717 13.83163,-5.08529 16.66875,-0.86545 2.0283005,-0.85302 3.6438505,-2.42067 5.5562505,-3.44382 0.98373,-0.52652 2.1643,-0.58817 3.175,-1.06706 4.62201,-2.1889 8.94901,-4.9437397 14.2875,-4.7236097 1.49172,0.0614 4.70324,1.83753 5.44142,3.1540997 0.64268,1.14618 0.24713,2.32913 1.45336,3.19008 3.18241,2.27198 8.15181,-0.64585 11.09689,-1.87219 -0.84376,2.97286 1.52956,2.21694 3.09536,3.12526 1.02658,0.59558 1.88569,2.3704 2.12752,3.48932 0.38655,1.78779 -0.50509,2.82972 -0.64506,4.49792 -0.14658,1.74995 0.80433,3.53139 0.36539,5.2877 -0.64558,2.5826 -2.03676,3.89705 -0.93927,6.88313 0.73157,1.98993 2.72256,3.3573 4.19814,4.77282 2.77839,2.66541 5.46577,5.53535 8.14547,8.30395 1.40943,1.45627 0.93953,3.21495 1.66766,4.9149 1.03162,2.40903 3.38429,4.17327 4.34261,6.61458 0.60113,1.53115 -1.15623,2.70113 -0.69823,4.23334 1.01547,3.3991 4.55533,6.09229 3.79359,10.05416 -0.42254,2.19869 -2.84427,3.02366 -3.62585,5.02709 -1.06309,2.7252 -1.04987,5.38215 -1.53987,8.20208 -0.66358,3.82217 -1.65524,7.73906 -0.49689,11.64166 0.72178,2.430996 3.00381,3.531926 4.52252,5.404906 1.54676,1.90765 2.23097,4.62228 3.67348,6.65269 0.95911,1.35017 2.53576,2.16985 3.40174,3.57637 1.46342,2.37623 0.15479,4.21508 0.52124,6.59104 0.21034,1.3626 1.52479,2.39183 1.96029,3.70416 0.85884,2.59028 0.49504,5.06413 1.72773,7.67292 2.00872,4.24921 6.21057,6.64898 8.5815,10.41929 0.93715,1.48696 0.75644,3.65919 1.78646,5.18054 1.22291,1.80711 3.56606,2.91836 3.98013,5.30225 0.28549,1.64307 -1.36604,2.35215 -1.27,3.70152 0.11271,1.58486 2.024327,2.81517 2.124337,4.76515 l 7.14375,1.8706 2.38125,-1.41552 6.61458,-2.667 8.73125,0.0953 c 0.66146,-1.28852 1.26207,-0.65087 2.37464,-1.11389 0.73501,-0.30427 1.13771,-1.07421 1.88224,-1.37319 1.72403,-0.68792 3.17395,-0.5424 4.73896,-1.83356 6.35688,-5.23875 9.91129,-12.39308 14.51557,-18.93888 2.43628,-3.46339 5.50254,-9.05404 4.00526,-13.51756 l -1.5875,-0.26458 c 1.47108,-4.6064 6.83736,-3.88938 9.36546,-7.22974 0.78581,-1.03902 0.6096,-2.90751 0.73342,-4.14735 0.5543,-5.54593 -2.95857,-9.82742 -4.27805,-14.816666 l 1.05834,0.52917 c 1.04113,-1.35414 2.4839,-2.16482 3.58775,-3.44355 1.58988,-1.84203 2.60403,-4.16613 4.6183,-5.64833 3.77269,-2.776 9.89383,-4.46881 11.07678,-9.69353 1.03981,-4.60455 -0.99986,-8.98499 -1.47532,-13.49375 -0.2077,-1.96956 0.60881,-3.91822 -0.38841,-5.82084 -1.3028,-2.48523 -3.83725,-3.85498 -4.876,-6.61458 -0.74269,-1.97247 0.66463,-4.27117 0.21272,-6.08145 -0.35507,-1.42399 -2.16667,-1.96532 -2.58974,-3.44355 -0.79772,-2.78686 1.5367,-6.23014 2.52571,-8.73125 0.39529,-0.99986 0.30401,-2.21086 0.80725,-3.15145 1.26365,-2.36167 3.56076,-3.71264 5.10143,-5.77004 2.85988,-3.81793 5.09296,-8.38014 8.65161,-11.6914 2.36537,-2.19948 5.33665,-3.45573 7.53533,-5.9211097 4.75721,-5.33295 7.91104,-12.25921 10.72092,-18.7097503 1.53987,-3.53033 2.96598,-6.59791 3.84439,-10.31875 0.56357,-2.38363 1.50019,-4.16454 0.17992,-6.58468 -0.38364,-0.70274 -0.90223,-0.91361 -1.64306,-0.56912 -2.49238,1.15861 -4.94506,2.70192 -7.67292,3.34645 -2.28071,0.53948 -4.68577,1.64332 -6.87916,2.08174 -0.97896,0.19553 -1.91294,-0.10927 -2.91042,0.19658 -1.64306,0.50351 -2.94481,1.73567 -4.7625,1.47241 -2.28335,-0.33046 -3.21204,-1.96162 -4.86304,-3.22263 -0.70909,-0.54371 -1.58486,-0.36644 -2.28071,-0.95408 1.34408,-0.0735 3.14325,-0.98928 1.92087,-2.56673 -0.65352,-0.84243 -1.92061,-1.19697 -2.70298,-1.95606 -2.26616,-2.19869 -4.08861,-4.192852 -6.89081,-5.856287 -2.09021,-1.240896 -4.88606,-2.18096 -6.39894,-4.208198 -1.62058,-2.171171 -1.65735,-5.253831 -3.25808,-7.362825 -1.5629,-2.058458 -4.6609,-2.872581 -5.78089,-5.303043 -1.47478,-3.200665 -0.78052,-6.37884 -2.45559,-9.523942 -1.27291,-2.389981 -4.44553,-3.353593 -5.52953,-5.561277 -0.59081,-1.203325 0.32253,-2.42861 -0.41301,-3.623468 -1.07474,-1.745457 -2.78633,-3.106738 -3.91848,-4.838171 -2.13281,-3.261519 -3.751,-6.960658 -5.72294,-10.317692 -1.15332,-1.963208 -2.74849,-2.646627 -3.29962,-5.028141 2.35056,2.010569 6.46748,9.705181 7.56338,3.175 0.13308,-0.792956 0.27278,-1.584061 0.37412,-2.38125 1.18269,-0.163513 0.66225,-1.764506 0.47519,-2.645833 -0.52043,-2.452956 -1.92696,-4.703496 -3.12102,-6.879167 -1.63089,1.027111 -3.83911,1.798111 -5.82084,1.438541 -1.82165,-0.33073 -3.05223,-1.407321 -5.02708,-1.23799 -1.3544,0.11616 -2.56619,0.31062 -3.70417,1.10676 -1.10913,0.77602 -2.22911,2.24498 -3.70416,2.20159 -3.43562,-0.10133 -6.9469,-1.16416 -10.31875,-1.75868 -1.31657,-0.23204 -2.67944,0.14181 -3.96875,-0.16669 -1.10252,-0.26352 -1.81954,-1.24381 -2.91042,-1.498601 -1.53458,-0.35825 -3.171557,0.391851 -4.762497,0.0521 -2.35744,-0.50376 -3.71528,-2.54873 -6.35,-2.70298 -2.14021,-0.12515 -6.58363,2.30187 -7.18423,4.41801 -0.31803,1.12025 0.67389,2.11085 0.84111,3.175 0.28707,1.825098 -1.67481,3.060438 -3.18188,3.550975 -1.93675,0.630767 -5.91132,-2.138891 -8.20208,-2.458245 -1.65259,-0.23019 -4.10792,0.257706 -5.48376,-0.82127 -1.16946,-0.91704 -1.25068,-3.16944 -2.77468,-3.75655 -1.62031,-0.62415 -4.24974,-1.49648 -6.02906,-1.49463 -1.47135,0.002 -3.02631,0.7112 -4.49792,0.39952 -2.23679,-0.4736 -3.59939,-2.22647 -5.55625,-3.07155 -1.62428,-0.70114 -2.43152,0.15293 -3.70417,-1.60866 1.76345,-0.97129 4.30398,-3.30677 3.51155,-5.55625 -0.40454,-1.1483 -1.7981,-1.97591 -1.96664,-3.175 -0.16008,-1.13851 0.97816,-2.50534 1.10093,-3.70417 l -2.38125,1.05833 c -1.14485,-5.23134 -6.18993,0.72867 -9.26042,0.23178 -1.74784,-0.28284 -4.63947,-0.66728 -6.35,-0.004 -1.11548,0.43259 -1.93648,1.65206 -3.175,1.78329 -1.62189,0.17172 -3.46789,-0.81703 -5.29167,-0.6432 -2.70192,0.25717 -4.61962,1.38218 -7.14375,2.12857 -1.34884,0.39899 -2.9583,0.17039 -4.23333,0.72046 -1.3131305,0.56674 -2.1672005,1.85341 -3.4395805,2.4855 -1.26947,0.6305 -2.72918,0.64929 -3.96849,1.4515 -1.37583,0.89059 -2.13597999,2.71172 -3.70443,3.2901 -1.58935,0.58605 -3.41101,-0.92605 -5.02708,-0.90938 -1.29646,0.0132 -2.38813,1.04087 -3.70417,0.95885 -1.5356395,-0.0958 -5.4924795,-2.73129 -6.5103395,-2.0447 -1.70418,1.14988 -1.68248,5.22155 -2.92073,6.94505 -1.51659,2.11058 -3.68406,2.45348 -5.63986,3.86265 -1.69254,1.21947 -3.34486,3.707079 -4.02802,5.672669 -1.13109,3.254375 0.63712,7.466541 -1.01441,10.31875 -1.31074,2.264039 -3.84704,5.296693 -6.08039,6.690783 -1.52082,0.949325 -3.5941,1.173956 -4.94003,2.415646 -1.23587,1.140618 -0.94589,2.81596 -1.84732,4.122472 -0.91705,1.329532 -2.48021,2.074863 -3.33508,3.440907 -0.70723,1.1303 -0.61886,2.718858 -1.15384,3.967691 -0.76306,1.781704 -2.31167,3.041386 -3.12447,4.7625 -0.68712,1.454415 -0.62177,3.233208 -1.22793,4.7625 -1.17898,2.974975 -3.25702,4.957762 -2.89216,8.466667 m 259.027077,109.802078 -2.38125,6.61459 c -1.57427,0.16271 -2.80458,0.93106 -2.64583,2.64583 l -6.61459,1.32292 c -1.74889,3.63193 -1.72773,7.27022 -0.80168,11.1125 0.28839,1.1938 1.13506,2.17064 1.15887,3.43958 0.0529,2.77257 -2.54,4.86304 -3.05065,7.409387 -0.18785,0.93583 -0.36512,3.68485 -0.0264,4.57253 0.36777,0.96176 1.32291,1.54279 1.57691,2.57016 0.21696,0.8726 -0.12171,1.75552 0.0106,2.62229 0.8837,5.80469 9.017,5.49778 12.34016,2.5109 2.59556,-2.33151 2.25954,-7.06941 2.9554,-10.16027 0.91546,-4.072197 2.33098,-8.081167 3.19616,-12.170827 0.66675,-3.1586 0.27782,-6.42038 0.7038,-9.52474 0.14023,-1.0369 1.03716,-1.67799 1.28323,-2.66965 0.381,-1.5449 -0.88107,-2.62837 -0.29634,-4.20978 1.01865,1.81266 2.91836,0.94509 2.46592,-1.05833 -0.32015,-1.41209 -1.35467,-2.60853 -1.83356,-3.96875 -0.80434,-2.28256 -1.26471,-4.59396 -2.21986,-6.87917 -0.75141,-0.0238 -1.62189,-0.3601 -2.27541,0.16378 -1.11655,0.89323 -0.29634,1.91214 -0.42598,3.01122 -0.17463,1.47135 -1.78065,2.54423 -3.11944,2.64583 z"
       id="path360" /></g></svg>
