<?xml version="1.0" encoding="UTF-8" standalone="no"?>
<!-- Created with Inkscape (http://www.inkscape.org/) -->

<svg
   version="1.1"
   id="svg48"
   width="1024"
   height="1024"
   viewBox="0 0 1024 1024"
   sodipodi:docname="Bold _H_ in orange and blue.png"
   xml:space="preserve"
   inkscape:export-filename="handel-logo-dark.svg"
   inkscape:export-xdpi="96"
   inkscape:export-ydpi="96"
   xmlns:inkscape="http://www.inkscape.org/namespaces/inkscape"
   xmlns:sodipodi="http://sodipodi.sourceforge.net/DTD/sodipodi-0.dtd"
   xmlns="http://www.w3.org/2000/svg"
   xmlns:svg="http://www.w3.org/2000/svg"><defs
     id="defs52" /><sodipodi:namedview
     id="namedview50"
     pagecolor="#ffffff"
     bordercolor="#000000"
     borderopacity="0.25"
     inkscape:showpageshadow="2"
     inkscape:pageopacity="0.0"
     inkscape:pagecheckerboard="0"
     inkscape:deskcolor="#d1d1d1"
     showgrid="false" /><g
     inkscape:groupmode="layer"
     inkscape:label="Image"
     id="g54"><g
       id="g13097"
       transform="translate(34.28318,-1.4814087)"
       inkscape:transform-center-x="-226.07966"
       inkscape:transform-center-y="-746.82537"><path
         d="m 0,0 c 0.80449854,-0.00538554 1.6089971,-0.01077108 2.4378744,-0.01631981 2.6930702,-0.0142962 5.38565,-0.0071718 8.0787426,-5.287e-5 1.931868,-0.0057027 3.863733,-0.01266657 5.795593,-0.02079773 5.245856,-0.01795753 10.491545,-0.01675814 15.737422,-0.01105762 4.378846,0.0030881 8.75766,-0.0029964 13.136501,-0.0090387 10.329752,-0.01405213 20.659422,-0.01247819 30.989175,-0.0010981 10.658163,0.01148239 21.316074,-0.002595 31.974202,-0.02939647 9.15003,-0.02214801 18.29998,-0.02879642 27.45004,-0.02292359 5.46523,0.003373 10.93031,9.3255e-4 16.39552,-0.016251 5.13909,-0.0154527 10.27781,-0.0115321 15.41689,0.007305 1.88578,0.00369 3.7716,5.6401e-4 5.65736,-0.009886 2.57515,-0.0131802 5.14905,-0.001689 7.72414,0.0159912 0.74563,-0.009605 1.49126,-0.01921 2.25948,-0.0291061 5.10677,0.07210461 8.03101,1.22728939 11.90728,4.53031149 3.42934,4.1296731 3.41888,8.1519363 3.36076,13.3079383 0.003,0.833233 0.005,1.666466 0.008,2.524949 0.005,2.790032 -0.0115,5.579523 -0.028,8.369506 -8.5e-4,2.000712 -3.7e-4,4.001424 10e-4,6.002136 8.7e-4,5.43143 -0.0168,10.862662 -0.0377,16.294046 -0.0187,5.67614 -0.0205,11.352283 -0.0241,17.028448 -0.009,10.748624 -0.034,21.497156 -0.0641,32.245737 -0.0398,14.52456 -0.056,29.04913 -0.0735,43.57373 -0.0282,22.88457 -0.088,45.76895 -0.14255,68.65351 52.8,0 105.6,0 160,0 -0.0464,-14.41687 -0.0928,-28.83375 -0.14062,-43.6875 -0.0204,-9.1237 -0.0399,-18.24738 -0.0547,-27.37109 -0.0237,-14.4872 -0.0517,-28.97431 -0.10645,-43.461429 -0.0399,-10.550551 -0.0657,-21.101026 -0.0746,-31.651649 -0.005,-5.586132 -0.0175,-11.172048 -0.0466,-16.758111 -0.0272,-5.259637 -0.0355,-10.518969 -0.0295,-15.778669 -0.001,-1.928501 -0.009,-3.857011 -0.0244,-5.78545 -0.02,-2.638147 -0.0151,-5.275154 -0.004,-7.913329 -0.0116,-0.758777 -0.0233,-1.517555 -0.0353,-2.299326 0.061,-5.484195 1.34538,-9.7711337 4.51632,-14.2934472 3.88064,-3.37714498 7.72296,-3.42757433 12.66687,-3.38095099 0.76437,-0.00467998 1.52874,-0.00935995 2.31627,-0.01418174 2.55723,-0.01195096 5.11392,-0.00249254 7.67116,0.00694907 1.83497,-0.00406566 3.66993,-0.00940751 5.5049,-0.01593018 4.98134,-0.01368005 9.9625,-0.0083721 14.94385,0.0011373 5.21204,0.007593 10.42405,5.5199e-4 15.63609,-0.0041585 8.75283,-0.0054586 17.50559,0.0017368 26.25842,0.01602173 10.12079,0.0163267 20.24139,0.01103826 30.36217,-0.00547921 8.68802,-0.01361189 17.37599,-0.01553598 26.06402,-0.007684 5.18962,0.0046782 10.37917,0.0052975 15.56879,-0.0046095 4.87886,-0.008663 9.75748,-0.0026598 14.63632,0.01468277 1.79106,0.00396838 3.58215,0.00282479 5.3732,-0.003788 2.44396,-0.0081917 4.88716,0.00207703 7.33107,0.01704026 1.06445,-0.01003825 1.06445,-0.01003825 2.1504,-0.02027929 5.28777,0.06284309 8.31836,1.51713258 12.26647,4.90123018 3.19116,3.8293875 2.39089,8.7978973 2.38143,13.4915833 0.003,1.403451 0.003,1.403451 0.006,2.835255 0.006,3.164779 0.004,6.329515 0.003,9.494299 0.003,2.28004 0.006,4.560081 0.009,6.84012 0.008,6.288642 0.01,12.577272 0.0106,18.865918 0.002,6.078246 0.008,12.156486 0.0141,18.234729 0.0161,16.287903 0.022,32.575806 0.0267,48.863716 0.002,7.70199 0.006,15.40398 0.01,23.10598 0.0128,26.35415 0.0236,52.70831 0.027,79.06247 2.2e-4,1.65478 4.4e-4,3.30955 6.6e-4,4.96432 2.2e-4,1.65882 4.4e-4,3.31763 6.7e-4,4.97644 4.4e-4,3.32797 8.8e-4,6.65595 10e-4,9.98392 1.1e-4,0.82515 2.2e-4,1.65029 3.4e-4,2.50044 0.004,26.76652 0.0195,53.533 0.0429,80.29951 0.0246,28.28588 0.0383,56.57175 0.0395,84.85764 1.7e-4,3.10315 3.8e-4,6.20629 6.3e-4,9.30944 6e-5,0.76411 1.1e-4,1.52821 1.7e-4,2.31547 0.001,12.31264 0.0122,24.62525 0.0267,36.93788 0.0143,12.36795 0.0176,24.73585 0.01,37.1038 -0.004,6.70431 -0.003,13.40851 0.0111,20.11281 0.0126,6.13127 0.0116,12.26237 -6e-4,18.39363 -0.002,2.22408 10e-4,4.44817 0.01,6.67223 0.011,3.01192 0.004,6.02324 -0.008,9.03513 0.008,0.87322 0.0152,1.74643 0.023,2.6461 -0.0497,5.70771 -1.11692,8.93947 -4.89495,13.34717 -3.48142,2.90119 -7.64625,2.40092 -11.91963,2.4039 -0.76196,0.004 -1.52391,0.009 -2.30895,0.0133 -2.56094,0.0134 -5.12184,0.0196 -7.6828,0.0257 -1.83305,0.008 -3.6661,0.0162 -5.49914,0.0248 -6.02591,0.0262 -12.05182,0.0415 -18.07776,0.0558 -2.07359,0.005 -4.14717,0.0107 -6.22076,0.0161 -8.62392,0.0216 -17.24785,0.0404 -25.8718,0.0516 -12.36459,0.0163 -24.72887,0.0494 -37.09334,0.1064 -8.69138,0.0387 -17.38268,0.0582 -26.07414,0.0635 -5.19259,0.004 -10.38485,0.0157 -15.57736,0.0481 -4.88465,0.03 -9.76876,0.0364 -14.65348,0.0246 -1.79228,-2.2e-4 -3.58459,0.008 -5.37678,0.0257 -2.44847,0.0226 -4.89499,0.0144 -7.34348,-10e-4 -0.70808,0.0139 -1.41616,0.0278 -2.14571,0.0421 -5.60573,-0.0896 -7.8508,-1.82864 -11.65487,-5.65007 -2.54939,-3.82409 -2.27244,-6.90286 -2.24051,-11.33318 -0.003,-1.29016 -0.003,-1.29016 -0.005,-2.60639 -0.003,-2.89287 0.008,-5.7855 0.0186,-8.67835 5.6e-4,-2.06938 2.5e-4,-4.13876 -8.9e-4,-6.20815 -5.7e-4,-5.62777 0.0112,-11.25546 0.0251,-16.88322 0.0125,-5.87769 0.0137,-11.75537 0.0161,-17.63307 0.006,-11.1347 0.0226,-22.26936 0.0427,-33.40404 0.0265,-15.04316 0.0373,-30.08633 0.049,-45.1295 0.0188,-23.70806 0.0587,-47.41604 0.095,-71.1241 -53.13,0 -106.26,0 -161,0 0.0464,15.01758 0.0928,30.03516 0.14063,45.50781 0.0204,9.4974 0.0399,18.99478 0.0547,28.49219 0.0238,15.08437 0.0517,30.16864 0.10645,45.25293 0.0398,10.98488 0.0657,21.9697 0.0746,32.95465 0.005,5.81746 0.0175,11.6347 0.0466,17.45209 0.0271,5.47467 0.0355,10.94905 0.0295,16.42378 0.001,2.00997 0.009,4.01995 0.0244,6.02986 0.0199,2.74393 0.0151,5.48676 0.004,8.23071 0.0117,0.79574 0.0233,1.59147 0.0353,2.41131 -0.0557,5.17059 -0.96496,8.23659 -4.51633,12.24467 -4.57928,3.09046 -8.74247,3.43131 -14.12207,3.38768 -0.80127,0.005 -1.60254,0.0108 -2.42809,0.0163 -2.67615,0.0143 -5.3518,0.007 -8.02796,5e-5 -1.92217,0.006 -3.84433,0.0127 -5.76648,0.0208 -5.21481,0.0179 -10.42945,0.0168 -15.64428,0.0111 -4.35404,-0.003 -8.70805,0.003 -13.06209,0.009 -10.2708,0.014 -20.54151,0.0125 -30.81231,0.001 -10.596269,-0.0115 -21.192283,0.003 -31.788518,0.0294 -9.099096,0.0222 -18.198112,0.0288 -27.297233,0.0229 -5.433922,-0.003 -10.867681,-9.4e-4 -16.301579,0.0163 -5.108737,0.0154 -10.217099,0.0115 -15.325821,-0.007 -1.874501,-0.004 -3.7490293,-5.6e-4 -5.6235046,0.01 -2.5597651,0.0132 -5.1182824,0.002 -7.67799375,-0.016 -1.11158415,0.0144 -1.11158415,0.0144 -2.24562455,0.0291 -5.0942129,-0.0724 -8.0461341,-1.18052 -11.8764461,-4.53031 -3.301361,-5.14687 -3.426179,-9.43314 -3.380316,-15.34232 -0.0047,-0.9371 -0.0093,-1.87421 -0.01412,-2.83972 -0.01199,-3.15186 -0.0025,-6.3033 0.0068,-9.45517 -0.0042,-2.27779 -0.0096,-4.55558 -0.01632,-6.83337 -0.0145,-6.26857 -0.01019,-12.53701 -0.0028,-18.80559 0.0042,-6.06311 -0.0056,-12.12618 -0.01491,-18.18927 -0.01968,-13.16807 -0.02201,-26.33609 -0.01681,-39.50417 0.0046,-11.5235 0.004,-23.04699 -0.0018,-34.57049 -7.57e-4,-1.5449 -0.0015,-3.08981 -0.0023,-4.63471 -0.0011,-2.32793 -0.0023,-4.65587 -0.0035,-6.9838 -0.01071,-21.6463 -0.01543,-43.29259 -0.0075,-64.93889 2.98e-4,-0.8162 5.95e-4,-1.63239 9.01e-4,-2.47331 0.0024,-6.62834 0.0051,-13.25668 0.0077,-19.88502 0.0101,-25.86045 0.0017,-51.72084 -0.02149,-77.58128 -0.02606,-29.04541 -0.03892,-58.09077 -0.03181,-87.13619 7.16e-4,-3.09553 0.0014,-6.19107 0.002,-9.2866 1.7e-4,-0.76222 3.39e-4,-1.52443 5.14e-4,-2.30974 0.0023,-11.51709 -0.0057,-23.03414 -0.01881,-34.55122 -0.01489,-13.093675 -0.01578,-26.187264 0.0021,-39.280936 0.0087,-6.684224 0.01058,-13.368266 -0.0047,-20.052493 -0.01376,-6.113979 -0.0092,-12.227655 0.01024,-18.341616 0.0038,-2.216601 7.62e-4,-4.433225 -0.0096,-6.649805 -0.01306,-3.004361 -0.0017,-6.00766 0.016,-9.011974 -0.0097,-0.868122 -0.0193,-1.736243 -0.02924,-2.630672 0.06538,-5.381805 0.965594,-8.4332987 4.529815,-12.7116442 C -8.9676283,0.03436778 -5.0778227,-0.04080704 0,0 Z"
         fill="#093f5c"
         transform="translate(246.03978,222.61232)"
         id="path13075"
         style="fill:#de7329;fill-opacity:1" /><path
         d="m 0,0 c 0.80449854,-0.00538554 1.6089971,-0.01077108 2.4378744,-0.01631981 2.6930702,-0.0142962 5.38565,-0.0071718 8.0787426,-5.287e-5 1.931868,-0.0057027 3.863733,-0.01266657 5.795593,-0.02079773 5.245856,-0.01795753 10.491545,-0.01675814 15.737422,-0.01105762 4.378846,0.0030881 8.75766,-0.0029964 13.136501,-0.0090387 10.329752,-0.01405213 20.659422,-0.01247819 30.989175,-0.0010981 10.658163,0.01148239 21.316074,-0.002595 31.974202,-0.02939647 9.15003,-0.02214801 18.29998,-0.02879642 27.45004,-0.02292359 5.46523,0.003373 10.93031,9.3255e-4 16.39552,-0.016251 5.13909,-0.0154527 10.27781,-0.0115321 15.41689,0.007305 1.88578,0.00369 3.7716,5.6401e-4 5.65736,-0.009886 2.57515,-0.0131802 5.14905,-0.001689 7.72414,0.0159912 0.74563,-0.009605 1.49126,-0.01921 2.25948,-0.0291061 5.10677,0.07210461 8.03101,1.22728939 11.90728,4.53031149 3.42934,4.1296731 3.41888,8.1519363 3.36076,13.3079383 0.003,0.833233 0.005,1.666466 0.008,2.524949 0.005,2.790032 -0.0115,5.579523 -0.028,8.369506 -8.5e-4,2.000712 -3.7e-4,4.001424 10e-4,6.002136 8.7e-4,5.43143 -0.0168,10.862662 -0.0377,16.294046 -0.0187,5.67614 -0.0205,11.352283 -0.0241,17.028448 -0.009,10.748624 -0.034,21.497156 -0.0641,32.245737 -0.0398,14.52456 -0.056,29.04913 -0.0735,43.57373 -0.0282,22.88457 -0.088,45.76895 -0.14255,68.65351 52.8,0 105.6,0 160,0 0,-66.33 0,-132.66 0,-201 0.33,0 0.66,0 1,0 0,66.66 0,133.32 0,202 -53.13,0 -106.26,0 -161,0 0.0464,25.12383 0.0928,50.24766 0.14063,76.13281 0.0204,15.87761 0.0399,31.75521 0.0547,47.63282 0.008,8.33789 0.0159,16.67578 0.0244,25.01367 0.001,1.04504 0.002,2.09009 0.003,3.1668 0.0174,16.88039 0.0489,33.76072 0.0857,50.64107 0.0374,17.3186 0.0596,34.63716 0.0677,51.9558 0.006,10.69001 0.0229,21.37987 0.0553,32.06984 0.0211,7.3265 0.0275,14.65291 0.0223,21.97944 -0.003,4.2296 0.001,8.45894 0.0228,12.6885 0.0195,3.87154 0.0205,7.74263 0.007,11.61419 -0.002,1.40119 0.003,2.8024 0.0159,4.20353 0.0991,11.76297 0.0991,11.76297 -2.15459,15.58721 -4.34297,4.28626 -8.12042,5.64569 -14.22139,5.72021 -1.11158,-0.009 -1.11158,-0.009 -2.24562,-0.0182 -0.80127,0.005 -1.60254,0.0108 -2.42809,0.0163 -2.67615,0.0143 -5.3518,0.007 -8.02796,5e-5 -1.92217,0.006 -3.84433,0.0127 -5.76648,0.0208 -5.21481,0.0179 -10.42945,0.0168 -15.64428,0.0111 -4.35404,-0.003 -8.70805,0.003 -13.06209,0.009 -10.2708,0.014 -20.54151,0.0125 -30.81231,10e-4 -10.596269,-0.0115 -21.192283,0.003 -31.788518,0.0294 -9.099096,0.0222 -18.198112,0.0288 -27.297233,0.0229 -5.433922,-0.003 -10.867681,-9.4e-4 -16.301579,0.0163 -5.108737,0.0154 -10.217099,0.0115 -15.325821,-0.007 -1.874501,-0.004 -3.7490293,-5.6e-4 -5.6235046,0.01 -2.5597651,0.0132 -5.1182824,0.002 -7.67799375,-0.016 -1.11158415,0.0144 -1.11158415,0.0144 -2.24562455,0.0291 -5.0942129,-0.0724 -8.0461341,-1.18052 -11.8764461,-4.53031 -3.301361,-5.14687 -3.426179,-9.43314 -3.380316,-15.34232 -0.0047,-0.9371 -0.0093,-1.87421 -0.01412,-2.83972 -0.01199,-3.15186 -0.0025,-6.3033 0.0068,-9.45517 -0.0042,-2.27779 -0.0096,-4.55558 -0.01632,-6.83337 -0.0145,-6.26857 -0.01019,-12.53701 -0.0028,-18.80559 0.0042,-6.06311 -0.0056,-12.12618 -0.01491,-18.18927 -0.01968,-13.16807 -0.02201,-26.33609 -0.01681,-39.50417 0.0046,-11.5235 0.004,-23.04699 -0.0018,-34.57049 -7.57e-4,-1.5449 -0.0015,-3.08981 -0.0023,-4.63471 -0.0011,-2.32793 -0.0023,-4.65587 -0.0035,-6.9838 -0.01071,-21.6463 -0.01543,-43.29259 -0.0075,-64.93889 2.98e-4,-0.8162 5.95e-4,-1.63239 9.01e-4,-2.47331 0.0024,-6.62834 0.0051,-13.25668 0.0077,-19.88502 0.0101,-25.86045 0.0017,-51.72084 -0.02149,-77.58128 -0.02606,-29.04541 -0.03892,-58.09077 -0.03181,-87.13619 7.16e-4,-3.09553 0.0014,-6.19107 0.002,-9.2866 1.7e-4,-0.76222 3.39e-4,-1.52443 5.14e-4,-2.30974 0.0023,-11.51709 -0.0057,-23.03414 -0.01881,-34.55122 -0.01489,-13.093675 -0.01578,-26.187264 0.0021,-39.280936 0.0087,-6.684224 0.01058,-13.368266 -0.0047,-20.052493 -0.01376,-6.113979 -0.0092,-12.227655 0.01024,-18.341616 0.0038,-2.216601 7.62e-4,-4.433225 -0.0096,-6.649805 -0.01306,-3.004361 -0.0017,-6.00766 0.016,-9.011974 -0.0097,-0.868122 -0.0193,-1.736243 -0.02924,-2.630672 0.06538,-5.381805 0.965594,-8.4332987 4.529815,-12.7116442 C -8.9676283,0.03436778 -5.0778227,-0.04080704 0,0 Z"
         fill="#de7329"
         transform="translate(246.03978,222.61232)"
         id="path13077" /><path
         d="m 0,0 c 0.33,0.99 0.66,1.98 1,3 -2.3236748,2.9578224 -3.4920971,3.9236005 -7.2720833,4.4921913 -1.963419,-0.00553 -1.963419,-0.00553 -3.9665027,-0.011173 -1.095435,0.00513 -1.095435,0.00513 -2.213,0.010357 -2.447852,0.00659 -4.894608,-0.015415 -7.342359,-0.037273 -1.754262,-0.00113 -3.508526,-4.951e-4 -5.262787,0.00177 -4.764239,0.00115 -9.528077,-0.022391 -14.292222,-0.050296 -4.978124,-0.024982 -9.956256,-0.027353 -14.934432,-0.032102 C -63.711072,7.361035 -73.138573,7.3282008 -82.566178,7.2880762 -93.29881,7.2433875 -104.03145,7.2213787 -114.76415,7.2012944 -136.84287,7.159469 -158.92142,7.0890988 -181,7 c 0,-0.33 0,-0.66 0,-1 58.41,0 116.82,0 177,0 C -4,5.01 -4,4.02 -4,3 -2.68,2.67 -1.36,2.34 0,2 0,1.34 0,0.68 0,0 Z"
         fill="#094769"
         transform="translate(805,785)"
         id="path13079"
         style="fill:#de7329;fill-opacity:1" /><path
         d="m 0,0 c 42.9,0 85.8,0 130,0 0,0.33 0,0.66 0,1 -6.61992,0.3113613 -13.24021,0.6135756 -19.86084,0.9094238 -2.25237,0.1017317 -4.50466,0.2055597 -6.75684,0.3115235 -3.23659,0.1519159 -6.473443,0.2962984 -9.710445,0.439209 -1.511134,0.073363 -1.511134,0.073363 -3.052795,0.1482086 -1.41101,0.060176 -1.41101,0.060176 -2.850525,0.1215667 C 86.942487,2.967682 86.11642,3.0054324 85.26532,3.0443268 83,3 83,3 81.183594,2.5114746 c -3.274673,-0.7670437 -6.545389,-0.6415996 -9.889649,-0.625 -0.771116,-1.46e-4 -1.542232,-2.92e-4 -2.336715,-4.425e-4 -2.543064,6.954e-4 -5.086054,0.00847 -7.629105,0.016312 -1.765482,0.00187 -3.530965,0.00329 -5.296448,0.00429 -4.642592,0.00381 -9.285154,0.013636 -13.927734,0.024704 -4.739071,0.010236 -9.478146,0.014798 -14.217224,0.019837 C 18.591132,1.9618909 9.2955686,1.9789548 0,2 0,1.34 0,0.68 0,0 Z"
         fill="#09486f"
         transform="translate(475,437)"
         id="path13081"
         style="fill:#de7329;fill-opacity:1" /><path
         d="m 0,0 c 2,3 2,3 2,5 1.65,0 3.3,0 5,0 0,0.33 0,0.66 0,1 -20.46,0 -40.92,0 -62,0 0,-0.33 0,-0.66 0,-1 17.49,-0.33 34.98,-0.66 53,-1 0.66,-1.32 1.32,-2.64 2,-4 z"
         fill="#e27833"
         transform="translate(303,787)"
         id="path13083" /></g></g></svg>
